<?xml version="1.0" encoding="utf-8"?>
<!-- Generator: Adobe Illustrator 17.0.0, SVG Export Plug-In . SVG Version: 6.00 Build 0)  -->
<!DOCTYPE svg PUBLIC "-//W3C//DTD SVG 1.1//EN" "http://www.w3.org/Graphics/SVG/1.1/DTD/svg11.dtd">
<svg version="1.1" id="Layer_1" xmlns="http://www.w3.org/2000/svg" xmlns:xlink="http://www.w3.org/1999/xlink" x="0px" y="0px"
	 width="250px" height="140px" viewBox="0 0 250 140" enable-background="new 0 0 250 140" xml:space="preserve">
<g>
	
		<polygon fill="#FFFFFF" stroke="#297771" stroke-width="0.8" stroke-linecap="round" stroke-linejoin="round" stroke-miterlimit="10" points="
		176.576,91.504 177.967,89.547 72.224,89.547 73.615,91.504 72.224,93.469 73.615,95.435 72.224,97.405 73.615,99.399 
		72.224,101.392 177.967,101.392 176.576,99.397 177.967,97.415 176.576,95.438 177.967,93.471 	"/>
	<g>
		
			<circle fill="#FFFFFF" stroke="#297771" stroke-width="0.8" stroke-linecap="round" stroke-linejoin="round" stroke-miterlimit="10" cx="125.095" cy="95.814" r="10.296"/>
		
			<circle fill="none" stroke="#297771" stroke-width="0.8" stroke-linecap="round" stroke-linejoin="round" stroke-miterlimit="10" cx="125.095" cy="95.814" r="8.283"/>
		
			<polyline fill="none" stroke="#297771" stroke-width="0.8" stroke-linecap="round" stroke-linejoin="round" stroke-miterlimit="10" points="
			129.846,95.794 125,95.794 125,89.44 		"/>
		
			<circle fill="#FFFFFF" stroke="#297771" stroke-width="0.8" stroke-linecap="round" stroke-linejoin="round" stroke-miterlimit="10" cx="125.095" cy="95.814" r="1.436"/>
	</g>
	<g opacity="0.5">
		<g>
			
				<path fill="none" stroke="#405765" stroke-width="0.8" stroke-linecap="round" stroke-linejoin="round" stroke-miterlimit="10" d="
				M52.369,74.364v-0.746c0-2.471-2.003-4.53-4.475-4.53h-1.021c-0.456,0-0.804-0.461-0.804-0.938c0-0.329,0.166-0.57,0.418-0.785
				h-0.011c1.069-0.862,1.768-1.97,1.768-3.374c0-2.289-1.855-4.135-4.144-4.135s-4.144,1.86-4.144,4.15
				c0,1.429,0.723,2.692,1.825,3.437c0.222,0.175,0.366,0.42,0.366,0.726c0,0.476-0.349,0.918-0.805,0.918h-0.996
				c-2.471,0-4.56,2.059-4.56,4.53v0.746"/>
			
				<line fill="none" stroke="#405765" stroke-width="0.8" stroke-linecap="round" stroke-linejoin="round" stroke-miterlimit="10" x1="38.209" y1="55.944" x2="50.032" y2="78.194"/>
		</g>
		<g>
			
				<path fill="none" stroke="#405765" stroke-width="0.8" stroke-linecap="round" stroke-linejoin="round" stroke-miterlimit="10" d="
				M75.34,74.364v-0.746c0-2.471-1.97-4.53-4.442-4.53h-1.021c-0.456,0-0.804-0.461-0.804-0.938c0-0.329,0.166-0.57,0.418-0.785
				H69.48c1.069-0.862,1.768-1.97,1.768-3.374c0-2.289-1.855-4.135-4.144-4.135s-4.144,1.86-4.144,4.15
				c0,1.429,0.723,2.692,1.825,3.437c0.222,0.175,0.366,0.42,0.366,0.726c0,0.476-0.349,0.918-0.805,0.918H63.35
				c-2.471,0-4.594,2.059-4.594,4.53v0.746"/>
			
				<line fill="none" stroke="#405765" stroke-width="0.8" stroke-linecap="round" stroke-linejoin="round" stroke-miterlimit="10" x1="61.212" y1="55.944" x2="73.037" y2="78.194"/>
		</g>
		<g>
			
				<path fill="none" stroke="#405765" stroke-width="0.8" stroke-linecap="round" stroke-linejoin="round" stroke-miterlimit="10" d="
				M98.308,74.364v-0.746c0-2.471-1.937-4.53-4.408-4.53h-1.021c-0.456,0-0.804-0.461-0.804-0.938c0-0.329,0.166-0.57,0.418-0.785
				h-0.011c1.069-0.862,1.768-1.97,1.768-3.374c0-2.289-1.855-4.135-4.144-4.135s-4.144,1.86-4.144,4.15
				c0,1.429,0.723,2.692,1.825,3.437c0.222,0.175,0.366,0.42,0.366,0.726c0,0.476-0.349,0.918-0.805,0.918h-0.996
				c-2.471,0-4.626,2.059-4.626,4.53v0.746"/>
			
				<line fill="none" stroke="#405765" stroke-width="0.8" stroke-linecap="round" stroke-linejoin="round" stroke-miterlimit="10" x1="84.213" y1="55.944" x2="96.037" y2="78.194"/>
		</g>
		<g>
			
				<path fill="none" stroke="#405765" stroke-width="0.8" stroke-linecap="round" stroke-linejoin="round" stroke-miterlimit="10" d="
				M121.279,74.364v-0.746c0-2.471-1.904-4.53-4.376-4.53h-1.021c-0.456,0-0.804-0.461-0.804-0.938c0-0.329,0.166-0.57,0.418-0.785
				h-0.011c1.069-0.862,1.768-1.97,1.768-3.374c0-2.289-1.855-4.135-4.144-4.135s-4.144,1.86-4.144,4.15
				c0,1.429,0.723,2.692,1.825,3.437c0.222,0.175,0.366,0.42,0.366,0.726c0,0.476-0.349,0.918-0.805,0.918h-0.996
				c-2.471,0-4.66,2.059-4.66,4.53v0.746"/>
			
				<line fill="none" stroke="#405765" stroke-width="0.8" stroke-linecap="round" stroke-linejoin="round" stroke-miterlimit="10" x1="107.217" y1="55.944" x2="119.04" y2="78.194"/>
		</g>
		<g>
			
				<path fill="none" stroke="#405765" stroke-width="0.8" stroke-linecap="round" stroke-linejoin="round" stroke-miterlimit="10" d="
				M144.248,74.364v-0.746c0-2.471-2.087-4.53-4.558-4.53h-1.021c-0.456,0-0.804-0.461-0.804-0.938c0-0.329,0.166-0.57,0.418-0.785
				h-0.011c1.069-0.862,1.768-1.97,1.768-3.374c0-2.289-1.855-4.135-4.144-4.135s-4.144,1.86-4.144,4.15
				c0,1.429,0.723,2.692,1.825,3.437c0.222,0.175,0.366,0.42,0.366,0.726c0,0.476-0.349,0.918-0.805,0.918h-0.996
				c-2.471,0-4.477,2.059-4.477,4.53v0.746"/>
			
				<line fill="none" stroke="#405765" stroke-width="0.8" stroke-linecap="round" stroke-linejoin="round" stroke-miterlimit="10" x1="130.003" y1="55.944" x2="141.828" y2="78.194"/>
		</g>
		<g>
			
				<path fill="none" stroke="#405765" stroke-width="0.8" stroke-linecap="round" stroke-linejoin="round" stroke-miterlimit="10" d="
				M167.219,74.364v-0.746c0-2.471-1.838-4.53-4.31-4.53h-1.021c-0.456,0-0.804-0.461-0.804-0.938c0-0.329,0.166-0.57,0.418-0.785
				h-0.011c1.069-0.862,1.768-1.97,1.768-3.374c0-2.289-1.855-4.135-4.144-4.135s-4.144,1.86-4.144,4.15
				c0,1.429,0.723,2.692,1.825,3.437c0.222,0.175,0.366,0.42,0.366,0.726c0,0.476-0.349,0.918-0.805,0.918h-0.996
				c-2.471,0-4.726,2.059-4.726,4.53v0.746"/>
			
				<line fill="none" stroke="#405765" stroke-width="0.8" stroke-linecap="round" stroke-linejoin="round" stroke-miterlimit="10" x1="153.223" y1="55.944" x2="165.046" y2="78.194"/>
		</g>
		<g>
			
				<path fill="none" stroke="#405765" stroke-width="0.8" stroke-linecap="round" stroke-linejoin="round" stroke-miterlimit="10" d="
				M190.188,74.364v-0.746c0-2.471-2.021-4.53-4.492-4.53h-1.021c-0.456,0-0.804-0.461-0.804-0.938c0-0.329,0.166-0.57,0.418-0.785
				h-0.011c1.069-0.862,1.768-1.97,1.768-3.374c0-2.289-1.855-4.135-4.144-4.135s-4.144,1.86-4.144,4.15
				c0,1.429,0.723,2.692,1.825,3.437c0.222,0.175,0.366,0.42,0.366,0.726c0,0.476-0.349,0.918-0.805,0.918h-0.996
				c-2.471,0-4.543,2.059-4.543,4.53v0.746"/>
			
				<line fill="none" stroke="#405765" stroke-width="0.8" stroke-linecap="round" stroke-linejoin="round" stroke-miterlimit="10" x1="176.01" y1="55.944" x2="187.834" y2="78.194"/>
		</g>
		<g>
			
				<path fill="none" stroke="#405765" stroke-width="0.8" stroke-linecap="round" stroke-linejoin="round" stroke-miterlimit="10" d="
				M213.158,74.364v-0.746c0-2.471-1.928-4.53-4.4-4.53h-1.021c-0.456,0-0.804-0.461-0.804-0.938c0-0.329,0.166-0.57,0.418-0.785
				h-0.011c1.069-0.862,1.768-1.97,1.768-3.374c0-2.289-1.855-4.135-4.144-4.135s-4.144,1.86-4.144,4.15
				c0,1.429,0.723,2.692,1.825,3.437c0.222,0.175,0.366,0.42,0.366,0.726c0,0.476-0.349,0.918-0.805,0.918h-0.996
				c-2.471,0-4.636,2.059-4.636,4.53v0.746"/>
			
				<line fill="none" stroke="#405765" stroke-width="0.8" stroke-linecap="round" stroke-linejoin="round" stroke-miterlimit="10" x1="199.073" y1="55.944" x2="210.897" y2="78.194"/>
		</g>
		<g>
			
				<path fill="none" stroke="#405765" stroke-width="0.8" stroke-linecap="round" stroke-linejoin="round" stroke-miterlimit="10" d="
				M236.128,74.364v-0.746c0-2.471-1.928-4.53-4.4-4.53h-1.021c-0.456,0-0.804-0.461-0.804-0.938c0-0.329,0.166-0.57,0.418-0.785
				h-0.011c1.069-0.862,1.768-1.97,1.768-3.374c0-2.289-1.855-4.135-4.144-4.135s-4.144,1.86-4.144,4.15
				c0,1.429,0.723,2.692,1.825,3.437c0.222,0.175,0.366,0.42,0.366,0.726c0,0.476-0.349,0.918-0.805,0.918h-0.996
				c-2.471,0-4.636,2.059-4.636,4.53v0.746"/>
			
				<line fill="none" stroke="#405765" stroke-width="0.8" stroke-linecap="round" stroke-linejoin="round" stroke-miterlimit="10" x1="222.043" y1="55.944" x2="233.867" y2="78.194"/>
		</g>
		<g>
			
				<path fill="none" stroke="#405765" stroke-width="0.8" stroke-linecap="round" stroke-linejoin="round" stroke-miterlimit="10" d="
				M29.4,74.364v-0.746c0-2.471-1.928-4.53-4.4-4.53h-1.021c-0.456,0-0.804-0.461-0.804-0.938c0-0.329,0.166-0.57,0.418-0.785
				h-0.011c1.069-0.862,1.768-1.97,1.768-3.374c0-2.289-1.855-4.135-4.144-4.135s-4.144,1.86-4.144,4.15
				c0,1.429,0.723,2.692,1.825,3.437c0.222,0.175,0.366,0.42,0.366,0.726c0,0.476-0.349,0.918-0.805,0.918h-0.996
				c-2.471,0-4.636,2.059-4.636,4.53v0.746"/>
			
				<line fill="none" stroke="#405765" stroke-width="0.8" stroke-linecap="round" stroke-linejoin="round" stroke-miterlimit="10" x1="15.315" y1="55.944" x2="27.139" y2="78.194"/>
		</g>
	</g>
	<g opacity="0.5">
		<g>
			
				<path fill="none" stroke="#405765" stroke-width="0.8" stroke-linecap="round" stroke-linejoin="round" stroke-miterlimit="10" d="
				M53.369,23.108v-0.746c0-2.471-2.003-4.53-4.475-4.53h-1.021c-0.456,0-0.804-0.461-0.804-0.938c0-0.329,0.166-0.57,0.418-0.785
				h-0.011c1.069-0.862,1.768-1.97,1.768-3.374c0-2.289-1.855-4.135-4.144-4.135s-4.144,1.86-4.144,4.15
				c0,1.429,0.723,2.692,1.825,3.437c0.222,0.175,0.366,0.42,0.366,0.726c0,0.476-0.349,0.918-0.805,0.918h-0.996
				c-2.471,0-4.56,2.059-4.56,4.53v0.746"/>
			
				<line fill="none" stroke="#405765" stroke-width="0.8" stroke-linecap="round" stroke-linejoin="round" stroke-miterlimit="10" x1="39.209" y1="4.688" x2="51.032" y2="26.937"/>
		</g>
		<g>
			
				<path fill="none" stroke="#405765" stroke-width="0.8" stroke-linecap="round" stroke-linejoin="round" stroke-miterlimit="10" d="
				M76.34,23.108v-0.746c0-2.471-1.97-4.53-4.442-4.53h-1.021c-0.456,0-0.804-0.461-0.804-0.938c0-0.329,0.166-0.57,0.418-0.785
				H70.48c1.069-0.862,1.768-1.97,1.768-3.374c0-2.289-1.855-4.135-4.144-4.135s-4.144,1.86-4.144,4.15
				c0,1.429,0.723,2.692,1.825,3.437c0.222,0.175,0.366,0.42,0.366,0.726c0,0.476-0.349,0.918-0.805,0.918H64.35
				c-2.471,0-4.594,2.059-4.594,4.53v0.746"/>
			
				<line fill="none" stroke="#405765" stroke-width="0.8" stroke-linecap="round" stroke-linejoin="round" stroke-miterlimit="10" x1="62.212" y1="4.688" x2="74.037" y2="26.937"/>
		</g>
		<g>
			
				<path fill="none" stroke="#405765" stroke-width="0.8" stroke-linecap="round" stroke-linejoin="round" stroke-miterlimit="10" d="
				M99.308,23.108v-0.746c0-2.471-1.937-4.53-4.408-4.53h-1.021c-0.456,0-0.804-0.461-0.804-0.938c0-0.329,0.166-0.57,0.418-0.785
				h-0.011c1.069-0.862,1.768-1.97,1.768-3.374c0-2.289-1.855-4.135-4.144-4.135s-4.144,1.86-4.144,4.15
				c0,1.429,0.723,2.692,1.825,3.437c0.222,0.175,0.366,0.42,0.366,0.726c0,0.476-0.349,0.918-0.805,0.918h-0.996
				c-2.471,0-4.626,2.059-4.626,4.53v0.746"/>
			
				<line fill="none" stroke="#405765" stroke-width="0.8" stroke-linecap="round" stroke-linejoin="round" stroke-miterlimit="10" x1="85.213" y1="4.688" x2="97.037" y2="26.937"/>
		</g>
		<g>
			
				<path fill="none" stroke="#405765" stroke-width="0.8" stroke-linecap="round" stroke-linejoin="round" stroke-miterlimit="10" d="
				M122.279,23.108v-0.746c0-2.471-1.904-4.53-4.376-4.53h-1.021c-0.456,0-0.804-0.461-0.804-0.938c0-0.329,0.166-0.57,0.418-0.785
				h-0.011c1.069-0.862,1.768-1.97,1.768-3.374c0-2.289-1.855-4.135-4.144-4.135s-4.144,1.86-4.144,4.15
				c0,1.429,0.723,2.692,1.825,3.437c0.222,0.175,0.366,0.42,0.366,0.726c0,0.476-0.349,0.918-0.805,0.918h-0.996
				c-2.471,0-4.66,2.059-4.66,4.53v0.746"/>
			
				<line fill="none" stroke="#405765" stroke-width="0.8" stroke-linecap="round" stroke-linejoin="round" stroke-miterlimit="10" x1="108.217" y1="4.688" x2="120.04" y2="26.937"/>
		</g>
		<g>
			
				<path fill="none" stroke="#405765" stroke-width="0.8" stroke-linecap="round" stroke-linejoin="round" stroke-miterlimit="10" d="
				M145.248,23.108v-0.746c0-2.471-2.087-4.53-4.558-4.53h-1.021c-0.456,0-0.804-0.461-0.804-0.938c0-0.329,0.166-0.57,0.418-0.785
				h-0.011c1.069-0.862,1.768-1.97,1.768-3.374c0-2.289-1.855-4.135-4.144-4.135s-4.144,1.86-4.144,4.15
				c0,1.429,0.723,2.692,1.825,3.437c0.222,0.175,0.366,0.42,0.366,0.726c0,0.476-0.349,0.918-0.805,0.918h-0.996
				c-2.471,0-4.477,2.059-4.477,4.53v0.746"/>
			
				<line fill="none" stroke="#405765" stroke-width="0.8" stroke-linecap="round" stroke-linejoin="round" stroke-miterlimit="10" x1="131.003" y1="4.688" x2="142.828" y2="26.937"/>
		</g>
		<g>
			
				<path fill="none" stroke="#405765" stroke-width="0.8" stroke-linecap="round" stroke-linejoin="round" stroke-miterlimit="10" d="
				M168.219,23.108v-0.746c0-2.471-1.838-4.53-4.31-4.53h-1.021c-0.456,0-0.804-0.461-0.804-0.938c0-0.329,0.166-0.57,0.418-0.785
				h-0.011c1.069-0.862,1.768-1.97,1.768-3.374c0-2.289-1.855-4.135-4.144-4.135s-4.144,1.86-4.144,4.15
				c0,1.429,0.723,2.692,1.825,3.437c0.222,0.175,0.366,0.42,0.366,0.726c0,0.476-0.349,0.918-0.805,0.918h-0.996
				c-2.471,0-4.726,2.059-4.726,4.53v0.746"/>
			
				<line fill="none" stroke="#405765" stroke-width="0.8" stroke-linecap="round" stroke-linejoin="round" stroke-miterlimit="10" x1="154.223" y1="4.688" x2="166.046" y2="26.937"/>
		</g>
		<g>
			
				<path fill="none" stroke="#405765" stroke-width="0.8" stroke-linecap="round" stroke-linejoin="round" stroke-miterlimit="10" d="
				M191.188,23.108v-0.746c0-2.471-2.021-4.53-4.492-4.53h-1.021c-0.456,0-0.804-0.461-0.804-0.938c0-0.329,0.166-0.57,0.418-0.785
				h-0.011c1.069-0.862,1.768-1.97,1.768-3.374c0-2.289-1.855-4.135-4.144-4.135s-4.144,1.86-4.144,4.15
				c0,1.429,0.723,2.692,1.825,3.437c0.222,0.175,0.366,0.42,0.366,0.726c0,0.476-0.349,0.918-0.805,0.918h-0.996
				c-2.471,0-4.543,2.059-4.543,4.53v0.746"/>
			
				<line fill="none" stroke="#405765" stroke-width="0.8" stroke-linecap="round" stroke-linejoin="round" stroke-miterlimit="10" x1="177.01" y1="4.688" x2="188.834" y2="26.937"/>
		</g>
		<g>
			
				<path fill="none" stroke="#405765" stroke-width="0.8" stroke-linecap="round" stroke-linejoin="round" stroke-miterlimit="10" d="
				M214.158,23.108v-0.746c0-2.471-1.928-4.53-4.4-4.53h-1.021c-0.456,0-0.804-0.461-0.804-0.938c0-0.329,0.166-0.57,0.418-0.785
				h-0.011c1.069-0.862,1.768-1.97,1.768-3.374c0-2.289-1.855-4.135-4.144-4.135s-4.144,1.86-4.144,4.15
				c0,1.429,0.723,2.692,1.825,3.437c0.222,0.175,0.366,0.42,0.366,0.726c0,0.476-0.349,0.918-0.805,0.918h-0.996
				c-2.471,0-4.636,2.059-4.636,4.53v0.746"/>
			
				<line fill="none" stroke="#405765" stroke-width="0.8" stroke-linecap="round" stroke-linejoin="round" stroke-miterlimit="10" x1="200.073" y1="4.688" x2="211.897" y2="26.937"/>
		</g>
		<g>
			
				<path fill="none" stroke="#405765" stroke-width="0.8" stroke-linecap="round" stroke-linejoin="round" stroke-miterlimit="10" d="
				M237.128,23.108v-0.746c0-2.471-1.928-4.53-4.4-4.53h-1.021c-0.456,0-0.804-0.461-0.804-0.938c0-0.329,0.166-0.57,0.418-0.785
				h-0.011c1.069-0.862,1.768-1.97,1.768-3.374c0-2.289-1.855-4.135-4.144-4.135s-4.144,1.86-4.144,4.15
				c0,1.429,0.723,2.692,1.825,3.437c0.222,0.175,0.366,0.42,0.366,0.726c0,0.476-0.349,0.918-0.805,0.918h-0.996
				c-2.471,0-4.636,2.059-4.636,4.53v0.746"/>
			
				<line fill="none" stroke="#405765" stroke-width="0.8" stroke-linecap="round" stroke-linejoin="round" stroke-miterlimit="10" x1="223.043" y1="4.688" x2="234.867" y2="26.937"/>
		</g>
		<g>
			
				<path fill="none" stroke="#405765" stroke-width="0.8" stroke-linecap="round" stroke-linejoin="round" stroke-miterlimit="10" d="
				M30.4,23.108v-0.746c0-2.471-1.928-4.53-4.4-4.53h-1.021c-0.456,0-0.804-0.461-0.804-0.938c0-0.329,0.166-0.57,0.418-0.785
				h-0.011c1.069-0.862,1.768-1.97,1.768-3.374c0-2.289-1.855-4.135-4.144-4.135s-4.144,1.86-4.144,4.15
				c0,1.429,0.723,2.692,1.825,3.437c0.222,0.175,0.366,0.42,0.366,0.726c0,0.476-0.349,0.918-0.805,0.918h-0.996
				c-2.471,0-4.636,2.059-4.636,4.53v0.746"/>
			
				<line fill="none" stroke="#405765" stroke-width="0.8" stroke-linecap="round" stroke-linejoin="round" stroke-miterlimit="10" x1="16.315" y1="4.688" x2="28.139" y2="26.937"/>
		</g>
	</g>
	<g opacity="0.5">
		<g>
			
				<path fill="none" stroke="#405765" stroke-width="0.8" stroke-linecap="round" stroke-linejoin="round" stroke-miterlimit="10" d="
				M64.951,48.736V47.99c0-2.471-1.97-4.53-4.442-4.53h-1.021c-0.456,0-0.804-0.461-0.804-0.938c0-0.329,0.166-0.57,0.418-0.785
				h-0.011c1.069-0.862,1.768-1.97,1.768-3.374c0-2.289-1.855-4.135-4.144-4.135s-4.144,1.86-4.144,4.15
				c0,1.429,0.723,2.692,1.825,3.437c0.222,0.175,0.366,0.42,0.366,0.726c0,0.476-0.349,0.918-0.805,0.918h-0.996
				c-2.471,0-4.594,2.059-4.594,4.53v0.746"/>
			
				<line fill="none" stroke="#405765" stroke-width="0.8" stroke-linecap="round" stroke-linejoin="round" stroke-miterlimit="10" x1="50.824" y1="30.316" x2="62.647" y2="52.566"/>
		</g>
		<g>
			
				<path fill="none" stroke="#405765" stroke-width="0.8" stroke-linecap="round" stroke-linejoin="round" stroke-miterlimit="10" d="
				M87.501,48.736V47.99c0-2.471-1.937-4.53-4.408-4.53h-1.021c-0.456,0-0.804-0.461-0.804-0.938c0-0.329,0.166-0.57,0.418-0.785
				h-0.011c1.069-0.862,1.768-1.97,1.768-3.374c0-2.289-1.855-4.135-4.144-4.135c-2.289,0-4.144,1.86-4.144,4.15
				c0,1.429,0.723,2.692,1.825,3.437c0.222,0.175,0.366,0.42,0.366,0.726c0,0.476-0.349,0.918-0.805,0.918h-0.996
				c-2.471,0-4.626,2.059-4.626,4.53v0.746"/>
			
				<line fill="none" stroke="#405765" stroke-width="0.8" stroke-linecap="round" stroke-linejoin="round" stroke-miterlimit="10" x1="73.406" y1="30.316" x2="85.23" y2="52.566"/>
		</g>
		<g>
			
				<path fill="none" stroke="#405765" stroke-width="0.8" stroke-linecap="round" stroke-linejoin="round" stroke-miterlimit="10" d="
				M110.052,48.736V47.99c0-2.471-1.904-4.53-4.376-4.53h-1.021c-0.456,0-0.804-0.461-0.804-0.938c0-0.329,0.166-0.57,0.418-0.785
				h-0.011c1.069-0.862,1.768-1.97,1.768-3.374c0-2.289-1.855-4.135-4.144-4.135s-4.144,1.86-4.144,4.15
				c0,1.429,0.723,2.692,1.825,3.437c0.222,0.175,0.366,0.42,0.366,0.726c0,0.476-0.349,0.918-0.805,0.918h-0.996
				c-2.471,0-4.66,2.059-4.66,4.53v0.746"/>
			
				<line fill="none" stroke="#405765" stroke-width="0.8" stroke-linecap="round" stroke-linejoin="round" stroke-miterlimit="10" x1="95.99" y1="30.316" x2="107.815" y2="52.566"/>
		</g>
		<g>
			
				<path fill="none" stroke="#405765" stroke-width="0.8" stroke-linecap="round" stroke-linejoin="round" stroke-miterlimit="10" d="
				M132.603,48.736V47.99c0-2.471-2.087-4.53-4.558-4.53h-1.021c-0.456,0-0.804-0.461-0.804-0.938c0-0.329,0.166-0.57,0.418-0.785
				h-0.011c1.069-0.862,1.768-1.97,1.768-3.374c0-2.289-1.855-4.135-4.144-4.135s-4.144,1.86-4.144,4.15
				c0,1.429,0.723,2.692,1.825,3.437c0.222,0.175,0.366,0.42,0.366,0.726c0,0.476-0.349,0.918-0.805,0.918h-0.996
				c-2.471,0-4.477,2.059-4.477,4.53v0.746"/>
			
				<line fill="none" stroke="#405765" stroke-width="0.8" stroke-linecap="round" stroke-linejoin="round" stroke-miterlimit="10" x1="118.36" y1="30.316" x2="130.183" y2="52.566"/>
		</g>
		<g>
			
				<path fill="none" stroke="#405765" stroke-width="0.8" stroke-linecap="round" stroke-linejoin="round" stroke-miterlimit="10" d="
				M155.154,48.736V47.99c0-2.471-1.838-4.53-4.31-4.53h-1.021c-0.456,0-0.804-0.461-0.804-0.938c0-0.329,0.166-0.57,0.418-0.785
				h-0.011c1.069-0.862,1.768-1.97,1.768-3.374c0-2.289-1.855-4.135-4.144-4.135s-4.144,1.86-4.144,4.15
				c0,1.429,0.723,2.692,1.825,3.437c0.222,0.175,0.366,0.42,0.366,0.726c0,0.476-0.349,0.918-0.805,0.918h-0.996
				c-2.471,0-4.726,2.059-4.726,4.53v0.746"/>
			
				<line fill="none" stroke="#405765" stroke-width="0.8" stroke-linecap="round" stroke-linejoin="round" stroke-miterlimit="10" x1="141.158" y1="30.316" x2="152.982" y2="52.566"/>
		</g>
		<g>
			
				<path fill="none" stroke="#405765" stroke-width="0.8" stroke-linecap="round" stroke-linejoin="round" stroke-miterlimit="10" d="
				M177.704,48.736V47.99c0-2.471-2.021-4.53-4.492-4.53h-1.021c-0.456,0-0.804-0.461-0.804-0.938c0-0.329,0.166-0.57,0.418-0.785
				h-0.011c1.069-0.862,1.768-1.97,1.768-3.374c0-2.289-1.855-4.135-4.144-4.135s-4.144,1.86-4.144,4.15
				c0,1.429,0.723,2.692,1.825,3.437c0.222,0.175,0.366,0.42,0.366,0.726c0,0.476-0.349,0.918-0.805,0.918h-0.996
				c-2.471,0-4.543,2.059-4.543,4.53v0.746"/>
			
				<line fill="none" stroke="#405765" stroke-width="0.8" stroke-linecap="round" stroke-linejoin="round" stroke-miterlimit="10" x1="163.526" y1="30.316" x2="175.35" y2="52.566"/>
		</g>
		<g>
			
				<path fill="none" stroke="#405765" stroke-width="0.8" stroke-linecap="round" stroke-linejoin="round" stroke-miterlimit="10" d="
				M200.255,48.736V47.99c0-2.471-1.928-4.53-4.4-4.53h-1.021c-0.456,0-0.804-0.461-0.804-0.938c0-0.329,0.166-0.57,0.418-0.785
				h-0.011c1.069-0.862,1.768-1.97,1.768-3.374c0-2.289-1.855-4.135-4.144-4.135s-4.144,1.86-4.144,4.15
				c0,1.429,0.723,2.692,1.825,3.437c0.222,0.175,0.366,0.42,0.366,0.726c0,0.476-0.349,0.918-0.805,0.918h-0.996
				c-2.471,0-4.636,2.059-4.636,4.53v0.746"/>
			
				<line fill="none" stroke="#405765" stroke-width="0.8" stroke-linecap="round" stroke-linejoin="round" stroke-miterlimit="10" x1="186.17" y1="30.316" x2="197.993" y2="52.566"/>
		</g>
		<g>
			
				<path fill="none" stroke="#405765" stroke-width="0.8" stroke-linecap="round" stroke-linejoin="round" stroke-miterlimit="10" d="
				M222.806,48.736V47.99c0-2.471-1.928-4.53-4.4-4.53h-1.021c-0.456,0-0.804-0.461-0.804-0.938c0-0.329,0.166-0.57,0.418-0.785
				h-0.011c1.069-0.862,1.768-1.97,1.768-3.374c0-2.289-1.855-4.135-4.144-4.135s-4.144,1.86-4.144,4.15
				c0,1.429,0.723,2.692,1.825,3.437c0.222,0.175,0.366,0.42,0.366,0.726c0,0.476-0.349,0.918-0.805,0.918h-0.996
				c-2.471,0-4.636,2.059-4.636,4.53v0.746"/>
			
				<line fill="none" stroke="#405765" stroke-width="0.8" stroke-linecap="round" stroke-linejoin="round" stroke-miterlimit="10" x1="208.721" y1="30.316" x2="220.544" y2="52.566"/>
		</g>
		<g>
			
				<path fill="none" stroke="#405765" stroke-width="0.8" stroke-linecap="round" stroke-linejoin="round" stroke-miterlimit="10" d="
				M42.4,48.736V47.99c0-2.471-1.928-4.53-4.4-4.53h-1.021c-0.456,0-0.804-0.461-0.804-0.938c0-0.329,0.166-0.57,0.418-0.785h-0.011
				c1.069-0.862,1.768-1.97,1.768-3.374c0-2.289-1.855-4.135-4.144-4.135s-4.144,1.86-4.144,4.15c0,1.429,0.723,2.692,1.825,3.437
				c0.222,0.175,0.366,0.42,0.366,0.726c0,0.476-0.349,0.918-0.805,0.918h-0.996c-2.471,0-4.636,2.059-4.636,4.53v0.746"/>
			
				<line fill="none" stroke="#405765" stroke-width="0.8" stroke-linecap="round" stroke-linejoin="round" stroke-miterlimit="10" x1="28.315" y1="30.316" x2="40.138" y2="52.566"/>
		</g>
	</g>
	<g>
		<g>
			
				<path fill="none" stroke="#E96132" stroke-width="0.8" stroke-linecap="round" stroke-linejoin="round" stroke-miterlimit="10" d="
				M101.31,135.312v-1.174c0-4.099-3.165-7.333-7.264-7.333h-1.694c-0.755,0-1.332-0.845-1.332-1.634
				c0-0.546,0.275-0.95,0.693-1.381h-0.017c1.772-1.292,2.931-3.276,2.931-5.605c0-3.796-3.077-6.86-6.872-6.86
				s-6.872,3.083-6.872,6.879c0,2.37,1.2,4.463,3.025,5.698c0.369,0.291,0.608,0.785,0.608,1.292c0,0.791-0.578,1.612-1.334,1.612
				H81.53c-4.099,0-7.786,3.235-7.786,7.333v1.174"/>
		</g>
		<g>
			
				<path fill="none" stroke="#E96132" stroke-width="0.8" stroke-linecap="round" stroke-linejoin="round" stroke-miterlimit="10" d="
				M139.43,135.312v-1.174c0-4.099-3.376-7.333-7.475-7.333h-1.694c-0.755,0-1.332-0.845-1.332-1.634
				c0-0.546,0.275-0.95,0.693-1.381h-0.017c1.772-1.292,2.931-3.276,2.931-5.605c0-3.796-3.077-6.86-6.872-6.86
				c-3.796,0-6.872,3.083-6.872,6.879c0,2.37,1.2,4.463,3.025,5.698c0.369,0.291,0.607,0.785,0.607,1.292
				c0,0.791-0.578,1.612-1.334,1.612h-1.651c-4.099,0-7.576,3.235-7.576,7.333v1.174"/>
		</g>
		<g>
			
				<path fill="none" stroke="#E96132" stroke-width="0.8" stroke-linecap="round" stroke-linejoin="round" stroke-miterlimit="10" d="
				M177.333,135.312v-1.174c0-4.099-3.274-7.333-7.371-7.333h-1.694c-0.755,0-1.332-0.845-1.332-1.634
				c0-0.546,0.275-0.95,0.693-1.381h-0.017c1.772-1.292,2.931-3.276,2.931-5.605c0-3.796-3.077-6.86-6.872-6.86
				c-3.796,0-6.872,3.083-6.872,6.879c0,2.37,1.2,4.463,3.025,5.698c0.369,0.291,0.608,0.785,0.608,1.292
				c0,0.791-0.578,1.612-1.334,1.612h-1.651c-4.099,0-7.679,3.235-7.679,7.333v1.174"/>
		</g>
		<g opacity="0.5">
			<g>
				
					<line fill="none" stroke="#E96132" stroke-width="0.8" stroke-linecap="round" stroke-linejoin="round" stroke-miterlimit="10" x1="67.24" y1="130.143" x2="58.539" y2="135.312"/>
				
					<line fill="none" stroke="#E96132" stroke-width="0.8" stroke-linecap="round" stroke-linejoin="round" stroke-miterlimit="10" x1="58.539" y1="114.422" x2="67.24" y2="119.59"/>
				
					<line fill="none" stroke="#E96132" stroke-width="0.8" stroke-linecap="round" stroke-linejoin="round" stroke-miterlimit="10" x1="67.175" y1="124.867" x2="50.161" y2="124.867"/>
			</g>
			<g>
				
					<line fill="none" stroke="#E96132" stroke-width="0.8" stroke-linecap="round" stroke-linejoin="round" stroke-miterlimit="10" x1="183.028" y1="130.143" x2="191.728" y2="135.312"/>
				
					<line fill="none" stroke="#E96132" stroke-width="0.8" stroke-linecap="round" stroke-linejoin="round" stroke-miterlimit="10" x1="191.728" y1="114.422" x2="183.028" y2="119.59"/>
				
					<line fill="none" stroke="#E96132" stroke-width="0.8" stroke-linecap="round" stroke-linejoin="round" stroke-miterlimit="10" x1="183.04" y1="124.867" x2="200.054" y2="124.867"/>
			</g>
		</g>
	</g>
</g>
</svg>
