<?xml version="1.0" encoding="utf-8"?>
<!-- Generator: Adobe Illustrator 17.0.0, SVG Export Plug-In . SVG Version: 6.00 Build 0)  -->
<!DOCTYPE svg PUBLIC "-//W3C//DTD SVG 1.1//EN" "http://www.w3.org/Graphics/SVG/1.1/DTD/svg11.dtd">
<svg version="1.1" id="Layer_1" xmlns="http://www.w3.org/2000/svg" xmlns:xlink="http://www.w3.org/1999/xlink" x="0px" y="0px"
	 width="250px" height="140px" viewBox="0 0 250 140" enable-background="new 0 0 250 140" xml:space="preserve">
<g>
	<g opacity="0.8">
		<g>
			
				<path fill="none" stroke="#405765" stroke-width="0.8" stroke-linecap="round" stroke-linejoin="round" stroke-miterlimit="10" d="
				M162.974,125.628l-28.739,3.903c-1.012,0.154-1.979-0.694-2.132-1.706c-0.154-1.012,0.562-1.814,1.531-2.264
				c0.009-0.001,0.026-0.004,0.035-0.005l28.083-3.261"/>
			
				<path fill="none" stroke="#405765" stroke-width="0.8" stroke-linecap="round" stroke-linejoin="round" stroke-miterlimit="10" d="
				M163.264,118.679l-29.029-3.79c-1.012-0.154-1.979,0.694-2.132,1.706c-0.154,1.012,0.562,1.814,1.531,2.264
				c0.009,0.001,0.026,0.004,0.035,0.005l28.083,3.261"/>
		</g>
		
			<path fill="none" stroke="#405765" stroke-width="0.8" stroke-linecap="round" stroke-linejoin="round" stroke-miterlimit="10" d="
			M167.423,122.58l15.496-5.816c-2.391-2.428-9.127-3.806-14.056-2.057s-7.944,5.933-6.704,9.425"/>
		<g>
			
				<path fill="none" stroke="#405765" stroke-width="0.8" stroke-linecap="round" stroke-linejoin="round" stroke-miterlimit="10" d="
				M166.452,122.287l16.467,5.792c-2.391,2.428-9.127,3.806-14.056,2.057s-7.944-5.933-6.704-9.425l1.429,0.622"/>
		</g>
		
			<circle fill="none" stroke="#405765" stroke-width="0.8" stroke-linecap="round" stroke-linejoin="round" stroke-miterlimit="10" cx="164.858" cy="122.287" r="1.594"/>
	</g>
	<g opacity="0.3">
		<g>
			
				<path fill="none" stroke="#297771" stroke-width="0.8" stroke-linecap="round" stroke-linejoin="round" stroke-miterlimit="10" d="
				M235.947,95.41l1.599,35.173c0.111,0.845-0.612,1.635-1.457,1.746c-0.845,0.111-1.5-0.499-1.858-1.314
				c-0.001-0.007-0.003-0.022-0.004-0.029l-1.071-34.848"/>
			
				<path fill="none" stroke="#297771" stroke-width="0.8" stroke-linecap="round" stroke-linejoin="round" stroke-miterlimit="10" d="
				M229.613,95.41l-1.599,35.173c-0.111,0.845,0.612,1.635,1.457,1.746c0.845,0.111,1.5-0.499,1.858-1.314
				c0.001-0.007,0.003-0.022,0.004-0.029l1.075-34.961"/>
		</g>
		
			<path fill="none" stroke="#297771" stroke-width="0.8" stroke-linecap="round" stroke-linejoin="round" stroke-miterlimit="10" d="
			M235.528,82.47l-1.294,3.059c1.386,0.586,2.283,1.938,2.283,3.444c0,0.815-0.266,1.566-0.71,2.18h-6.053
			c-0.445-0.614-0.71-1.365-0.71-2.18c0-1.434,0.8-2.719,2.087-3.354l-1.469-2.979c-2.43,1.198-3.94,3.625-3.94,6.333
			c0,3.892,3.166,7.059,7.058,7.059c3.892,0,7.058-3.167,7.058-7.059C239.838,86.131,238.146,83.578,235.528,82.47z"/>
		
			<circle fill="none" stroke="#297771" stroke-width="0.8" stroke-linecap="round" stroke-linejoin="round" stroke-miterlimit="10" cx="232.78" cy="93.459" r="1.328"/>
	</g>
	<g opacity="0.5">
		<g>
			
				<ellipse fill="none" stroke="#405765" stroke-width="0.8" stroke-linecap="round" stroke-linejoin="round" stroke-miterlimit="10" cx="213.746" cy="125.124" rx="6.903" ry="4.617"/>
			
				<path fill="none" stroke="#405765" stroke-width="0.8" stroke-linecap="round" stroke-linejoin="round" stroke-miterlimit="10" d="
				M220.649,125.124h-2.926c0,0-1.737,1.143-3.383,1.143c-1.646,0-2.743-1.143-2.743-1.143s-2.309-3.023-4.754,0"/>
			
				<path fill="none" stroke="#405765" stroke-width="0.8" stroke-linecap="round" stroke-linejoin="round" stroke-miterlimit="10" d="
				M211.598,125.124c0,0,1.371-0.996,3.108-0.996c1.737,0,3.017,0.996,3.017,0.996"/>
		</g>
		<g>
			
				<path fill="none" stroke="#405765" stroke-width="0.8" stroke-linecap="round" stroke-linejoin="round" stroke-miterlimit="10" d="
				M206.989,124.337c-0.1-0.032-10.145-3.175-18.653-1.086c-0.735,0.181-1.478-0.269-1.659-1.005
				c-0.029-0.118-0.042-0.237-0.04-0.353c0.011-0.607,0.427-1.154,1.044-1.305c9.271-2.278,20.25,1.544,20.69,1.685"/>
			
				<path fill="none" stroke="#405765" stroke-width="0.8" stroke-linecap="round" stroke-linejoin="round" stroke-miterlimit="10" d="
				M206.989,125.911c-0.1,0.032-10.145,3.175-18.653,1.086c-0.735-0.181-1.478,0.269-1.659,1.005
				c-0.029,0.118-0.042,0.237-0.04,0.353c0.011,0.607,0.427,1.154,1.044,1.305c9.271,2.278,20.25-1.544,20.69-1.685"/>
		</g>
	</g>
	<g opacity="0.8">
		
			<path fill="none" stroke="#297771" stroke-width="0.8" stroke-linecap="round" stroke-linejoin="round" stroke-miterlimit="10" d="
			M146.734,92.27c0,2.834,1.73,5.302,4.07,6.623v-7.615l3.705-2.162l3.705,2.162v7.739c2.34-1.287,3.801-3.825,3.801-6.747
			c0-3.517-2.494-6.472-5.734-7.364l0.812-38.616c0.002-0.069-0.022-0.146-0.024-0.217c-0.06-1.615-1.43-2.876-3.045-2.816
			c-1.615,0.06-2.882,1.418-2.823,3.033l0.956,38.631C148.961,85.832,146.734,88.774,146.734,92.27z"/>
		
			<circle fill="none" stroke="#297771" stroke-width="0.8" stroke-linecap="round" stroke-linejoin="round" stroke-miterlimit="10" cx="154.05" cy="46.55" r="1.04"/>
	</g>
	<g opacity="0.8">
		
			<path fill="none" stroke="#297771" stroke-width="0.8" stroke-linecap="round" stroke-linejoin="round" stroke-miterlimit="10" d="
			M47.983,64.036c0,0.342-0.277,0.62-0.62,0.62h-6.075c-0.342,0-0.62-0.277-0.62-0.62V39.432c0-0.342,0.277-0.62,0.62-0.62h6.075
			c0.342,0,0.62,0.277,0.62,0.62V64.036z"/>
		
			<path fill="none" stroke="#297771" stroke-width="0.8" stroke-linecap="round" stroke-linejoin="round" stroke-miterlimit="10" d="
			M47.071,64.533v3.291c0,0.135,0.051,0.244-0.389,0.244s-4.672,0-4.896,0c-0.224,0-0.308-0.109-0.308-0.244v-3.291"/>
		
			<path fill="none" stroke="#297771" stroke-width="0.8" stroke-linecap="round" stroke-linejoin="round" stroke-miterlimit="10" d="
			M41.48,38.863v-1.097c0-0.135-0.051-0.244,0.389-0.244c0.44,0,4.672,0,4.896,0c0.224,0,0.308,0.109,0.308,0.244v1.097"/>
		
			<polyline fill="none" stroke="#297771" stroke-width="0.8" stroke-linecap="round" stroke-linejoin="round" stroke-miterlimit="10" points="
			43.381,68.19 43.381,74.285 42.122,75.2 41.37,112.44 47.282,112.44 46.561,75.2 45.332,74.285 45.332,68.19 		"/>
		
			<line fill="none" stroke="#297771" stroke-width="0.8" stroke-linecap="round" stroke-linejoin="round" stroke-miterlimit="10" x1="47.252" y1="111.465" x2="41.4" y2="111.465"/>
	</g>
	<g>
		
			<path fill="none" stroke="#297771" stroke-width="0.8" stroke-linecap="round" stroke-linejoin="round" stroke-miterlimit="10" d="
			M59.963,64.036c0,0.342-0.277,0.62-0.62,0.62h-6.075c-0.342,0-0.62-0.277-0.62-0.62V39.432c0-0.342,0.277-0.62,0.62-0.62h6.075
			c0.342,0,0.62,0.277,0.62,0.62V64.036z"/>
		
			<path fill="none" stroke="#297771" stroke-width="0.8" stroke-linecap="round" stroke-linejoin="round" stroke-miterlimit="10" d="
			M59.05,64.533v3.291c0,0.135,0.051,0.244-0.389,0.244s-4.672,0-4.896,0s-0.308-0.109-0.308-0.244v-3.291"/>
		
			<path fill="none" stroke="#297771" stroke-width="0.8" stroke-linecap="round" stroke-linejoin="round" stroke-miterlimit="10" d="
			M53.46,38.863v-1.097c0-0.135-0.051-0.244,0.389-0.244s4.672,0,4.896,0c0.224,0,0.308,0.109,0.308,0.244v1.097"/>
		
			<polyline fill="none" stroke="#297771" stroke-width="0.8" stroke-linecap="round" stroke-linejoin="round" stroke-miterlimit="10" points="
			55.361,68.19 55.361,74.285 54.65,75.2 54.447,112.44 58.165,112.44 57.992,75.2 57.311,74.285 57.311,68.19 		"/>
		
			<line fill="none" stroke="#297771" stroke-width="0.8" stroke-linecap="round" stroke-linejoin="round" stroke-miterlimit="10" x1="58.134" y1="111.465" x2="54.477" y2="111.465"/>
	</g>
	<g opacity="0.5">
		
			<path fill="none" stroke="#297771" stroke-width="0.8" stroke-linecap="round" stroke-linejoin="round" stroke-miterlimit="10" d="
			M34.818,64.036c0,0.342-0.277,0.62-0.62,0.62h-6.075c-0.342,0-0.62-0.277-0.62-0.62V39.432c0-0.342,0.277-0.62,0.62-0.62h6.075
			c0.342,0,0.62,0.277,0.62,0.62V64.036z"/>
		
			<path fill="none" stroke="#297771" stroke-width="0.8" stroke-linecap="round" stroke-linejoin="round" stroke-miterlimit="10" d="
			M33.905,64.533v3.291c0,0.135,0.051,0.244-0.389,0.244s-4.672,0-4.896,0c-0.224,0-0.308-0.109-0.308-0.244v-3.291"/>
		
			<path fill="none" stroke="#297771" stroke-width="0.8" stroke-linecap="round" stroke-linejoin="round" stroke-miterlimit="10" d="
			M28.315,38.863v-1.097c0-0.135-0.051-0.244,0.389-0.244s4.672,0,4.896,0c0.224,0,0.308,0.109,0.308,0.244v1.097"/>
		
			<polyline fill="none" stroke="#297771" stroke-width="0.8" stroke-linecap="round" stroke-linejoin="round" stroke-miterlimit="10" points="
			30.216,68.19 30.216,74.285 27.859,75.2 27.108,112.44 35.214,112.44 34.493,75.2 32.167,74.285 32.167,68.19 		"/>
		
			<line fill="none" stroke="#297771" stroke-width="0.8" stroke-linecap="round" stroke-linejoin="round" stroke-miterlimit="10" x1="35.184" y1="111.465" x2="27.138" y2="111.465"/>
	</g>
	<g opacity="0.3">
		
			<path fill="none" stroke="#297771" stroke-width="0.8" stroke-linecap="round" stroke-linejoin="round" stroke-miterlimit="10" d="
			M19.609,64.036c0,0.342-0.277,0.62-0.62,0.62h-6.075c-0.342,0-0.62-0.277-0.62-0.62V39.432c0-0.342,0.277-0.62,0.62-0.62h6.075
			c0.342,0,0.62,0.277,0.62,0.62V64.036z"/>
		
			<path fill="none" stroke="#297771" stroke-width="0.8" stroke-linecap="round" stroke-linejoin="round" stroke-miterlimit="10" d="
			M18.697,64.533v3.291c0,0.135,0.051,0.244-0.389,0.244s-4.672,0-4.896,0c-0.224,0-0.308-0.109-0.308-0.244v-3.291"/>
		
			<path fill="none" stroke="#297771" stroke-width="0.8" stroke-linecap="round" stroke-linejoin="round" stroke-miterlimit="10" d="
			M13.106,38.863v-1.097c0-0.135-0.051-0.244,0.389-0.244c0.44,0,4.672,0,4.896,0s0.308,0.109,0.308,0.244v1.097"/>
		
			<polyline fill="none" stroke="#297771" stroke-width="0.8" stroke-linecap="round" stroke-linejoin="round" stroke-miterlimit="10" points="
			15.008,68.19 15.008,74.285 10.457,75.2 9.705,112.44 22.2,112.44 21.479,75.2 16.958,74.285 16.958,68.19 		"/>
		
			<line fill="none" stroke="#297771" stroke-width="0.8" stroke-linecap="round" stroke-linejoin="round" stroke-miterlimit="10" x1="22.169" y1="111.465" x2="9.735" y2="111.465"/>
	</g>
	<g opacity="0.3">
		<g>
			
				<path fill="none" stroke="#297771" stroke-width="0.8" stroke-linecap="round" stroke-linejoin="round" stroke-miterlimit="10" d="
				M104.321,17.544c-2.222,0-4.017-1.824-4.017-4.046s1.807-4.046,4.029-4.046h25.325v8.091H104.321z"/>
			
				<path fill="none" stroke="#297771" stroke-width="0.8" stroke-linecap="round" stroke-linejoin="round" stroke-miterlimit="10" d="
				M130.206,18.709c-0.303,0-0.549-0.246-0.549-0.549V8.835c0-0.303,0.246-0.549,0.549-0.549h1.646c0.303,0,0.549,0.246,0.549,0.549
				v9.325c0,0.303-0.246,0.549-0.549,0.549H130.206z"/>
			
				<polyline fill="none" stroke="#297771" stroke-width="0.8" stroke-linecap="round" stroke-linejoin="round" stroke-miterlimit="10" points="
				132.401,14.321 157.908,14.321 157.908,14.869 163.942,14.869 163.942,12.127 157.908,12.127 157.908,12.675 132.401,12.675 			
				"/>
			<g>
				
					<line fill="none" stroke="#297771" stroke-width="0.8" stroke-linecap="round" stroke-linejoin="round" stroke-miterlimit="10" x1="129.658" y1="11.578" x2="104.26" y2="11.578"/>
				
					<line fill="none" stroke="#297771" stroke-width="0.8" stroke-linecap="round" stroke-linejoin="round" stroke-miterlimit="10" x1="129.658" y1="13.498" x2="104.26" y2="13.498"/>
				
					<line fill="none" stroke="#297771" stroke-width="0.8" stroke-linecap="round" stroke-linejoin="round" stroke-miterlimit="10" x1="129.658" y1="15.418" x2="104.26" y2="15.418"/>
			</g>
		</g>
		
			<line fill="none" stroke="#297771" stroke-width="0.8" stroke-linecap="round" stroke-linejoin="round" stroke-miterlimit="10" x1="104.26" y1="9.453" x2="104.26" y2="17.544"/>
	</g>
	<g opacity="0.3">
		<g>
			
				<path fill="none" stroke="#297771" stroke-width="0.8" stroke-linecap="round" stroke-linejoin="round" stroke-miterlimit="10" d="
				M15.676,17.544c-2.222,0-4.017-1.824-4.017-4.046s1.807-4.046,4.029-4.046h25.325v8.091H15.676z"/>
			
				<path fill="none" stroke="#297771" stroke-width="0.8" stroke-linecap="round" stroke-linejoin="round" stroke-miterlimit="10" d="
				M41.561,18.709c-0.303,0-0.549-0.246-0.549-0.549V8.835c0-0.303,0.246-0.549,0.549-0.549h1.646c0.303,0,0.549,0.246,0.549,0.549
				v9.325c0,0.303-0.246,0.549-0.549,0.549H41.561z"/>
			
				<polyline fill="none" stroke="#297771" stroke-width="0.8" stroke-linecap="round" stroke-linejoin="round" stroke-miterlimit="10" points="
				43.755,15.321 82.263,15.321 82.263,15.869 92.297,15.869 92.297,11.127 82.263,11.127 82.263,11.675 43.755,11.675 			"/>
			<g>
				
					<line fill="none" stroke="#297771" stroke-width="0.8" stroke-linecap="round" stroke-linejoin="round" stroke-miterlimit="10" x1="41.013" y1="11.578" x2="15.615" y2="11.578"/>
				
					<line fill="none" stroke="#297771" stroke-width="0.8" stroke-linecap="round" stroke-linejoin="round" stroke-miterlimit="10" x1="41.013" y1="13.498" x2="15.615" y2="13.498"/>
				
					<line fill="none" stroke="#297771" stroke-width="0.8" stroke-linecap="round" stroke-linejoin="round" stroke-miterlimit="10" x1="41.013" y1="15.418" x2="15.615" y2="15.418"/>
			</g>
		</g>
		
			<line fill="none" stroke="#297771" stroke-width="0.8" stroke-linecap="round" stroke-linejoin="round" stroke-miterlimit="10" x1="15.615" y1="9.453" x2="15.615" y2="17.544"/>
	</g>
	<g opacity="0.3">
		<g>
			
				<path fill="none" stroke="#297771" stroke-width="0.8" stroke-linecap="round" stroke-linejoin="round" stroke-miterlimit="10" d="
				M233.65,8.824c2.222,0,4.017,1.824,4.017,4.046s-1.807,4.046-4.029,4.046h-25.325V8.824H233.65z"/>
			
				<path fill="none" stroke="#297771" stroke-width="0.8" stroke-linecap="round" stroke-linejoin="round" stroke-miterlimit="10" d="
				M207.765,7.658c0.303,0,0.549,0.246,0.549,0.549v9.325c0,0.303-0.246,0.549-0.549,0.549h-1.646c-0.303,0-0.549-0.246-0.549-0.549
				V8.207c0-0.303,0.246-0.549,0.549-0.549H207.765z"/>
			
				<polyline fill="none" stroke="#297771" stroke-width="0.8" stroke-linecap="round" stroke-linejoin="round" stroke-miterlimit="10" points="
				205.571,12.047 180.063,12.047 179.515,11.498 174.029,11.498 174.029,14.241 179.515,14.241 180.063,13.692 205.571,13.692 			
				"/>
			<g>
				
					<line fill="none" stroke="#297771" stroke-width="0.8" stroke-linecap="round" stroke-linejoin="round" stroke-miterlimit="10" x1="208.314" y1="14.789" x2="233.712" y2="14.789"/>
				
					<line fill="none" stroke="#297771" stroke-width="0.8" stroke-linecap="round" stroke-linejoin="round" stroke-miterlimit="10" x1="208.314" y1="12.869" x2="233.712" y2="12.869"/>
				
					<line fill="none" stroke="#297771" stroke-width="0.8" stroke-linecap="round" stroke-linejoin="round" stroke-miterlimit="10" x1="208.314" y1="10.95" x2="233.712" y2="10.95"/>
			</g>
		</g>
		
			<polyline fill="none" stroke="#297771" stroke-width="0.8" stroke-linecap="round" stroke-linejoin="round" stroke-miterlimit="10" points="
			174.029,14.241 171.588,12.869 174.029,11.498 		"/>
		
			<polyline fill="none" stroke="#297771" stroke-width="0.8" stroke-linecap="round" stroke-linejoin="round" stroke-miterlimit="10" points="
			174.029,13.378 171.588,12.869 174.029,12.361 		"/>
		
			<line fill="none" stroke="#297771" stroke-width="0.8" stroke-linecap="round" stroke-linejoin="round" stroke-miterlimit="10" x1="179.405" y1="11.498" x2="179.405" y2="14.241"/>
		
			<line fill="none" stroke="#297771" stroke-width="0.8" stroke-linecap="round" stroke-linejoin="round" stroke-miterlimit="10" x1="233.712" y1="16.915" x2="233.712" y2="8.824"/>
	</g>
	<g opacity="0.8">
		<g>
			
				<path fill="none" stroke="#405765" stroke-width="0.8" stroke-linecap="round" stroke-linejoin="round" stroke-miterlimit="10" d="
				M130.737,34.247c-1.911,0-3.456-1.569-3.456-3.48s1.554-3.48,3.466-3.48h10.815v6.961H130.737z"/>
			
				<path fill="none" stroke="#405765" stroke-width="0.8" stroke-linecap="round" stroke-linejoin="round" stroke-miterlimit="10" d="
				M142.035,35.25c-0.261,0-0.472-0.211-0.472-0.472v-8.022c0-0.261,0.211-0.472,0.472-0.472h1.416c0.261,0,0.472,0.211,0.472,0.472
				v8.022c0,0.261-0.211,0.472-0.472,0.472H142.035z"/>
			
				<polyline fill="none" stroke="#405765" stroke-width="0.8" stroke-linecap="round" stroke-linejoin="round" stroke-miterlimit="10" points="
				143.922,31.398 160.086,31.398 160.086,30.135 143.922,30.135 			"/>
			<g>
				
					<line fill="none" stroke="#405765" stroke-width="0.8" stroke-linecap="round" stroke-linejoin="round" stroke-miterlimit="10" x1="141.563" y1="29.115" x2="130.59" y2="29.115"/>
				
					<line fill="none" stroke="#405765" stroke-width="0.8" stroke-linecap="round" stroke-linejoin="round" stroke-miterlimit="10" x1="141.563" y1="30.767" x2="130.59" y2="30.767"/>
				
					<line fill="none" stroke="#405765" stroke-width="0.8" stroke-linecap="round" stroke-linejoin="round" stroke-miterlimit="10" x1="141.563" y1="32.418" x2="130.59" y2="32.418"/>
			</g>
		</g>
		
			<polyline fill="none" stroke="#405765" stroke-width="0.8" stroke-linecap="round" stroke-linejoin="round" stroke-miterlimit="10" points="
			160.086,30.135 162.186,30.767 160.086,31.398 		"/>
		
			<line fill="none" stroke="#405765" stroke-width="0.8" stroke-linecap="round" stroke-linejoin="round" stroke-miterlimit="10" x1="130.684" y1="27.286" x2="130.684" y2="34.247"/>
	</g>
	<g opacity="0.5">
		
			<circle fill="none" stroke="#297771" stroke-width="0.8" stroke-linecap="round" stroke-linejoin="round" stroke-miterlimit="10" cx="172.53" cy="90.228" r="1.04"/>
		
			<path fill="none" stroke="#297771" stroke-width="0.8" stroke-linecap="round" stroke-linejoin="round" stroke-miterlimit="10" d="
			M179.976,50.244c0-3.159-2.117-5.87-4.781-7.043v6.806l-2.998,1.655l-2.998-1.655v-6.806c-2.665,1.173-4.648,3.884-4.648,7.043
			c0,3.538,2.442,6.509,5.741,7.391l-0.805,32.907c-0.002,0.069,0.022,0.146,0.024,0.217c0.06,1.615,1.43,2.876,3.045,2.816
			c1.615-0.06,2.882-1.418,2.823-3.033l-0.948-32.93C177.657,56.698,179.976,53.749,179.976,50.244z"/>
	</g>
	<g>
		
			<circle fill="none" stroke="#297771" stroke-width="0.8" stroke-linecap="round" stroke-linejoin="round" stroke-miterlimit="10" cx="106.85" cy="47.115" r="1.04"/>
		
			<path fill="none" stroke="#297771" stroke-width="0.8" stroke-linecap="round" stroke-linejoin="round" stroke-miterlimit="10" d="
			M99.281,99.786c0,2.323,1.037,4.399,2.669,5.805V98.95l4.996-2.729l4.996,2.729v6.641c1.632-1.406,2.669-3.482,2.669-5.805
			c0-3.489-2.334-6.429-5.524-7.356l0.806-45.575c0.002-0.069-0.022-0.146-0.024-0.217c-0.06-1.615-1.43-2.876-3.045-2.816
			c-1.615,0.06-2.882,1.418-2.823,3.033l0.946,45.539C101.685,93.274,99.281,96.246,99.281,99.786z"/>
	</g>
	<g opacity="0.3">
		
			<path fill="none" stroke="#297771" stroke-width="0.8" stroke-linecap="round" stroke-linejoin="round" stroke-miterlimit="10" d="
			M236.086,75.528H183.06v-3.829c0,0,7.885-0.901,13.291-9.236h14.417c0,0,6.891,9.01,25.318,9.01V75.528z"/>
		
			<path fill="none" stroke="#297771" stroke-width="0.8" stroke-linecap="round" stroke-linejoin="round" stroke-miterlimit="10" d="
			M220.712,68.909c2.384-0.588,5.147-1.194,8.155-1.715c0,0,0.297-8.856-5.044-15.756c0,0,3.848-5.184,11.495-8.122
			c2.105-0.809-1.129,2.928,0,4.73s5.946,8.785,4.802,26.13c0,0-1.56,0.06-4.035,0.079"/>
		
			<polyline fill="none" stroke="#297771" stroke-width="0.8" stroke-linecap="round" stroke-linejoin="round" stroke-miterlimit="10" points="
			208.143,62.385 226.545,44.668 228.867,44.668 210.732,62.385 		"/>
		
			<path fill="none" stroke="#297771" stroke-width="0.8" stroke-linecap="round" stroke-linejoin="round" stroke-miterlimit="10" d="
			M203.205,62.463c3.058-3.604,13.195-9.461,13.195-9.461l-9.912,9.461"/>
		
			<line fill="none" stroke="#297771" stroke-width="0.8" stroke-linecap="round" stroke-linejoin="round" stroke-miterlimit="10" x1="211.596" y1="63.364" x2="216.4" y2="63.364"/>
		
			<line fill="none" stroke="#297771" stroke-width="0.8" stroke-linecap="round" stroke-linejoin="round" stroke-miterlimit="10" x1="216.4" y1="61.337" x2="211.94" y2="61.337"/>
		
			<path fill="none" stroke="#297771" stroke-width="0.8" stroke-linecap="round" stroke-linejoin="round" stroke-miterlimit="10" d="
			M216.4,64.941c0,0.249,0.202,0.451,0.451,0.451h0.358c0.249,0,0.451-0.202,0.451-0.451V59.31c0-0.249-0.202-0.451-0.451-0.451
			h-0.358c-0.249,0-0.451,0.202-0.451,0.451V64.941z"/>
		
			<path fill="none" stroke="#297771" stroke-width="0.8" stroke-linecap="round" stroke-linejoin="round" stroke-miterlimit="10" d="
			M186.22,70.828c0.202-0.341,0.332-0.796,0.333-1.251c0-0.455-0.131-0.91-0.333-1.251c-0.1-0.17-0.208-0.311-0.298-0.41
			c-1.359-0.655-2.298-2.041-2.298-3.65c0-2.239,1.815-4.055,4.055-4.055s4.055,1.815,4.055,4.055c0,1.609-0.94,2.995-2.298,3.65
			c-0.09,0.099-0.197,0.24-0.298,0.41c-0.202,0.341-0.332,0.796-0.333,1.251"/>
		
			<path fill="none" stroke="#297771" stroke-width="0.8" stroke-linecap="round" stroke-linejoin="round" stroke-miterlimit="10" d="
			M189.437,70.339"/>
	</g>
	<g>
		
			<polyline fill="none" stroke="#297771" stroke-width="0.8" stroke-linecap="round" stroke-linejoin="round" stroke-miterlimit="10" points="
			78.7,59.727 78.7,61.894 77.908,64.561 77.908,110.702 85.083,110.702 85.083,64.561 84.29,61.894 84.29,59.727 		"/>
		
			<polyline fill="none" stroke="#297771" stroke-width="0.8" stroke-linecap="round" stroke-linejoin="round" stroke-miterlimit="10" points="
			84.29,42.407 84.29,38.135 78.7,38.135 78.7,42.407 		"/>
		
			<path fill="none" stroke="#297771" stroke-width="0.8" stroke-linecap="round" stroke-linejoin="round" stroke-miterlimit="10" d="
			M96.165,59.727h-29.34c0,0-0.667-3.209-0.667-8.512s0.667-8.809,0.667-8.809h29.34c0,0,0.667,4.202,0.667,8.809
			S96.165,59.727,96.165,59.727z"/>
	</g>
	<g>
		
			<circle fill="none" stroke="#297771" stroke-width="0.8" stroke-linecap="round" stroke-linejoin="round" stroke-miterlimit="10" cx="201.913" cy="97.688" r="7.096"/>
		
			<circle fill="none" stroke="#297771" stroke-width="0.8" stroke-linecap="round" stroke-linejoin="round" stroke-miterlimit="10" cx="201.913" cy="97.688" r="5.266"/>
		
			<path fill="none" stroke="#297771" stroke-width="0.8" stroke-linecap="round" stroke-linejoin="round" stroke-miterlimit="10" d="
			M191.36,92.203l-1.082-1.082c0,0,0.193-1.29,1.564-2.661c1.371-1.371,2.655-1.558,2.655-1.558l1.029,1.029"/>
		
			<circle fill="none" stroke="#297771" stroke-width="0.8" stroke-linecap="round" stroke-linejoin="round" stroke-miterlimit="10" cx="195.366" cy="105.332" r="1.294"/>
		
			<path fill="none" stroke="#297771" stroke-width="0.8" stroke-linecap="round" stroke-linejoin="round" stroke-miterlimit="10" d="
			M213.209,102.954c0.585-1.426,0.91-2.986,0.91-4.623c0-6.741-5.464-12.205-12.205-12.205s-12.205,5.465-12.205,12.205
			c0,3.665,1.618,6.951,4.176,9.188h13.295l3.612-4.565H213.209z"/>
		
			<path fill="none" stroke="#297771" stroke-width="0.8" stroke-linecap="round" stroke-linejoin="round" stroke-miterlimit="10" d="
			M207.771,106.904h2.391c1.225-1.071,2.199-2.421,2.826-3.95"/>
		
			<polyline fill="none" stroke="#297771" stroke-width="0.8" stroke-linecap="round" stroke-linejoin="round" stroke-miterlimit="10" points="
			193.236,106.904 160.736,106.904 160.736,105.446 191.896,105.446 		"/>
		
			<rect x="159.57" y="103.57" fill="none" stroke="#297771" stroke-width="0.8" stroke-linecap="round" stroke-linejoin="round" stroke-miterlimit="10" width="1.166" height="3.335"/>
	</g>
	<g opacity="0.3">
		
			<path fill="none" stroke="#297771" stroke-width="0.8" stroke-linecap="round" stroke-linejoin="round" stroke-miterlimit="10" d="
			M77.707,118.125v3.917c0,0.758-0.615,1.373-1.373,1.373H58.033c-0.758,0-1.373-0.615-1.373-1.373v-3.917H10.244v11.42h113.88
			v-11.42H77.707z"/>
		<g>
			
				<ellipse fill="none" stroke="#297771" stroke-width="0.8" stroke-linecap="round" stroke-linejoin="round" stroke-miterlimit="10" cx="67.184" cy="120.907" rx="2.196" ry="1.537"/>
			
				<ellipse fill="none" stroke="#297771" stroke-width="0.8" stroke-linecap="round" stroke-linejoin="round" stroke-miterlimit="10" cx="72.948" cy="120.907" rx="0.747" ry="0.523"/>
			
				<ellipse fill="none" stroke="#297771" stroke-width="0.8" stroke-linecap="round" stroke-linejoin="round" stroke-miterlimit="10" cx="61.42" cy="120.907" rx="0.747" ry="0.523"/>
		</g>
		
			<line fill="none" stroke="#297771" stroke-width="0.8" stroke-linecap="round" stroke-linejoin="round" stroke-miterlimit="10" x1="56.66" y1="118.564" x2="77.707" y2="118.564"/>
		
			<line fill="none" stroke="#297771" stroke-width="0.8" stroke-linecap="round" stroke-linejoin="round" stroke-miterlimit="10" x1="12.897" y1="129.545" x2="12.897" y2="118.125"/>
		
			<line fill="none" stroke="#297771" stroke-width="0.8" stroke-linecap="round" stroke-linejoin="round" stroke-miterlimit="10" x1="121.624" y1="129.545" x2="121.624" y2="118.125"/>
		
			<circle fill="none" stroke="#297771" stroke-width="0.8" stroke-linecap="round" stroke-linejoin="round" stroke-miterlimit="10" cx="20.659" cy="123.835" r="3.595"/>
		<g>
			
				<line fill="none" stroke="#297771" stroke-width="0.8" stroke-linecap="round" stroke-linejoin="round" stroke-miterlimit="10" x1="23.115" y1="126.519" x2="23.115" y2="121.151"/>
			
				<line fill="none" stroke="#297771" stroke-width="0.8" stroke-linecap="round" stroke-linejoin="round" stroke-miterlimit="10" x1="18.202" y1="126.519" x2="18.202" y2="121.151"/>
		</g>
		
			<ellipse fill="none" stroke="#297771" stroke-width="0.8" stroke-linecap="round" stroke-linejoin="round" stroke-miterlimit="10" cx="20.659" cy="123.835" rx="0.785" ry="1.122"/>
	</g>
	<g opacity="0.5">
		<g>
			
				<polyline fill="none" stroke="#405765" stroke-width="0.8" stroke-linecap="round" stroke-linejoin="round" stroke-miterlimit="10" points="
				102.946,27.468 102.946,31.3 103.517,31.871 104.088,31.3 104.088,27.468 			"/>
			
				<path fill="none" stroke="#405765" stroke-width="0.8" stroke-linecap="round" stroke-linejoin="round" stroke-miterlimit="10" d="
				M104.727,27.468h-2.421c0-0.668,0.542-1.21,1.21-1.21C104.185,26.258,104.727,26.8,104.727,27.468z"/>
		</g>
		<g>
			
				<polyline fill="none" stroke="#405765" stroke-width="0.8" stroke-linecap="round" stroke-linejoin="round" stroke-miterlimit="10" points="
				102.946,35.212 102.946,37.398 103.517,37.969 104.088,37.398 104.088,35.212 			"/>
			
				<path fill="none" stroke="#405765" stroke-width="0.8" stroke-linecap="round" stroke-linejoin="round" stroke-miterlimit="10" d="
				M104.727,35.212h-2.421c0-0.668,0.542-1.21,1.21-1.21C104.185,34.001,104.727,34.543,104.727,35.212z"/>
		</g>
		<g>
			
				<polyline fill="none" stroke="#405765" stroke-width="0.8" stroke-linecap="round" stroke-linejoin="round" stroke-miterlimit="10" points="
				107.883,27.468 107.883,33.494 108.454,34.065 109.025,33.494 109.025,27.468 			"/>
			
				<path fill="none" stroke="#405765" stroke-width="0.8" stroke-linecap="round" stroke-linejoin="round" stroke-miterlimit="10" d="
				M109.664,27.468h-2.421c0-0.668,0.542-1.21,1.21-1.21C109.122,26.258,109.664,26.8,109.664,27.468z"/>
		</g>
		<g>
			
				<polyline fill="none" stroke="#405765" stroke-width="0.8" stroke-linecap="round" stroke-linejoin="round" stroke-miterlimit="10" points="
				112.271,27.468 112.271,36.237 112.842,36.808 113.413,36.237 113.413,27.468 			"/>
			
				<path fill="none" stroke="#405765" stroke-width="0.8" stroke-linecap="round" stroke-linejoin="round" stroke-miterlimit="10" d="
				M114.052,27.468h-2.421c0-0.668,0.542-1.21,1.21-1.21C113.511,26.258,114.052,26.8,114.052,27.468z"/>
		</g>
		<g>
			
				<polyline fill="none" stroke="#405765" stroke-width="0.8" stroke-linecap="round" stroke-linejoin="round" stroke-miterlimit="10" points="
				117.208,27.468 117.208,41.174 117.779,41.745 118.35,41.174 118.35,27.468 			"/>
			
				<path fill="none" stroke="#405765" stroke-width="0.8" stroke-linecap="round" stroke-linejoin="round" stroke-miterlimit="10" d="
				M118.989,27.468h-2.421c0-0.668,0.542-1.21,1.21-1.21S118.989,26.8,118.989,27.468z"/>
		</g>
	</g>
	<g opacity="0.5">
		
			<path fill="none" stroke="#405765" stroke-width="0.8" stroke-linecap="round" stroke-linejoin="round" stroke-miterlimit="10" d="
			M32.587,28.094c0-2.611-2.116-4.727-4.727-4.727c-2.611,0-4.727,2.116-4.727,4.727c0,2.611,2.116,4.727,4.727,4.727
			C30.471,32.821,32.587,30.705,32.587,28.094z M25.761,29.306v-2.423l2.099-1.212l2.099,1.212v2.423l-2.099,1.212L25.761,29.306z"
			/>
		
			<path fill="none" stroke="#405765" stroke-width="0.8" stroke-linecap="round" stroke-linejoin="round" stroke-miterlimit="10" d="
			M21.159,28.094c0-2.611-2.116-4.727-4.727-4.727c-2.611,0-4.727,2.116-4.727,4.727c0,2.611,2.116,4.727,4.727,4.727
			C19.043,32.821,21.159,30.705,21.159,28.094z M13.72,29.66v-3.132l2.712-1.566l2.712,1.566v3.132l-2.712,1.566L13.72,29.66z"/>
		
			<path fill="none" stroke="#405765" stroke-width="0.8" stroke-linecap="round" stroke-linejoin="round" stroke-miterlimit="10" d="
			M52.616,28.094c0-1.958-1.587-3.546-3.546-3.546c-1.958,0-3.546,1.587-3.546,3.546c0,1.958,1.587,3.546,3.546,3.546
			C51.028,31.64,52.616,30.052,52.616,28.094z M47.496,29.003v-1.818l1.574-0.909l1.574,0.909v1.818l-1.574,0.909L47.496,29.003z"/>
		
			<path fill="none" stroke="#405765" stroke-width="0.8" stroke-linecap="round" stroke-linejoin="round" stroke-miterlimit="10" d="
			M62.398,28.094c0-1.958-1.587-3.546-3.546-3.546c-1.958,0-3.546,1.587-3.546,3.546c0,1.958,1.587,3.546,3.546,3.546
			C60.811,31.64,62.398,30.052,62.398,28.094z M56.818,29.268V26.92l2.034-1.174l2.034,1.174v2.349l-2.034,1.174L56.818,29.268z"/>
		
			<path fill="none" stroke="#405765" stroke-width="0.8" stroke-linecap="round" stroke-linejoin="round" stroke-miterlimit="10" d="
			M42.834,28.094c0-1.958-1.587-3.546-3.546-3.546s-3.546,1.587-3.546,3.546s1.588,3.546,3.546,3.546S42.834,30.052,42.834,28.094z
			 M37.079,28.094c0-1.22,0.989-2.209,2.209-2.209s2.209,0.989,2.209,2.209c0,1.22-0.989,2.209-2.209,2.209
			S37.079,29.314,37.079,28.094z"/>
		
			<path fill="none" stroke="#405765" stroke-width="0.8" stroke-linecap="round" stroke-linejoin="round" stroke-miterlimit="10" d="
			M71.188,28.094c0-1.713-1.389-3.102-3.102-3.102c-1.713,0-3.102,1.389-3.102,3.102s1.389,3.102,3.102,3.102
			C69.799,31.196,71.188,29.807,71.188,28.094z M66.154,28.094c0-1.067,0.865-1.932,1.932-1.932s1.932,0.865,1.932,1.932
			s-0.865,1.932-1.932,1.932S66.154,29.161,66.154,28.094z"/>
	</g>
	<g opacity="0.5">
		
			<rect x="76.795" y="26.386" fill="none" stroke="#405765" stroke-width="0.8" stroke-linecap="round" stroke-linejoin="round" stroke-miterlimit="10" width="4.79" height="2.112"/>
		
			<path fill="none" stroke="#405765" stroke-width="0.8" stroke-linecap="round" stroke-linejoin="round" stroke-miterlimit="10" d="
			M77.314,26.385c0-0.518,0.84-0.938,1.876-0.938s1.876,0.42,1.876,0.938"/>
		
			<polyline fill="none" stroke="#405765" stroke-width="0.8" stroke-linecap="round" stroke-linejoin="round" stroke-miterlimit="10" points="
			80.952,28.498 80.952,31.548 77.314,31.548 77.314,28.498 		"/>
		
			<line fill="none" stroke="#405765" stroke-width="0.8" stroke-linecap="round" stroke-linejoin="round" stroke-miterlimit="10" x1="77.38" y1="29.947" x2="80.919" y2="29.947"/>
	</g>
	<g opacity="0.5">
		
			<rect x="84.249" y="26.386" fill="none" stroke="#405765" stroke-width="0.8" stroke-linecap="round" stroke-linejoin="round" stroke-miterlimit="10" width="4.79" height="2.112"/>
		
			<path fill="none" stroke="#405765" stroke-width="0.8" stroke-linecap="round" stroke-linejoin="round" stroke-miterlimit="10" d="
			M84.768,26.385c0-0.518,0.84-0.938,1.876-0.938s1.876,0.42,1.876,0.938"/>
		
			<polyline fill="none" stroke="#405765" stroke-width="0.8" stroke-linecap="round" stroke-linejoin="round" stroke-miterlimit="10" points="
			88.405,28.498 88.405,33.661 84.768,33.661 84.768,28.498 		"/>
		
			<line fill="none" stroke="#405765" stroke-width="0.8" stroke-linecap="round" stroke-linejoin="round" stroke-miterlimit="10" x1="84.834" y1="29.947" x2="88.372" y2="29.947"/>
		
			<line fill="none" stroke="#405765" stroke-width="0.8" stroke-linecap="round" stroke-linejoin="round" stroke-miterlimit="10" x1="84.834" y1="31.871" x2="88.372" y2="31.871"/>
	</g>
	<g opacity="0.5">
		
			<rect x="91.872" y="26.386" fill="none" stroke="#405765" stroke-width="0.8" stroke-linecap="round" stroke-linejoin="round" stroke-miterlimit="10" width="4.79" height="2.112"/>
		
			<path fill="none" stroke="#405765" stroke-width="0.8" stroke-linecap="round" stroke-linejoin="round" stroke-miterlimit="10" d="
			M92.391,26.385c0-0.518,0.84-0.938,1.876-0.938c1.036,0,1.876,0.42,1.876,0.938"/>
		
			<polyline fill="none" stroke="#405765" stroke-width="0.8" stroke-linecap="round" stroke-linejoin="round" stroke-miterlimit="10" points="
			96.028,28.498 96.028,36.086 92.391,36.086 92.391,28.498 		"/>
		
			<line fill="none" stroke="#405765" stroke-width="0.8" stroke-linecap="round" stroke-linejoin="round" stroke-miterlimit="10" x1="92.49" y1="30.692" x2="96.028" y2="30.692"/>
		
			<path fill="none" stroke="#405765" stroke-width="0.8" stroke-linecap="round" stroke-linejoin="round" stroke-miterlimit="10" d="
			M95.995,32.385"/>
		
			<path fill="none" stroke="#405765" stroke-width="0.8" stroke-linecap="round" stroke-linejoin="round" stroke-miterlimit="10" d="
			M92.457,31.324"/>
		
			<line fill="none" stroke="#405765" stroke-width="0.8" stroke-linecap="round" stroke-linejoin="round" stroke-miterlimit="10" x1="92.473" y1="33.329" x2="96.012" y2="33.329"/>
	</g>
	<g opacity="0.8">
		
			<rect x="169.038" y="30.106" fill="none" stroke="#405765" stroke-width="0.8" stroke-linecap="round" stroke-linejoin="round" stroke-miterlimit="10" width="40.347" height="2.465"/>
		
			<line fill="none" stroke="#405765" stroke-width="0.8" stroke-linecap="round" stroke-linejoin="round" stroke-miterlimit="10" x1="173.466" y1="32.571" x2="173.466" y2="30.106"/>
		
			<line fill="none" stroke="#405765" stroke-width="0.8" stroke-linecap="round" stroke-linejoin="round" stroke-miterlimit="10" x1="171.272" y1="32.571" x2="171.272" y2="30.106"/>
		
			<path fill="none" stroke="#405765" stroke-width="0.8" stroke-linecap="round" stroke-linejoin="round" stroke-miterlimit="10" d="
			M169.038,32.571h-2.21c-0.34,0-0.616-0.276-0.616-0.616v-1.232c0-0.34,0.276-0.616,0.616-0.616h2.21"/>
		<g>
			
				<path fill="none" stroke="#405765" stroke-width="0.8" stroke-linecap="round" stroke-linejoin="round" stroke-miterlimit="10" d="
				M209.385,31.887"/>
			
				<path fill="none" stroke="#405765" stroke-width="0.8" stroke-linecap="round" stroke-linejoin="round" stroke-miterlimit="10" d="
				M173.466,31.887"/>
		</g>
		
			<polyline fill="none" stroke="#405765" stroke-width="0.8" stroke-linecap="round" stroke-linejoin="round" stroke-miterlimit="10" points="
			209.385,30.106 213.662,31.321 209.385,32.571 		"/>
		
			<line fill="none" stroke="#405765" stroke-width="0.8" stroke-linecap="round" stroke-linejoin="round" stroke-miterlimit="10" x1="212.512" y1="30.994" x2="212.512" y2="31.657"/>
	</g>
	<g opacity="0.5">
		<g>
			
				<rect x="225.666" y="31.261" fill="none" stroke="#405765" stroke-width="0.8" stroke-linecap="round" stroke-linejoin="round" stroke-miterlimit="10" width="3.299" height="0.612"/>
			
				<polyline fill="none" stroke="#405765" stroke-width="0.8" stroke-linecap="round" stroke-linejoin="round" stroke-miterlimit="10" points="
				226.542,31.873 226.542,38.783 228.089,37.933 228.089,31.873 			"/>
			<g>
				
					<line fill="none" stroke="#405765" stroke-width="0.8" stroke-linecap="round" stroke-linejoin="round" stroke-miterlimit="10" x1="228.084" y1="32.918" x2="226.547" y2="33.768"/>
				
					<line fill="none" stroke="#405765" stroke-width="0.8" stroke-linecap="round" stroke-linejoin="round" stroke-miterlimit="10" x1="228.084" y1="35.425" x2="226.547" y2="36.275"/>
			</g>
		</g>
		<g>
			
				<rect x="232.048" y="31.261" fill="none" stroke="#405765" stroke-width="0.8" stroke-linecap="round" stroke-linejoin="round" stroke-miterlimit="10" width="3.299" height="0.612"/>
			
				<polyline fill="none" stroke="#405765" stroke-width="0.8" stroke-linecap="round" stroke-linejoin="round" stroke-miterlimit="10" points="
				232.925,31.873 232.925,36.317 234.471,35.467 234.471,31.873 			"/>
			<g>
				
					<line fill="none" stroke="#405765" stroke-width="0.8" stroke-linecap="round" stroke-linejoin="round" stroke-miterlimit="10" x1="234.467" y1="33.753" x2="232.93" y2="34.604"/>
			</g>
		</g>
		<g>
			
				<rect x="219.283" y="31.261" fill="none" stroke="#405765" stroke-width="0.8" stroke-linecap="round" stroke-linejoin="round" stroke-miterlimit="10" width="3.299" height="0.612"/>
			
				<polyline fill="none" stroke="#405765" stroke-width="0.8" stroke-linecap="round" stroke-linejoin="round" stroke-miterlimit="10" points="
				220.16,31.873 220.16,42.912 221.706,42.062 221.706,31.873 			"/>
			<g>
				
					<line fill="none" stroke="#405765" stroke-width="0.8" stroke-linecap="round" stroke-linejoin="round" stroke-miterlimit="10" x1="221.702" y1="33.891" x2="220.164" y2="34.741"/>
				
					<line fill="none" stroke="#405765" stroke-width="0.8" stroke-linecap="round" stroke-linejoin="round" stroke-miterlimit="10" x1="221.702" y1="36.605" x2="220.164" y2="37.456"/>
				
					<line fill="none" stroke="#405765" stroke-width="0.8" stroke-linecap="round" stroke-linejoin="round" stroke-miterlimit="10" x1="221.702" y1="39.32" x2="220.164" y2="40.17"/>
			</g>
		</g>
	</g>
	<g>
		<g>
			
				<line fill="none" stroke="#405765" stroke-width="0.8" stroke-linecap="round" stroke-linejoin="round" stroke-miterlimit="10" x1="191.569" y1="43.826" x2="191.569" y2="39.32"/>
			
				<line fill="none" stroke="#405765" stroke-width="0.8" stroke-linecap="round" stroke-linejoin="round" stroke-miterlimit="10" x1="201.805" y1="43.826" x2="201.805" y2="39.32"/>
		</g>
		
			<polygon fill="none" stroke="#405765" stroke-width="0.8" stroke-linecap="round" stroke-linejoin="round" stroke-miterlimit="10" points="
			208.51,43.826 203.337,39.32 184.863,39.32 190.037,43.826 		"/>
	</g>
	<g>
		
			<path fill="none" stroke="#405765" stroke-width="0.8" stroke-linecap="round" stroke-linejoin="round" stroke-miterlimit="10" d="
			M184.729,49.14h2.402c0,0,1.044,0.549,2.648,0.549c1.604,0,3.039-0.549,3.039-0.549h2.011v4.137h-2.011
			c0,0-1.435-0.549-3.039-0.549c-1.604,0-2.648,0.549-2.648,0.549h-2.402V49.14z"/>
		
			<line fill="none" stroke="#405765" stroke-width="0.8" stroke-linecap="round" stroke-linejoin="round" stroke-miterlimit="10" x1="187.13" y1="49.14" x2="187.13" y2="53.277"/>
		
			<line fill="none" stroke="#405765" stroke-width="0.8" stroke-linecap="round" stroke-linejoin="round" stroke-miterlimit="10" x1="192.817" y1="53.277" x2="192.817" y2="49.14"/>
	</g>
	<g opacity="0.5">
		
			<path fill="none" stroke="#405765" stroke-width="0.8" stroke-linecap="round" stroke-linejoin="round" stroke-miterlimit="10" d="
			M202.514,50.072c0,0.199-0.161,0.36-0.36,0.36h-4.298c-0.199,0-0.36-0.161-0.36-0.36v-0.36c0-0.199,0.161-0.36,0.36-0.36h4.298
			c0.199,0,0.36,0.161,0.36,0.36V50.072z"/>
		
			<line fill="none" stroke="#405765" stroke-width="0.8" stroke-linecap="round" stroke-linejoin="round" stroke-miterlimit="10" x1="199.95" y1="50.432" x2="199.95" y2="52.473"/>
	</g>
	<g opacity="0.5">
		
			<path fill="none" stroke="#405765" stroke-width="0.8" stroke-linecap="round" stroke-linejoin="round" stroke-miterlimit="10" d="
			M209.645,50.072c0,0.199-0.161,0.36-0.36,0.36h-4.298c-0.199,0-0.36-0.161-0.36-0.36v-0.36c0-0.199,0.161-0.36,0.36-0.36h4.298
			c0.199,0,0.36,0.161,0.36,0.36V50.072z"/>
		
			<line fill="none" stroke="#405765" stroke-width="0.8" stroke-linecap="round" stroke-linejoin="round" stroke-miterlimit="10" x1="207.081" y1="50.432" x2="207.081" y2="52.473"/>
	</g>
	<g>
		<g>
			
				<circle fill="none" stroke="#E96132" stroke-width="0.8" stroke-linecap="round" stroke-linejoin="round" stroke-miterlimit="10" cx="131.702" cy="71.604" r="13.703"/>
			<g>
				
					<path fill="none" stroke="#E96132" stroke-width="0.8" stroke-linecap="round" stroke-linejoin="round" stroke-miterlimit="10" enable-background="new    " d="
					M131.911,76.962c-0.577,0.75-1.767,1.067-2.643,0.705c-0.876-0.362-2.363-0.759-3.304-0.882
					c-0.941-0.123-1.811-0.99-1.935-1.927c-0.123-0.937-0.522-2.417-0.885-3.29c-0.363-0.873-0.045-2.057,0.708-2.632
					c0.753-0.575,1.841-1.659,2.418-2.408s1.767-1.067,2.643-0.705c0.649,0.268,1.763,0.524,2.612,0.705"/>
				
					<path fill="none" stroke="#E96132" stroke-width="0.8" stroke-linecap="round" stroke-linejoin="round" stroke-miterlimit="10" d="
					M129.108,68.937c0.753-0.575,1.841-1.659,2.418-2.408s1.767-1.067,2.643-0.705c0.876,0.362,2.363,0.759,3.304,0.882
					c0.941,0.123,1.811,0.99,1.935,1.927s0.522,2.417,0.885,3.29c0.363,0.873,0.045,2.057-0.708,2.632
					c-0.753,0.575-1.841,1.659-2.418,2.409c-0.577,0.75-1.766,1.067-2.643,0.705c-0.876-0.362-2.363-0.759-3.304-0.882
					c-0.941-0.123-1.811-0.99-1.935-1.927c-0.123-0.937-0.522-2.417-0.885-3.29C128.037,70.696,128.355,69.512,129.108,68.937z"/>
			</g>
		</g>
		<g opacity="0.5">
			
				<line fill="none" stroke="#E96132" stroke-linecap="round" stroke-linejoin="round" stroke-miterlimit="10" x1="127.057" y1="52.112" x2="124.549" y2="48.498"/>
			
				<line fill="none" stroke="#E96132" stroke-linecap="round" stroke-linejoin="round" stroke-miterlimit="10" x1="136.346" y1="52.112" x2="138.855" y2="48.498"/>
			
				<line fill="none" stroke="#E96132" stroke-linecap="round" stroke-linejoin="round" stroke-miterlimit="10" x1="131" y1="52.5" x2="131" y2="47.5"/>
		</g>
		<g opacity="0.5">
			
				<line fill="none" stroke="#E96132" stroke-linecap="round" stroke-linejoin="round" stroke-miterlimit="10" x1="136.346" y1="91.303" x2="138.855" y2="94.917"/>
			
				<line fill="none" stroke="#E96132" stroke-linecap="round" stroke-linejoin="round" stroke-miterlimit="10" x1="127.057" y1="91.303" x2="124.549" y2="94.917"/>
			
				<line fill="none" stroke="#E96132" stroke-linecap="round" stroke-linejoin="round" stroke-miterlimit="10" x1="131" y1="91.5" x2="131" y2="96.5"/>
		</g>
	</g>
</g>
</svg>
