<?xml version="1.0" encoding="utf-8"?>
<!-- Generator: Adobe Illustrator 17.0.0, SVG Export Plug-In . SVG Version: 6.00 Build 0)  -->
<!DOCTYPE svg PUBLIC "-//W3C//DTD SVG 1.1//EN" "http://www.w3.org/Graphics/SVG/1.1/DTD/svg11.dtd">
<svg version="1.1" id="Layer_1" xmlns="http://www.w3.org/2000/svg" xmlns:xlink="http://www.w3.org/1999/xlink" x="0px" y="0px"
	 width="250px" height="140px" viewBox="0 0 250 140" enable-background="new 0 0 250 140" xml:space="preserve">
<g>
	<g>
		
			<path fill="none" stroke="#405765" stroke-width="0.785" stroke-linecap="round" stroke-linejoin="round" stroke-miterlimit="10" d="
			M22.743,121.483c0-0.873-0.708-1.57-1.581-1.57h-4.125c-0.873,0-1.567,0.685-1.567,1.559c0,0.288,0,0.942,0,1.23
			c0,0.873,0.694,1.604,1.567,1.604h4.125c0.873,0,1.555,0.686,1.555,1.559c0,0.288,0,0.942,0,1.23c0,0.873-0.682,1.604-1.555,1.604
			h-4.125c-0.873,0-1.581-0.713-1.581-1.587"/>
		
			<path fill="none" stroke="#405765" stroke-width="0.785" stroke-linecap="round" stroke-linejoin="round" stroke-miterlimit="10" d="
			M13.163,118.897v11.661c0,0.369-0.09,0.744-0.285,1.088c-0.601,1.06-1.95,1.433-3.01,0.832l-5.051-2.932v-13.385l11.586-6.693
			l11.586,6.693v13.385l-11.582,6.693l-3.246-1.882"/>
	</g>
	<g opacity="0.2">
		
			<path fill="none" stroke="#297771" stroke-width="0.785" stroke-linecap="round" stroke-linejoin="round" stroke-miterlimit="10" d="
			M85.555,86.502h5.831c1.623,0,2.902-1.316,2.902-2.946v-5.559c0-1.582-1.327-2.77-2.911-3.034
			c-1.003-0.167-2.039-0.243-3.037-0.239c-0.998,0.005-1.943,0.09-2.782,0.239c-2.471,0.436-2.911,1.35-2.911,3.034v2.245h5.82
			v0.714h-5.832h-2.191c-1.697,0-3.182,1.023-3.647,2.964c-0.536,2.224-0.56,3.613,0,5.935c0.415,1.729,1.406,2.962,3.103,2.962
			h2.033v-2.667C81.934,88.223,83.576,86.502,85.555,86.502z M85.188,78.739c-0.605,0-1.096-0.496-1.096-1.109
			c0-0.615,0.49-1.116,1.096-1.116c0.603,0,1.096,0.501,1.096,1.116C86.284,78.243,85.791,78.739,85.188,78.739z"/>
		
			<path fill="none" stroke="#297771" stroke-width="0.785" stroke-linecap="round" stroke-linejoin="round" stroke-miterlimit="10" d="
			M100.143,83.92c-0.42-1.689-1.22-2.964-2.919-2.964h-2.167l0,0v2.6c0,2.01-1.728,3.715-3.671,3.715h-5.831
			c-1.597,0-2.907,1.353-2.907,2.953v5.559c0,1.582,1.369,2.513,2.913,2.967c1.848,0.543,3.609,0.642,5.82,0
			c1.47-0.426,2.908-1.282,2.908-2.967V93.53h-5.82v-0.714h5.837h2.919c1.697,0,2.329-1.185,2.919-2.962
			C100.753,88.027,100.727,86.265,100.143,83.92z M91.754,95.041c0.605,0,1.096,0.496,1.096,1.109c0,0.615-0.49,1.116-1.096,1.116
			c-0.603,0-1.096-0.501-1.096-1.116C90.658,95.537,91.151,95.041,91.754,95.041z"/>
	</g>
	<g>
		
			<path fill="none" stroke="#405765" stroke-width="0.785" stroke-linecap="round" stroke-linejoin="round" stroke-miterlimit="10" d="
			M43.093,6.803h18.913l4.68,7.027L52.452,29.043L38.218,13.828L43.093,6.803z"/>
		
			<line fill="none" stroke="#405765" stroke-width="0.785" stroke-linecap="round" stroke-linejoin="round" stroke-miterlimit="10" x1="38.228" y1="13.832" x2="66.67" y2="13.832"/>
		
			<polyline fill="none" stroke="#405765" stroke-width="0.785" stroke-linecap="round" stroke-linejoin="round" stroke-miterlimit="10" points="
			52.452,29.046 58.672,14.033 52.452,6.818 		"/>
		
			<polyline fill="none" stroke="#405765" stroke-width="0.785" stroke-linecap="round" stroke-linejoin="round" stroke-miterlimit="10" points="
			52.452,29.046 46.232,14.033 52.452,6.818 		"/>
		
			<line fill="none" stroke="#405765" stroke-width="0.785" stroke-linecap="round" stroke-linejoin="round" stroke-miterlimit="10" x1="46.232" y1="14.033" x2="43.093" y2="6.818"/>
		
			<line fill="none" stroke="#405765" stroke-width="0.785" stroke-linecap="round" stroke-linejoin="round" stroke-miterlimit="10" x1="58.672" y1="14.033" x2="62.006" y2="6.818"/>
	</g>
	<g opacity="0.2">
		
			<path fill="none" stroke="#297771" stroke-width="0.785" stroke-linecap="round" stroke-linejoin="round" stroke-miterlimit="10" d="
			M61.208,49.412H59.67l-0.592,3.514h1.42c1.065-0.11,2.012-0.456,2.13-2.467C62.628,49.749,62.037,49.412,61.208,49.412z"/>
		
			<path fill="none" stroke="#297771" stroke-width="0.785" stroke-linecap="round" stroke-linejoin="round" stroke-miterlimit="10" d="
			M45.352,49.412h-1.538l-0.592,3.514h1.42c1.065-0.11,2.012-0.456,2.13-2.467C46.772,49.749,46.181,49.412,45.352,49.412z"/>
		
			<path fill="none" stroke="#297771" stroke-width="0.785" stroke-linecap="round" stroke-linejoin="round" stroke-miterlimit="10" d="
			M52.452,42.884c-9.542,0-17.276,4.026-17.276,8.993s7.735,8.993,17.276,8.993s17.276-4.026,17.276-8.993
			S61.994,42.884,52.452,42.884z M44.878,54.738h-2.13l-0.474,2.471h-2.247l1.893-9.609h4.378c1.893,0.11,2.84,1.084,2.84,2.741
			C49.139,53.18,46.89,54.848,44.878,54.738z M53.399,54.738l0.829-4.379c0.118-0.592,0.118-0.947-0.71-0.947h-1.775l-1.065,5.326
			h-2.248l1.893-9.609h2.248L52.097,47.6h2.13c1.893,0.11,2.603,1.084,2.367,2.267l-0.829,4.871H53.399z M60.735,54.738h-2.13
			l-0.474,2.471h-2.248l1.893-9.609h4.378c1.893,0.11,2.84,1.084,2.84,2.741C64.995,53.18,62.747,54.848,60.735,54.738z"/>
	</g>
	
		<path opacity="0.5" fill="none" stroke="#405765" stroke-width="0.785" stroke-linecap="round" stroke-linejoin="round" stroke-miterlimit="10" d="
		M90.029,60.02l-0.349-1.329h1.627l0.697,1.449L90.029,60.02z M89.157,55.363l0.058-1.279l1.453,0.697l0.058,1.279L89.157,55.363z
		 M89.273,51.644l0.465-0.988l1.104,0.872l-0.291,1.22L89.273,51.644z M90.436,48.274l0.814-0.697l0.755,1.104l-0.465,0.814
		L90.436,48.274z M93.225,47.344l-0.465-0.93l1.046-0.232l0.174,0.581L93.225,47.344z M95.963,46.53v-0.581l0.988,0.232v0.465
		L95.963,46.53z M96.13,43.741l0.058-0.639l1.22,0.872l-0.232,0.349L96.13,43.741z M91.249,43.044l-0.232-1.104l1.569,0.058
		l0.174,0.988L91.249,43.044z M87.53,44.264l-0.872-1.104l1.22-0.639l0.93,0.988L87.53,44.264z M85.031,46.588l-0.988,1.162
		l-1.336-0.872l1.046-1.162L85.031,46.588z M82.126,51.296l-0.523,1.453l-1.743-0.523l0.581-1.569L82.126,51.296z M78.348,58.734
		l0.232-1.859l1.918,0.116l-0.349,1.976L78.348,58.734z M90.436,61.821h-9.937c-0.174-1.098,0-2.677,0.407-4.769
		c0.523-2.441,1.569-5.174,3.138-8.137c1.918-3.545,4.533-5.522,7.903-5.812c1.104-0.058,2.208,0.116,3.313,0.523
		c1.104,0.465,1.976,0.93,2.499,1.395l0.872,0.755l-0.465,0.639c-0.058-0.058-0.174-0.175-0.349-0.349
		c-0.174-0.116-0.581-0.291-1.104-0.465c-0.523-0.174-1.104-0.232-1.743-0.175c-1.22,0.116-2.499,0.755-3.835,1.976
		c-1.336,1.22-2.092,2.847-2.324,4.881c-0.174,1.336-0.174,2.847,0.116,4.417c0.291,1.569,0.581,2.851,0.988,3.781L90.436,61.821z"
		/>
	<g>
		
			<ellipse transform="matrix(0.8192 0.5736 -0.5736 0.8192 45.8348 -109.5517)" fill="none" stroke="#405765" stroke-width="0.785" stroke-linecap="round" stroke-linejoin="round" stroke-miterlimit="10" cx="196.644" cy="17.909" rx="6.251" ry="13.034"/>
		
			<ellipse transform="matrix(0.8192 -0.5736 0.5736 0.8192 25.2474 115.9847)" fill="none" stroke="#405765" stroke-width="0.785" stroke-linecap="round" stroke-linejoin="round" stroke-miterlimit="10" cx="196.552" cy="17.955" rx="6.251" ry="13.034"/>
		
			<ellipse fill="none" stroke="#405765" stroke-width="0.785" stroke-linecap="round" stroke-linejoin="round" stroke-miterlimit="10" cx="196.6" cy="17.936" rx="13.034" ry="6.251"/>
		
			<circle fill="none" stroke="#405765" stroke-width="0.785" stroke-linecap="round" stroke-linejoin="round" stroke-miterlimit="10" cx="196.552" cy="17.909" r="2.653"/>
	</g>
	<g opacity="0.2">
		
			<path fill="none" stroke="#297771" stroke-width="0.785" stroke-linecap="round" stroke-linejoin="round" stroke-miterlimit="10" d="
			M153.15,77.463c0,0,8.072-0.663,12.107-1.637c1.899-0.458,2.663-1.136,2.663-1.136v5.819c0,0-0.764,0.678-2.663,1.136
			c-4.035,0.974-12.107,1.637-12.107,1.637V77.463z"/>
		
			<path fill="none" stroke="#297771" stroke-width="0.785" stroke-linecap="round" stroke-linejoin="round" stroke-miterlimit="10" d="
			M153.15,85.402c0,0,8.072-0.663,12.107-1.637c1.899-0.458,2.663-1.136,2.663-1.136v5.819c0,0-0.764,0.678-2.663,1.136
			c-4.035,0.974-12.107,1.637-12.107,1.637V85.402z"/>
		
			<path fill="none" stroke="#297771" stroke-width="0.785" stroke-linecap="round" stroke-linejoin="round" stroke-miterlimit="10" d="
			M153.15,93.411c0,0,8.072-0.663,12.107-1.637c1.899-0.458,2.663-1.136,2.663-1.136v5.819c0,0-0.764,0.678-2.663,1.136
			c-4.035,0.974-12.107,1.637-12.107,1.637V93.411z"/>
		
			<path fill="none" stroke="#297771" stroke-width="0.785" stroke-linecap="round" stroke-linejoin="round" stroke-miterlimit="10" d="
			M153.168,91.22c0,0,4.126-0.039,7.951,1.3"/>
		
			<path fill="none" stroke="#297771" stroke-width="0.785" stroke-linecap="round" stroke-linejoin="round" stroke-miterlimit="10" d="
			M167.9,90.637c0,0,0.627-0.584-2.213-1.168"/>
		
			<path fill="none" stroke="#297771" stroke-width="0.785" stroke-linecap="round" stroke-linejoin="round" stroke-miterlimit="10" d="
			M153.168,83.209c0,0,4.126-0.039,7.951,1.3"/>
		
			<path fill="none" stroke="#297771" stroke-width="0.785" stroke-linecap="round" stroke-linejoin="round" stroke-miterlimit="10" d="
			M167.9,82.626c0,0,0.627-0.584-2.213-1.168"/>
	</g>
	<g>
		
			<path fill="none" stroke="#405765" stroke-width="0.785" stroke-linecap="round" stroke-linejoin="round" stroke-miterlimit="10" d="
			M224.777,132.778c-0.076,0.016-0.145,0.034-0.205,0.054C224.573,132.831,224.644,132.814,224.777,132.778z"/>
		
			<path fill="none" stroke="#405765" stroke-width="0.785" stroke-linecap="round" stroke-linejoin="round" stroke-miterlimit="10" d="
			M242.493,111.192c-1.014,3.606-4.283,5.748-10.82,6.875c-6.537,1.127-9.857,1.697-10.989,6.312
			c-1.099,4.48,2.423,6.424,2.423,6.424c15.103-1.803,17.92-11.045,17.92-11.045c-0.789,4.846-6.312,9.467-10.031,10.932
			c-3.119,1.229-5.524,1.902-6.219,2.088c1.647-0.358,7.009,0.054,9.488,0.054c2.592,0,9.016,0,10.256-7.664
			C245.761,117.503,242.493,111.192,242.493,111.192z"/>
		
			<circle fill="none" stroke="#405765" stroke-width="0.785" stroke-linecap="round" stroke-linejoin="round" stroke-miterlimit="10" cx="222.055" cy="133.095" r="1.419"/>
	</g>
	
		<path fill="none" stroke="#405765" stroke-width="0.785" stroke-linecap="round" stroke-linejoin="round" stroke-miterlimit="10" d="
		M19.563,39.786c11.915,8.1,8.061,17.016,8.061,17.016s3.387,3.816,2.025,7.165c0,0-1.402-2.336-3.738-2.336
		c-2.258,0-3.582,2.336-8.138,2.336c-10.124,0.001-14.913-8.45-14.913-8.45c9.116,6.007,15.342,1.752,15.342,1.752
		c-4.113-2.388-12.85-13.784-12.85-13.784c7.616,6.478,10.903,8.177,10.903,8.177c-1.968-1.619-7.476-9.539-7.476-9.539
		c4.408,4.46,13.161,10.669,13.161,10.669C24.435,45.928,19.563,39.786,19.563,39.786z"/>
	
		<path opacity="0.2" fill="none" stroke="#297771" stroke-width="0.785" stroke-linecap="round" stroke-linejoin="round" stroke-miterlimit="10" d="
		M8.119,87.834c0.175-0.595,0.665-0.7,1.19-0.56c0.525,0.14,0.7,0.735,0.56,1.26c-0.035,0.035-0.035,0.035-0.035,0.07
		C9.8,88.639,9.8,88.709,9.765,88.779l-0.21,0.385c-0.105,0.385,0.385,0.63,0.77,0.77c0.805,0.245,1.61-0.175,1.785-0.84
		c0.175-0.665-0.21-1.05-0.385-1.19l-0.735-0.805c-0.385-0.42-1.155-1.47-0.77-2.73c0.14-0.455,0.455-0.98,0.91-1.295
		c0.945-0.7,1.96-0.84,2.905-0.56c0.63,0.175,1.12,0.455,1.505,0.805c0.35,0.385,0.735,0.7,1.12,1.015
		c0.455-1.26,1.015-2.52,1.96-3.605c0.84-0.98,1.925-1.61,3.185-1.715c1.26,0,2.24,0.56,2.275,1.435c0,0.42-0.175,1.155-0.98,1.19
		c-0.56,0-0.98-0.315-1.015-0.84c0-0.175,0.07-0.385,0.175-0.56c0.07-0.14,0.105-0.245,0.14-0.28c0.035-0.035,0.035-0.07,0-0.105
		c0-0.385-0.49-0.35-0.63-0.35c-1.855,0.035-2.38,2.59-2.765,4.655l-0.21,1.085c1.085,0.175,1.855-0.035,2.275-0.315
		c0.28-0.175,0.315-0.385,0.14-0.595c-0.385-0.385-0.21-0.945,0.105-1.155c0.175-0.105,0.315-0.14,0.49-0.14
		c0.455,0,0.805,0.49,0.805,0.945c-0.035,0.805-1.085,1.89-3.185,1.855c-0.28,0-0.49-0.035-0.735-0.07l-0.315,2.205
		c-0.385,1.68-0.84,3.956-2.52,5.951c-1.435,1.715-2.94,2.03-3.605,2.03c-1.26,0-2.1-0.595-2.1-1.54
		c-0.035-0.84,0.7-1.295,1.225-1.33c0.665-0.035,1.12,0.455,1.155,1.015c0,0.455-0.245,0.595-0.385,0.7
		c-0.14,0.105-0.28,0.175-0.28,0.35c0,0.105,0.105,0.28,0.385,0.245c0.245,0,0.49-0.07,0.665-0.175
		c0.175-0.105,0.315-0.175,0.455-0.245c1.225-1.015,1.68-2.765,2.275-5.986l0.14-0.77c0.105-0.525,0.245-1.05,0.385-1.645
		c0.105-0.56,0.245-1.12,0.42-1.715c-0.42-0.315-0.805-0.665-1.155-1.015c-0.7-0.665-1.82-0.945-2.345-0.805
		c-0.525,0.175-0.91,0.7-0.84,1.26c0.035,0.315,0.14,0.56,0.315,0.735l0.665,0.7c0.805,0.945,1.19,1.61,1.015,2.555
		c-0.245,1.54-2.03,2.695-4.165,2.03C8.259,89.865,7.874,88.534,8.119,87.834z M16.415,99.455c3.465,0,6.581-1.435,8.856-3.675
		c2.24-2.24,3.641-5.356,3.641-8.821c0-3.465-1.4-6.581-3.641-8.856c-2.275-2.24-5.391-3.641-8.856-3.641s-6.581,1.4-8.821,3.641
		c-2.275,2.275-3.675,5.391-3.675,8.856c0,3.465,1.4,6.581,3.675,8.821C9.834,98.02,12.95,99.455,16.415,99.455z"/>
	
		<path opacity="0.2" fill="none" stroke="#297771" stroke-width="0.785" stroke-linecap="round" stroke-linejoin="round" stroke-miterlimit="10" d="
		M208.699,49.327l-2.648-9.851l-9.883,2.64l-1.463,2.572l-2.969-0.021l-7.234,7.205l7.234,7.204h0.001l2.968-0.016l1.465,2.575
		l9.882,2.642l2.648-9.849l-1.504-2.551L208.699,49.327z M202.502,43.172l-4.34,7.503h-8.681l5.462-5.561L202.502,43.172z
		 M198.162,53.091l4.341,7.496l-7.56-1.938l-5.462-5.558H198.162z M200.278,51.877l4.34-7.495l2.097,7.495l-2.097,7.494
		L200.278,51.877z"/>
	
		<path opacity="0.5" fill="none" stroke="#405765" stroke-width="0.785" stroke-linecap="round" stroke-linejoin="round" stroke-miterlimit="10" d="
		M129.691,91.844c-0.028,0.551-0.129,0.579-0.68,0.662c-0.414,0.083-0.542,0.193-0.542,0.662c0,0.303,0,0.579,0,0.855
		c0,0.303,0,0.579,0,0.855c0,0.414-0.147,0.717-0.395,0.965c-1.517,1.517-3.286,2.233-5.409,1.985
		c-0.91-0.11-1.546-0.689-2.015-1.461c0.11-0.055,0.22-0.11,0.302-0.138c0.083-0.028,0.137-0.055,0.22-0.083
		c0.689-0.248,0.827-0.855,0.276-1.379c-0.193-0.193-0.414-0.358-0.635-0.551c-0.469-0.331-0.91-0.689-1.323-1.048
		c-0.221-0.165-0.441-0.331-0.662-0.496c-0.358-0.303-0.524-0.689-0.524-1.131c0-1.186,0.221-2.233,0.689-3.253
		c0.221-0.469,0.414-0.965,0.607-1.434c0.165-0.469,0.358-0.965,0.551-1.434c0.221-0.469,0.424-0.965,0.727-1.406
		c0.303-0.414,0.451-0.827,0.451-1.296c0-0.138,0-0.303,0-0.441c0-0.138,0-0.276,0-0.414l0.155-0.083
		c0.248,0.221,0.519,0.441,0.739,0.662c0.91,0.8,1.735,0.827,2.727,0.138c0.414-0.303,0.853-0.551,1.294-0.8
		c0.055-0.028,0.109-0.055,0.193-0.083c0.083-0.028,0.165-0.055,0.248-0.083c0.469,1.13,0.937,2.206,1.406,3.309
		c0.11,0.276,0.221,0.551,0.331,0.827c0.11,0.303,0.248,0.579,0.386,0.855c0.579,1.02,0.91,2.151,0.882,3.364
		c0,0.303,0,0.634,0.028,0.937C129.719,91.209,129.719,91.54,129.691,91.844z M121.364,77.672c0.303-0.441,0.717-0.524,1.131-0.221
		c0.441,0.303,0.8,1.131,0.607,1.654c-0.028,0.083-0.055,0.165-0.138,0.248c-0.083,0.083-0.165,0.165-0.221,0.248l-0.138-0.083
		c-0.028-0.138-0.055-0.276-0.055-0.414c-0.028-0.303-0.11-0.496-0.303-0.607c-0.083-0.055-0.165-0.11-0.248-0.193
		c-0.055,0.083-0.138,0.165-0.221,0.248c-0.193,0.138-0.193,0.386-0.083,0.634c0.083,0.248,0.165,0.441,0.303,0.551
		c0.055,0.083,0.138,0.138,0.221,0.221l-0.441,0.331C121.116,79.712,120.923,78.333,121.364,77.672z M124.176,78.168
		c0.193-0.579,0.579-0.937,1.158-1.048c0.524-0.11,0.937,0.138,1.241,0.717c0.358,0.579,0.469,1.241,0.165,1.903
		c-0.221,0.551-0.331,0.607-0.91,0.414c-0.083-0.028-0.193-0.11-0.386-0.138c0.083-0.083,0.138-0.138,0.193-0.193
		c0.055-0.028,0.11-0.083,0.165-0.138c0.248-0.138,0.331-0.386,0.303-0.689c-0.028-0.358-0.303-0.689-0.607-0.689
		s-0.524,0.276-0.551,0.634c0,0.248,0.028,0.496,0.055,0.8C124.232,79.519,123.956,78.967,124.176,78.168z M135.536,95.924
		c-0.414-0.331-0.827-0.662-1.186-0.993c-0.414-0.414-0.689-0.855-0.607-1.489c0.028-0.331-0.055-0.634-0.469-0.744
		c0.11-0.248,0.193-0.441,0.221-0.634c0.028-0.193,0.055-0.386,0.055-0.607c0.028-2.206-0.744-4.136-1.93-5.928
		c-0.524-0.8-1.103-1.654-1.682-2.426c-0.882-1.296-1.213-2.675-1.241-4.191c0-0.689-0.083-1.406-0.221-2.095
		c-0.303-1.323-0.993-2.371-2.316-2.923c-0.993-0.441-1.985-0.551-3.061-0.248c-1.517,0.414-2.426,1.544-2.426,3.116
		c0.028,1.517,0.11,3.033,0.221,4.55c0.028,0.855-0.083,1.599-0.662,2.289c-0.524,0.634-1.048,1.323-1.489,2.068
		c-0.303,0.414-0.551,0.855-0.689,1.296c-0.441,1.241-0.855,2.509-1.599,3.639c-0.303,0.441-0.303,0.91-0.11,1.379
		c0.028,0.11,0.083,0.303,0,0.414c-0.524,0.855-1.103,1.599-2.206,1.792c-0.882,0.11-0.91,0.276-0.882,1.186
		c0,0.744,0,1.461-0.083,2.206c-0.083,0.772,0,0.993,0.772,1.186c0.855,0.221,1.737,0.441,2.619,0.662
		c0.855,0.221,1.709,0.496,2.564,0.855c0.689,0.303,1.434,0.193,1.985-0.386c0.634-0.634,1.379-0.855,2.178-0.855
		c0.689,0,1.406,0,2.095,0.028c0.689,0.028,1.379,0.028,2.068,0.055c0.358,0,0.607,0.138,0.744,0.469
		c0.193,0.441,0.496,0.717,0.965,0.8c0.965,0.083,1.792-0.055,2.481-0.744c0.855-0.882,1.875-1.572,3.005-2.04
		c0.331-0.138,0.607-0.358,0.91-0.579C136.032,96.586,136.005,96.338,135.536,95.924z"/>
	
		<path opacity="0.2" fill="none" stroke="#297771" stroke-width="0.785" stroke-linecap="round" stroke-linejoin="round" stroke-miterlimit="10" d="
		M93.686,21.299c-0.323,0-0.646,0-0.968,0c-0.323,0-0.646,0-0.969,0c-0.161,0.055-0.291,0.035-0.42,0.035
		c-0.161,0.032-0.291,0.034-0.452,0.066c-2.324,0.355-3.196,2.29-3.325,3.936c0,0.161,0.032,0.191,0.194,0.191
		c0.194,0,0.387,0,0.581,0s0.389,0,0.554,0v0.038c0.275-0.032,0.53-0.032,0.789-0.032s0.523-0.032,0.782-0.064
		c1.937-0.226,3.425-2.004,3.425-3.973C93.876,21.334,93.815,21.299,93.686,21.299z M97.947,15.863c-1.065,0-2.131,0-3.196,0
		c-1.065,0-2.098,0-3.163,0c-0.678,0-1.323,0.171-1.937,0.462c-1.388,0.775-1.937,2.045-2.098,3.562
		c0,0.226,0.097,0.205,0.226,0.205c0.549,0,1.13,0,1.678,0s1.13,0,1.678,0c0.194,0,0.387,0,0.581,0c0.161,0,0.355,0,0.549,0
		c0.42,0,0.839,0,1.259,0c0.839,0,1.808-0.038,2.679-0.555c0.871-0.484,1.42-1.391,1.678-2.166c0.129-0.387,0.226-0.818,0.259-1.238
		C98.173,15.874,98.173,15.863,97.947,15.863z M104.306,10.427c-1.065,0-2.098,0-3.131,0c-1.065,0-2.098,0-3.131,0
		c-1.065,0-2.098,0-3.131,0c-1.065,0-2.098,0-3.131,0c-0.484,0-0.969,0.064-1.388,0.193c-1.646,0.387-2.938,2.156-2.841,3.802
		c0,0.097,0.032,0.177,0.064,0.122c0.032,0,0.097,0,0.161,0h6.391c0.549,0,1.098,0,1.646,0C96.364,14.6,96.88,14.6,97.43,14.6
		c0.581,0,1.162,0,1.776,0c1.162,0,2.421,0.06,3.389-0.489c0.968-0.549,1.485-1.552,1.711-2.326
		c0.097-0.355,0.194-0.743,0.259-1.163C104.564,10.396,104.435,10.427,104.306,10.427z M85.81,22.287c-1.065,0-2.131,0-3.196,0
		c-1.065,0-2.131,0-3.196,0h-0.323c0.742-0.988,1.485-2.056,2.227-3.057c1.453-2.033,2.905-3.998,4.358-5.999
		c0.742-1.001,1.453-1.98,2.195-2.98c-0.032,0-0.064,0.012-0.097-0.043c-0.032,0-0.064,0-0.097,0c-1.162,0-2.324,0-3.454,0
		c-1.162,0-2.324,0-3.454,0c-1.162,0-2.324,0-3.454,0c-1.162,0-2.324,0-3.454,0c-0.161,0-0.25,0.058-0.25,0.219
		c0,0.484,0,0.936,0,1.42s0,0.936,0,1.42c0,0.291,0.024,0.29,0.314,0.29c1.162,0,2.324,0,3.486,0s2.324,0,3.486,0
		c0.032,0,0.097,0,0.161,0c0.032,0,0.097,0,0.161,0.032c-0.741,1.001-1.451,2.002-2.194,3.003c-1.453,2.033-2.905,4.003-4.39,6.004
		c-0.743,1.001-1.486,2.005-2.228,3.005l0.161,0.035c1.098,0,2.195,0,3.325,0c1.098,0,2.195,0,3.325,0c1.098,0,2.195,0,3.325,0
		c1.098,0,2.195,0,3.293,0c0.226,0,0.237-0.103,0.237-0.232c0-0.484,0-0.969,0-1.453c0-0.484,0-0.969,0-1.453
		C86.08,22.338,86.036,22.287,85.81,22.287z"/>
	<g opacity="0.5">
		
			<path fill="none" stroke="#405765" stroke-width="0.785" stroke-linecap="round" stroke-linejoin="round" stroke-miterlimit="10" d="
			M242.768,41.972c0,0-11.57,0-14.928,0c-3.302,0-5.045,2.679-5.045,4.893c0,2.271,0.057,8.999,0.057,8.999
			c0,2.032,2.996,2.032,2.996,0V47.02c-0.055-1.079,0.615-1.919,2.083-1.919h14.883c2.032,0,1.977,3.017,0,3.017
			c-2.636,0.03-4.575,2.044-4.575,3.891l-0.051,5.318c0,2.057,2.986,1.96,2.986-0.114l0.042-4.108c0-1.224,0.555-1.959,1.865-1.959
			c1.764,0,4.051-1.79,4.062-4.772C247.169,44.215,245.665,41.972,242.768,41.972z"/>
		
			<path fill="none" stroke="#405765" stroke-width="0.785" stroke-linecap="round" stroke-linejoin="round" stroke-miterlimit="10" d="
			M236.435,46.599l-4.685,0.055c-2.304,0-4.398,1.943-4.374,4.457c0.024,2.514,1.75,4.692,4.464,4.692
			c2.112,0,2.065,3.025,0.02,3.025h-8.61c-1.165,0-2.043-0.632-2.043-2.056l-0.057-10.063c0-2.257-2.993-2.221-2.993-0.024
			l-0.025,10.436c0.155,2.934,2.243,4.61,4.518,4.666l9.695-0.093c2.305,0,4.177-1.916,4.177-4.444c0-2.359-1.56-4.363-4.47-4.444
			c-2.141,0-2.086-3.038,0-3.038h4.382C238.432,49.769,238.382,46.599,236.435,46.599z"/>
	</g>
	<g>
		
			<path fill="none" stroke="#405765" stroke-width="0.785" stroke-linecap="round" stroke-linejoin="round" stroke-miterlimit="10" d="
			M154.66,55.642c0,1.945-0.799,2.445-2.077,2.445c-1.337,0-1.89-0.917-2.501-2.001l-3.166,1.917
			c0.918,1.942,2.719,3.555,5.834,3.555c3.448,0,5.808-1.834,5.808-5.863V42.384h-3.898V55.642z"/>
		
			<path fill="none" stroke="#405765" stroke-width="0.785" stroke-linecap="round" stroke-linejoin="round" stroke-miterlimit="10" d="
			M169.036,50.03l-0.973-0.417c-1.669-0.723-2.393-1.196-2.393-2.363c0-0.944,0.723-1.668,1.862-1.668
			c1.117,0,1.837,0.471,2.504,1.668l3.03-1.946c-1.282-2.254-3.061-3.116-5.534-3.116c-3.475,0-5.699,2.222-5.699,5.14
			c0,3.168,1.865,4.667,4.674,5.863l0.973,0.417c1.774,0.776,2.833,1.249,2.833,2.583c0,1.113-1.03,1.919-2.643,1.919
			c-1.919,0-3.005-1.001-3.839-2.363l-3.162,1.837c1.142,2.257,3.477,3.979,7.091,3.979c3.695,0,6.447-1.919,6.447-5.423
			C174.208,52.893,172.342,51.447,169.036,50.03z"/>
	</g>
	
		<path opacity="0.2" fill="none" stroke="#297771" stroke-width="0.785" stroke-linecap="round" stroke-linejoin="round" stroke-miterlimit="10" d="
		M207.029,131.731c0.068,0,0.137-0.137,0.205-0.342c0.068-0.205,0.137-0.274,0.205-0.274l0.068,0.274
		c0.137,0.615,0,1.094-0.479,1.504s-1.025,0.752-1.641,0.957c-2.735,0.889-6.563,1.162-11.554,0.957
		c-0.068,0-0.479-0.068-1.231-0.137c-0.752-0.068-1.231-0.068-1.436-0.137c-0.274-0.068-0.615-0.205-1.094-0.41
		c-0.478-0.205-0.889-0.41-1.231-0.684c5.265,0.684,9.982,0.615,14.29-0.205c0.137-0.068,0.342-0.068,0.684-0.137
		c0.274-0.068,0.479-0.068,0.684-0.137s0.41-0.137,0.684-0.205s0.479-0.205,0.684-0.274s0.41-0.205,0.615-0.342
		C206.687,132.073,206.824,131.936,207.029,131.731z M199.234,105.477c-0.068-0.137-0.068-0.342-0.137-0.547
		c-0.068-0.205-0.068-0.41-0.068-0.479c0.684,0.889,1.025,1.368,1.094,1.435c0.41,1.094,0.479,2.119,0.137,3.077
		c-0.342,0.957-0.889,1.846-1.641,2.666c-0.274,0.342-0.615,0.684-1.094,1.094c-0.479,0.41-0.957,0.752-1.299,1.025
		c-0.342,0.342-0.684,0.684-1.025,1.162c-0.342,0.478-0.547,0.957-0.615,1.504c-0.068,0.615,0.068,1.299,0.41,1.915
		s0.821,1.299,1.299,1.982c0.479,0.684,0.752,1.299,0.889,1.846c-0.615-0.41-1.504-1.162-2.53-2.256
		c-1.778-1.846-2.462-3.419-1.982-4.718c0.274-0.615,0.684-1.231,1.231-1.778c0.547-0.479,1.231-1.025,1.982-1.641
		c0.752-0.547,1.299-1.025,1.641-1.368c0.752-0.615,1.299-1.435,1.641-2.325C199.508,107.185,199.508,106.366,199.234,105.477z
		 M204.704,120.929c0.821-0.068,1.572,0.205,2.188,0.821c0.615,0.615,0.752,1.299,0.547,2.051c-0.479,1.504-1.982,2.666-4.581,3.419
		c-0.547,0.205-0.821,0.205-0.889,0.137c-0.068-0.068,0.068-0.274,0.478-0.615c0.205-0.068,0.479-0.274,0.889-0.547
		s0.752-0.479,0.957-0.684c0.205-0.205,0.478-0.41,0.752-0.752c0.274-0.274,0.479-0.547,0.615-0.889
		c0.274-0.615,0.137-1.162-0.342-1.641c-0.478-0.478-1.025-0.547-1.641-0.274c-0.068,0-0.274,0.068-0.615,0.205l-0.479,0.137
		l0.137-0.137C203.064,121.339,203.679,120.929,204.704,120.929z M192.945,121.202c0.137,0,0.479,0.068,1.094,0.205
		c-0.205,0.137-0.478,0.274-0.821,0.342c-0.342,0.137-0.752,0.274-1.094,0.342c-0.342,0.137-0.684,0.274-0.889,0.342
		c-0.068,0-0.137,0-0.205,0.068c-0.342,0.205-0.479,0.274-0.274,0.342c1.368,0.205,3.965,0.205,7.863,0
		c0.479,0,1.231-0.068,2.325-0.274c1.094-0.205,1.915-0.274,2.529-0.205c-0.205,0.137-0.684,0.41-1.435,0.889
		c-0.342,0.137-0.684,0.274-1.025,0.342c-0.342,0.137-0.684,0.205-0.957,0.274c-0.342,0.068-0.684,0.068-1.162,0.137
		c-0.479,0.068-0.821,0.068-1.025,0.137c-3.965,0.342-6.974,0.205-9.093-0.342c-0.274-0.068-0.479-0.205-0.684-0.41
		c-0.205-0.205-0.137-0.479,0.068-0.752C189.458,121.817,191.03,121.339,192.945,121.202z M189.663,129.885
		c0.41-0.068,1.025,0.205,1.846,0.752c-1.368-0.205-2.529,0.068-3.487,0.684c0.137,0.068,0.615,0.274,1.435,0.479
		c3.897,0.615,8.273,0.547,13.264-0.068c0.137-0.068,0.342-0.068,0.684-0.137c0.274-0.068,0.547-0.068,0.752-0.137
		c0.205-0.068,0.41-0.137,0.615-0.274c0.205-0.068,0.41-0.205,0.547-0.342c0-0.068-0.068-0.205-0.137-0.41
		c-0.137-0.137-0.205-0.274-0.274-0.342c-0.068-0.068-0.068-0.137,0-0.137c0.342,0.068,0.684,0.205,1.025,0.479
		c0.342,0.274,0.41,0.547,0.205,0.889c-0.205,0.274-0.547,0.479-0.889,0.684c-0.342,0.205-0.684,0.274-0.889,0.342
		c-0.205,0.068-0.615,0.205-1.162,0.342c-0.547,0.137-0.889,0.205-0.957,0.205c-4.991,0.889-10.256,0.821-15.657-0.205
		c-0.342,0-0.547-0.137-0.752-0.479c-0.205-0.274-0.274-0.547-0.068-0.821C186.655,130.569,187.954,130.09,189.663,129.885z
		 M203.064,111.073h-0.068c0.068,0.055,0.205,0.073,0.41,0.005c0.274,0,0.41,0.002,0.342,0.071
		c-0.068,0.068-0.137,0.138-0.205,0.207c-0.342,0.205-0.889,0.548-1.641,1.026c-0.752,0.479-1.435,0.957-1.982,1.436
		c-0.547,0.478-0.957,0.957-1.231,1.504c-0.205,0.547-0.068,1.231,0.479,2.051c0.547,0.889,0.821,1.368,0.889,1.504
		c0.479,1.299-0.205,2.53-2.051,3.624c-0.342,0.274-0.684,0.342-0.889,0.274c-0.137-0.068-0.068-0.205,0.274-0.547
		c0.41-0.342,0.684-0.752,0.752-1.299c0.068-0.478-0.068-0.957-0.41-1.368c-0.615-0.684-1.025-1.435-1.231-2.256
		c-0.205-0.821-0.137-1.646,0.342-2.467C197.867,113.266,199.918,112.061,203.064,111.073z M191.987,124.552
		c0.068,0,0.205,0,0.479-0.068c0.205-0.068,0.274-0.137,0.342-0.068c0.068,0-0.068,0.068-0.274,0.274c0,0.068,0,0.068-0.068,0.137
		c-0.068,0.068-0.137,0.068-0.205,0.137c-0.274,0.274-0.342,0.479-0.205,0.547c2.393,0.479,5.196,0.41,8.478-0.205
		c0.342,0.342,0.957,0.684,1.982,1.025c-3.419,1.025-6.7,1.368-9.777,0.957c-0.068-0.068-0.205-0.068-0.478-0.137
		c-0.342-0.068-0.547-0.068-0.615-0.137c-0.137-0.068-0.342-0.137-0.547-0.205c-0.205-0.068-0.41-0.205-0.479-0.342
		c-0.137-0.068-0.274-0.205-0.342-0.41c0-0.137,0-0.274,0.068-0.41c0-0.068,0.068-0.205,0.137-0.274s0.137-0.137,0.205-0.205
		c0.068-0.068,0.205-0.137,0.342-0.205c0.137-0.068,0.274-0.068,0.342-0.137c0.068-0.068,0.137-0.068,0.342-0.137
		C191.851,124.62,191.919,124.62,191.987,124.552z M192.671,127.765c0.068,0,0.137,0,0.205,0c0.068,0,0.137,0,0.137,0
		c0.342-0.055,0.41-0.068,0.342,0.069c-0.068,0.068-0.137,0.137-0.274,0.206c-0.205,0.205-0.274,0.274-0.342,0.342
		c1.846,0.479,4.102,0.479,6.769,0c0.205,0.068,0.41,0.137,0.752,0.274c0.274,0.205,0.547,0.342,0.821,0.41
		c0.274,0.137,0.547,0.274,0.752,0.342c-2.393,1.162-4.991,1.504-7.726,1.162c-0.068,0-0.137,0-0.342-0.068
		c-0.205-0.068-0.41-0.068-0.478-0.137c-0.068,0-0.205,0-0.342-0.068c-0.205-0.068-0.342-0.068-0.41-0.137
		c-0.137,0-0.274-0.068-0.41-0.137c-0.137-0.068-0.274-0.137-0.342-0.205c-0.137-0.068-0.274-0.137-0.342-0.274
		c-0.068-0.068-0.205-0.205-0.274-0.274c-0.137-0.41,0-0.753,0.342-0.957C191.851,128.107,192.193,127.875,192.671,127.765z"/>
	
		<path opacity="0.2" fill="none" stroke="#297771" stroke-width="0.785" stroke-linecap="round" stroke-linejoin="round" stroke-miterlimit="10" d="
		M137.94,122.082h-8.437l-2.096-3.185h10.533V122.082z M137.94,126.804h-5.241l-2.148-3.185h7.389V126.804z M122.168,132.35h-4.768
		l6.34-9.499l-6.34-9.499h4.768l12.627,18.998h-4.768l-3.929-5.921L122.168,132.35z M115.829,132.35h-4.716l6.287-9.499
		l-6.287-9.499h4.716l6.339,9.499L115.829,132.35z"/>
	<g opacity="0.2">
		
			<path fill="none" stroke="#297771" stroke-width="0.785" stroke-linecap="round" stroke-linejoin="round" stroke-miterlimit="10" d="
			M174.332,16.657L161.837,4.163c-0.719-0.72-1.886-0.72-2.607,0l-2.594,2.595l3.291,3.291c0.765-0.258,1.642-0.085,2.251,0.525
			c0.613,0.614,0.785,1.498,0.52,2.266l3.172,3.172c0.768-0.265,1.653-0.094,2.266,0.52c0.857,0.856,0.857,2.244,0,3.102
			c-0.857,0.857-2.245,0.857-3.102,0c-0.644-0.645-0.8-1.591-0.474-2.385l-2.956-2.958v7.785c0.22,0.103,0.402,0.241,0.576,0.415
			c0.857,0.856,0.855,2.244-0.002,3.102c-0.857,0.856-2.246,0.856-3.102,0c-0.857-0.858-0.858-2.245-0.002-3.102
			c0.212-0.212,0.442-0.371,0.717-0.479v-7.858c-0.275-0.107-0.505-0.266-0.717-0.479c-0.649-0.649-0.804-1.601-0.472-2.397
			l-3.244-3.245l-8.567,8.567c-0.72,0.72-0.72,1.888,0,2.607l12.496,12.494c0.719,0.72,1.886,0.72,2.607,0l12.437-12.437
			C175.052,18.545,175.052,17.377,174.332,16.657z"/>
	</g>
	
		<path opacity="0.2" fill="none" stroke="#297771" stroke-width="0.785" stroke-linecap="round" stroke-linejoin="round" stroke-miterlimit="10" d="
		M21.973,14.659l-0.163-0.081c0.081,0.189,0.108,0.352,0.108,0.541c0.027-0.135,0.055-0.27,0.055-0.406
		c0,0.189-0.054,0.352-0.054,0.487v-0.081c-0.055,0.081-0.082,0.189-0.109,0.27c-0.027,0.108-0.081,0.189-0.136,0.27l0.054-0.054
		c-0.622,1.055-2.325,1.271-3.164,0.189c-0.676-0.865-0.811-1.758-0.46-2.677c0.73-1.812,1.163-3.948-0.054-6.03
		c-0.621-1.055-1.352-1.893-2.244-2.57c0.973,1.595-0.297,3.705-1.352,4.867c-0.514,0.568-1.055,1.109-1.622,1.595
		c-1.163,1-2.298,2.082-3.434,3.272s-2.136,2.461-2.893,3.921c-0.757,1.46-1.19,3.028-1.244,4.651
		c-0.054,1.622,0.378,3.326,1.271,4.651c0.892,1.325,2.109,2.38,3.596,3.056c0.73,0.352,1.514,0.622,2.298,0.811
		c-1.622-0.73-3.11-2.461-3.11-4.272c0-1.974,1.244-3.65,2.785-4.759c-0.189,0.73-0.27,1.352,0.189,2.001
		c0.406,0.568,1.163,0.838,1.893,0.703c1.65-0.352,1.731-2.19,0.73-3.245c-0.973-1.055-1.893-2.244-1.541-3.786
		c0.189-0.757,0.649-1.46,1.271-1.974c-0.46,1.19,0.838,2.353,1.677,2.975c0.757,0.514,1.514,0.973,2.298,1.433
		c1.541,0.892,3.056,2.082,3.975,3.759s0.703,4.002-0.784,5.489c-0.757,0.73-1.622,1.298-2.569,1.677
		c2.028-0.46,4.11-1.487,5.651-2.947s2.596-3.326,2.677-5.57c0.027-1.866-0.568-3.488-1.595-4.867
		C24.947,16.579,23.515,15.443,21.973,14.659z"/>
	
		<path opacity="0.2" fill="none" stroke="#297771" stroke-width="0.785" stroke-linecap="round" stroke-linejoin="round" stroke-miterlimit="10" d="
		M229.608,22.158V22.11V22.158z M229.993,22.063v-0.048V22.063z M230.432,21.822v-0.048V21.822z M231.314,21.189h0.048H231.314z
		 M231.42,21.196v-0.048V21.196z M242.676,12.245v-0.048V12.245z M241.998,8.491c0,0,0,0,0,0.048
		C241.998,8.539,241.998,8.539,241.998,8.491L241.998,8.491z M244.019,6.804c0.048-0.048,0.096-0.055,0.193,0c0,0,0,0,0.048,0
		c0,0,0,0,0.048,0c0,0,0,0,0.048,0c0.048,0,0.048,0,0.048,0.055h0.048c0.048,0,0.048,0,0.048,0c0.048,0,0.048,0,0.048,0
		c0.048,0,0.048,0,0.048,0c0,0.055,0.001,0.045,0.056,0.045c0,0.048,0,0.065,0,0.065h0.055v0.031
		c0.055,0.144,0.041,0.241,0.089,0.337c0.048,0.144,0.038,0.193,0.038,0.241c0,0.048-0.017,0.048,0.038,0.096
		c0,0.048,0,0.048,0,0.048V7.77c0.055,0.047,0.055,0.192,0.055,0.384c0,0.048,0,0.144,0,0.193c0,0,0,0,0,0.048
		c0,0.096,0,0.193,0,0.337V8.78c0,0.096,0,0.193-0.055,0.289c0,0.048,0,0.048,0,0.096s0,0.048,0,0.048c0,0.048,0,0.048,0,0.048
		v0.068h-0.036c0,0.055,0,0.183-0.048,0.279c0,0.048-0.044,0.091-0.092,0.236c-0.048,0.048-0.044,0.091-0.044,0.091
		c0,0.048,0,0.048,0,0.048v0.059h-0.057c-0.048,0.11-0.048,0.11-0.048,0.165h-0.06v0.065c-0.055,0.048-0.042,0.144-0.091,0.193
		c-0.048,0.096-0.093,0.144-0.142,0.193s-0.047,0.096-0.095,0.144c-0.048-0.048-0.087-0.096-0.135-0.144
		c0-0.048-0.032-0.096-0.087-0.144c0,0,0,0.023,0-0.032c-0.055,0-0.066,0-0.066,0c-0.144-0.22-0.319-0.354-0.538-0.498V9.933h-0.039
		c-0.048,0-0.048,0.001-0.048-0.048c-0.096-0.048-0.193-0.096-0.241-0.144c-0.048-0.048-0.048-0.048-0.048-0.048
		c-0.048-0.048-0.096-0.09-0.193-0.144h-0.048c0.048,0,0.048,0,0.048,0.055c0,0,0,0,0.048,0l0,0c0,0,0-0.003,0.048,0.045
		c0,0,0-0.002,0.048,0.047c0.048,0.048,0.102,0.047,0.102,0.047c0,0.048,0.047,0.047,0.102,0.096v0.04c0.055,0,0.055,0,0.11,0
		c0,0.055,0,0.055,0,0.055s-0.025,0,0.023,0c0,0.055,0.002,0.049,0.05,0.097c0.048,0.048,0.092,0.049,0.147,0.097v0.048
		c0,0,0.055,0.048,0.11,0.096c0,0.048,0,0.048,0,0.048c0.055,0.096,0.11,0.193,0.11,0.289v0.038h0.065
		c0.048,0.11,0.048,0.198,0.048,0.294c0.048,0.144,0.048,0.243,0.048,0.243c-0.048,0.048-0.096,0.098-0.193,0.194l-0.048,0.049
		c-0.048,0.096-0.193,0.193-0.385,0.337c-0.048,0-0.048,0-0.048,0.048l0,0c-0.144,0.096-0.289,0.193-0.433,0.337
		c-0.144,0.144-0.337,0.241-0.481,0.337c-0.048,0.048-0.096,0.096-0.144,0.144c-0.096,0.048-0.144,0.096-0.193,0.144
		c-0.337,0.241-0.626,0.433-0.866,0.577c-0.241,0.144-0.337,0.241-0.385,0.289c-0.048,0.048-0.144,0.096-0.241,0.144
		c-0.096,0.048-0.144,0.096-0.193,0.144c-0.048,0.048-0.289,0.193-0.722,0.433c0,0,0,0-0.048,0.048
		c-0.048,0.048-0.048,0.048-0.048,0.048c-0.048,0-0.048-0.006-0.048,0.042c-0.048,0.048-0.096,0.042-0.096,0.042s0,0-0.048,0
		c-0.048,0.055-0.048,0.054-0.048,0.054c-0.241,0.144-0.529,0.347-0.818,0.587c-0.337,0.241-0.481,0.347-0.481,0.347
		c-0.048,0-0.048,0-0.048,0c-0.048,0.055-0.048,0.031-0.096,0.079c-0.144,0.144-0.337,0.306-0.577,0.415c-0.048,0-0.048,0-0.048,0
		c-0.096,0.11-0.188,0.203-0.332,0.299c-0.144,0.096-0.229,0.155-0.284,0.203c0,0.048,0,0.047,0,0.047c-0.055,0-0.058,0-0.058,0
		c0,0.055,0,0.049-0.048,0.049c-0.048,0.048-0.096,0.061-0.096,0.109c-0.048,0.048-0.048,0.061-0.048,0.061h-0.048
		c-0.337,0.329-0.963,0.854-1.781,1.672c-0.096,0.096-0.241,0.234-0.481,0.427l-0.048,0.045l-0.048,0.047
		c-0.048,0.048-0.096,0.096-0.193,0.192c-0.096,0.096-0.144,0.144-0.193,0.192c-0.048,0.048-0.048,0.048-0.096,0.096
		s-0.048,0.048-0.048,0.048c-0.048,0.048-0.048,0.048-0.096,0.096c-0.048,0.048-0.096,0.096-0.144,0.144
		c-0.048,0-0.048,0-0.096,0.048c-0.048,0.048-0.048,0.048-0.048,0.096c-0.193,0.144-0.337,0.289-0.481,0.433
		c-0.77,0.626-1.238,1.011-1.478,1.155c-0.048,0-0.124,0-0.179,0.048c0,0.048,0,0.048,0,0.048c-0.055,0-0.075-0.01-0.124,0.044
		c-0.048,0-0.041,0-0.041,0c0,0.055,0,0.055,0,0.055c-0.055,0-0.055,0-0.11,0v0.045c-0.165,0.144-0.331,0.175-0.475,0.229
		c0,0,0,0-0.048,0c-0.048,0.055-0.048,0.058-0.048,0.058c-0.048,0.048-0.144,0.052-0.241,0.106c-0.048,0-0.048,0-0.048,0l0,0
		c-0.048,0-0.048,0.055-0.048,0.055s0,0-0.048,0s-0.048,0-0.048,0s0,0-0.048,0.055h-0.048c0,0,0,0-0.048,0s-0.048,0-0.048,0
		c-0.048,0-0.048,0-0.048,0c-0.048,0-0.048,0-0.048,0c-0.048,0-0.096,0-0.193,0.055c-0.048,0-0.048,0-0.096,0
		c-0.048,0.055-0.083,0.058-0.132,0.058c-0.144,0.048-0.428,0.058-0.757,0.106c0,0.048,0,0.056,0,0.056c-0.055,0-0.074,0-0.122,0
		c-0.048,0-0.144,0-0.289,0c-0.048,0.055-0.193,0.044-0.433,0.092c-0.193,0.048-0.337,0.046-0.481,0.046
		c0,0.048,0,0.047-0.048,0.047c-0.144,0.048-0.337,0.048-0.529,0.096c-0.096,0.048-0.144,0.048-0.193,0.096l-0.289,0.096
		l-0.529,0.144l0.048-0.048c0,0,0,0-0.048,0.048c-0.241,0.241-0.482,0.577-0.771,0.915l0,0c0,0.048,0.006,0.048-0.049,0.048v0.048
		c-0.165,0.193-0.336,0.385-0.48,0.626c-0.048,0.048-0.041,0.048-0.089,0.096c-0.048,0.048-0.034,0.096-0.089,0.144l0,0v0.048
		c-0.165,0.144-0.295,0.337-0.439,0.577c-0.048,0-0.051,0-0.051,0.048c-0.048,0.048-0.05,0.035-0.05,0.035
		c-0.144,0.241-0.242,0.42-0.291,0.42h-0.047v0.123l-0.047,0.048c-0.144,0.241-0.288,0.433-0.384,0.577l-0.048,0.048
		c0,0-0.048,0.048-0.096,0.144l-0.042,0.096l-0.042,0.096c0,0,0,0.02,0,0.075c-0.055,0-0.055,0-0.055,0l0,0h-0.055v0.07
		l-0.096,0.144l-1.492,1.54l-0.048-0.053c0.048-0.144,0.096-0.241,0.145-0.289c0,0,0.038-0.048,0.087-0.096s0.032-0.096,0.087-0.144
		v-0.048c0.055-0.144,0.165-0.241,0.22-0.289v-0.048l0.044-0.048c0.048-0.048,0.033-0.048,0.033-0.048s0.033,0,0.033-0.048
		c0-0.048,0-0.039,0-0.094h0.075c0.241-0.329,0.385-0.627,0.481-0.771c0,0,0-0.001,0.048-0.049c0-0.048,0.006-0.048,0.055-0.097
		c0,0,0,0,0.055-0.048c0-0.048,0-0.048,0-0.048c0.055-0.048,0.042-0.096,0.09-0.144l0.045-0.048
		c0.048-0.048,0.143-0.241,0.383-0.577c0.048-0.096,0.192-0.337,0.432-0.674c0.433-0.577,0.761-1.059,1.05-1.444
		c0.048,0,0.032,0,0.087-0.048c0-0.048,0-0.048,0-0.048s0.009,0,0.057-0.048l0,0c0-0.048,0.094-0.144,0.239-0.289
		c0.193-0.289,0.418-0.529,0.527-0.722c0-0.048,0-0.048,0-0.048v-0.048l-0.055-0.048v-0.048c0,0,0,0,0-0.048c0,0,0,0,0-0.048
		c-0.055,0-0.055,0-0.055-0.048s0-0.048,0-0.048v-0.048c0-0.048,0-0.096,0-0.144c0,0,0,0,0-0.048c0-0.048,0-0.144,0.055-0.193
		c0-0.048,0-0.144,0-0.241c0.055,0,0.055,0,0.055-0.048l0,0c0,0,0,0,0-0.048c0,0,0,0,0-0.048c0.055-0.048,0.055-0.096,0.055-0.144
		c0,0,0.003-0.002,0.051-0.051c0-0.048,0.003-0.133,0.051-0.243h0.048c0.048-0.11,0.048-0.188,0.096-0.236
		c0.048-0.048,0.096-0.143,0.193-0.384c0.048-0.096,0.093-0.192,0.141-0.24c0.048-0.144,0.134-0.24,0.189-0.288c0,0,0,0,0-0.048
		c0,0,0.004,0,0.052-0.048c0.048-0.048,0.098-0.144,0.194-0.289c0,0,0.049-0.048,0.097-0.096c0.048-0.048,0.048-0.096,0.048-0.096
		s-0.007,0,0.048-0.048c0,0,0,0.017,0-0.037h0.055v-0.059l0.055-0.048c0-0.048,0-0.048,0-0.048c0.055-0.048,0.09-0.096,0.138-0.193
		c0.048-0.048,0.093-0.096,0.093-0.096c0.144-0.241,0.287-0.385,0.336-0.433c0-0.048-0.001-0.048,0.047-0.048
		c0.048-0.048,0.096-0.144,0.144-0.193c0-0.048,0.048-0.096,0.096-0.144s0.048-0.048,0.048-0.048s0,0,0.048-0.048
		c0,0,0,0,0.048-0.048c0.193-0.241,0.337-0.385,0.385-0.481c0.048-0.048,0.096-0.048,0.144-0.096
		c0.048-0.048,0.048-0.048,0.048-0.096c0,0,0,0,0.048-0.048l0.045-0.048c0-0.048,0.032-0.096,0.142-0.144v-0.04h0.055
		c0,0,0-0.008,0-0.057c0,0-0.001,0,0.048-0.048c0,0,0,0,0.048-0.048c0,0,0,0,0.048-0.048c0,0,0,0,0.048-0.048l0,0
		c0.048-0.048,0.048-0.048,0.096-0.096c0.048-0.048,0.048-0.048,0.096-0.096c0.241-0.289,0.481-0.529,0.626-0.674
		c0.048-0.048,0.051-0.096,0.099-0.144c0.048,0,0.044,0,0.099-0.048c0,0,0-0.01,0-0.064h0.043c0.048-0.11,0.193-0.281,0.433-0.473
		c0,0,0,0.004,0.048-0.044c0,0,0,0.002,0.048-0.046c0,0,0,0.001,0.048-0.047c0.048-0.048,0.096-0.096,0.144-0.144
		c0.048-0.048,0.096-0.096,0.144-0.144l0,0c0.048-0.048,0.048-0.096,0.096-0.096c0.096-0.096,0.241-0.241,0.433-0.433
		c0.144-0.144,0.289-0.289,0.337-0.337c0,0,0,0,0.048-0.048l0,0c0.048-0.048,0.048-0.048,0.048-0.048s0,0,0.048-0.048
		c0.048-0.048,0.048-0.048,0.048-0.048s0.096-0.096,0.337-0.289c0-0.048,0-0.048,0.048-0.096c0.048,0,0.048,0,0.048-0.048
		c0,0,0,0.008,0.048-0.04c0.048,0,0.048,0.015,0.048-0.04c0,0,0,0,0.048,0c0.048-0.055,0.048-0.056,0.096-0.104
		c0,0,0-0.004,0.048-0.052c0.048-0.048,0.048-0.05,0.048-0.05s0.048-0.001,0.096-0.049c0,0,0-0.001,0.048-0.049l0,0
		c0.144-0.144,0.337-0.289,0.481-0.385c0.048-0.048,0.106-0.096,0.154-0.145s0.106-0.048,0.106-0.048s0,0.004,0-0.051h0.029
		l0.048-0.047c0.048,0,0.048,0.001,0.096-0.047c0.048-0.048,0.048-0.048,0.096-0.096c0,0,0.048,0,0.096-0.048
		c0.048-0.048,0.048-0.048,0.048-0.048s0,0,0.048-0.048c0.048,0,0.048,0,0.048-0.048c0.096-0.048,0.193-0.144,0.337-0.241
		c0.048-0.096,0.241-0.241,0.577-0.385l0.048-0.048c0,0,0.039,0,0.087-0.048c0.048-0.048,0.032-0.048,0.087-0.048v-0.055
		c0,0,0.019,0,0.067,0c0.048-0.055,0.107-0.093,0.107-0.093c0.048,0,0.1,0.004,0.155-0.045v-0.027h0.027
		c0.241-0.22,0.433-0.329,0.481-0.329h0.048l0.048-0.058c0.048-0.048,0.096-0.052,0.144-0.106c0,0,0,0,0.048,0
		c0,0,0-0.003,0.048-0.051c0,0,0-0.001,0.048-0.049c0.048,0,0.048-0.001,0.096-0.049c0.241-0.144,0.481-0.241,0.722-0.385
		c0.048-0.048,0.096-0.087,0.144-0.087s0.048,0.017,0.048-0.038c0,0,0,0,0.048,0c0,0,0-0.01,0.048-0.058
		c0.048,0,0.048-0.005,0.048-0.053c0.048,0,0.096-0.002,0.144-0.051c0.048-0.048,0.096-0.06,0.144-0.108
		c0.048,0,0.048-0.005,0.096-0.06c0.048,0,0.037,0,0.037,0c0-0.055,0-0.028,0-0.028c0.165-0.048,0.275-0.144,0.494-0.193V9.11h0.046
		c0.337-0.165,0.577-0.286,0.722-0.381c0.289-0.144,0.481-0.191,0.529-0.239c0.048-0.048,0.144-0.05,0.193-0.098
		c0.048-0.048,0.096-0.05,0.096-0.05c0.048,0,0.048,0,0.048,0c0.048-0.055,0.096-0.058,0.144-0.106c0.048,0,0.096-0.003,0.144-0.058
		c0.048,0,0.048,0,0.048,0s0,0,0.048-0.055c0.048,0,0.048,0,0.096,0c0.096-0.055,0.193-0.056,0.289-0.104c0,0,0-0.01,0.048-0.058
		c0.048,0,0.048-0.003,0.096-0.058c0.048,0,0.048,0,0.048,0s-0.017,0,0.038,0c0,0,0,0.011,0-0.037
		c0.22-0.048,0.438-0.153,0.679-0.249c0.144-0.048,0.294-0.098,0.39-0.153h0.048c0.048-0.055,0.096-0.04,0.144-0.088
		c0.048,0,0.096,0.003,0.144-0.045c0.144-0.048,0.337-0.087,0.529-0.141h0.048c-0.048,0.11-0.061,0.147-0.116,0.195
		c0,0.048,0,0.048,0,0.096s0,0.096,0,0.144l0,0c0,0.048,0,0.048,0,0.048c-0.055,0.144-0.027,0.241-0.027,0.289
		c0,0.048-0.027,0.048-0.027,0.096s0,0.048,0,0.048c0,0.048,0,0.048,0,0.096c-0.055,0.096-0.072,0.144-0.024,0.144
		c0.048-0.048,0.024-0.048,0.024-0.048c0-0.048,0-0.048,0-0.048s0,0,0.055-0.048c0,0,0,0,0-0.048c0,0,0-0.048,0-0.096
		c0.055-0.048,0.055-0.048,0.11-0.096V7.913l0.055-0.096c0,0,0,0,0.055-0.048c0-0.048,0-0.048,0-0.096
		c0.11-0.241,0.141-0.433,0.189-0.481c0.048-0.048,0.046-0.084,0.046-0.132c0.048,0,0.095-0.036,0.143-0.036s0.048,0,0.096,0
		s0.096,0,0.193-0.055c0.048,0,0.048,0,0.048,0c0.048,0,0.096,0,0.144-0.055c0.048,0,0.096,0,0.144,0l0.048-0.055
		c0.144-0.048,0.289-0.055,0.385-0.055h0.096h0.048C243.971,6.803,243.971,6.804,244.019,6.804z"/>
	<g opacity="0.5">
		
			<polygon fill="none" stroke="#405765" stroke-width="0.785" stroke-linecap="round" stroke-linejoin="round" stroke-miterlimit="10" points="
			51.004,86.226 55.916,90.096 52.664,82.069 		"/>
		
			<path fill="none" stroke="#405765" stroke-width="0.785" stroke-linecap="round" stroke-linejoin="round" stroke-miterlimit="10" d="
			M52.452,74.391c-6.941,0-12.568,5.627-12.568,12.568c0,6.941,5.627,12.568,12.568,12.568c6.941,0,12.568-5.626,12.568-12.568
			C65.02,80.019,59.393,74.391,52.452,74.391z M57.608,93.213c-0.245,0-0.433-0.095-0.694-0.306l-6.487-4.784l-2.173,5.901h-1.878
			l5.491-13.662c0.143-0.347,0.449-0.759,0.796-0.759c0.347,0,0.632,0.07,0.775,0.417l5.002,11.982
			c0.055,0.147,0.086,0.256,0.086,0.342C58.527,92.874,58.099,93.213,57.608,93.213z"/>
	</g>
	
		<path opacity="0.5" fill="none" stroke="#405765" stroke-width="0.785" stroke-linecap="round" stroke-linejoin="round" stroke-miterlimit="10" d="
		M124.474,20.146l-3.269,0.06l-1.505,3.766l-2.809,0.028l7.568-16.835V7.133l0,0V7.114l0.014,0.019h0.026l0.015-0.045v0.045H124.5
		l-0.026,0.029l7.938,16.917l-2.724-0.086l-1.661-3.847H124.474z M124.474,4.857l-12.297,4.332l1.945,16.11l10.377,5.708
		l10.429-5.785l1.946-16.11L124.474,4.857z M124.474,12.58l-2.257,5.37h4.825L124.474,12.58z"/>
	<g opacity="0.2">
		
			<path fill="none" stroke="#297771" stroke-width="0.785" stroke-linecap="round" stroke-linejoin="round" stroke-miterlimit="10" d="
			M244.543,84.437c0-0.93-0.745-1.663-1.647-1.663s-1.647,0.733-1.647,1.663v6.932c0,0.902,0.745,1.634,1.647,1.634
			s1.647-0.733,1.647-1.634V84.437z M225.271,83.07v10.75c0,0.986,0.744,1.769,1.731,1.769h1.234v3.67
			c0,0.902,0.732,1.663,1.661,1.663c0.902,0,1.633-0.761,1.633-1.663v-3.67h2.251v3.67c0,0.902,0.732,1.663,1.633,1.663
			c0.93,0,1.661-0.761,1.661-1.663v-3.67h1.197c0.986,0,1.768-0.782,1.768-1.769V83.07H225.271z M236.018,78.699
			c-0.338,0-0.62-0.282-0.62-0.62c0-0.338,0.282-0.648,0.62-0.648c0.366,0,0.648,0.31,0.648,0.648
			C236.666,78.417,236.385,78.699,236.018,78.699z M229.256,78.699c-0.366,0-0.648-0.282-0.648-0.62c0-0.338,0.282-0.648,0.648-0.62
			c0.338-0.028,0.62,0.282,0.62,0.62C229.876,78.417,229.594,78.699,229.256,78.699z M228.974,75.44
			c-2.254,1.156-3.804,3.403-3.804,5.983h14.906c0-2.581-1.522-4.828-3.776-5.983l-0.423-0.202c-0.986-0.423-2.085-0.679-3.24-0.679
			c-1.156,0-2.254,0.229-3.24,0.68L228.974,75.44z M222.388,82.775c-0.902,0-1.675,0.733-1.675,1.663v6.932
			c0,0.902,0.773,1.634,1.675,1.634s1.675-0.733,1.675-1.634v-6.933C224.063,83.507,223.289,82.775,222.388,82.775z"/>
		<g>
			
				<line fill="none" stroke="#297771" stroke-width="0.785" stroke-linecap="round" stroke-linejoin="round" stroke-miterlimit="10" x1="235.347" y1="75.233" x2="236.295" y2="72.997"/>
			
				<line fill="none" stroke="#297771" stroke-width="0.785" stroke-linecap="round" stroke-linejoin="round" stroke-miterlimit="10" x1="229.927" y1="75.233" x2="228.979" y2="72.997"/>
		</g>
	</g>
	<g opacity="0.2">
		
			<path fill="none" stroke="#297771" stroke-width="0.785" stroke-linecap="round" stroke-linejoin="round" stroke-miterlimit="10" d="
			M135.475,51.857c1.056-1.265,1.692-2.886,1.692-4.658c0-4.02-3.27-7.286-7.29-7.286h-8.587c2.097,1.263,3.834,3.075,5.017,5.271
			h3.57c1.121,0,2.034,0.91,2.034,2.032s-0.913,2.031-2.034,2.031h-0.681h-0.001h-0.121h-0.069h-1.234
			c0.166,0.824,0.255,1.722,0.255,2.628c0,0.892-0.087,1.765-0.247,2.588h2.099c1.121,0,2.034,0.938,2.034,2.059
			c0,1.122-0.913,2.059-2.034,2.059h-3.547c-0.266,0.439-0.564,0.938-0.886,1.391c-1.093,1.539-2.484,2.837-4.094,3.825h7.724h0.273
			h0.063h0.465c3.909,0,7.108-3.086,7.282-6.952c-0.003,0.063-0.009,0.13-0.013,0.193c0.012-0.173,0.022-0.344,0.022-0.52
			C137.167,54.746,136.531,53.122,135.475,51.857z"/>
		
			<path fill="none" stroke="#297771" stroke-width="0.785" stroke-linecap="round" stroke-linejoin="round" stroke-miterlimit="10" d="
			M123.923,58.577c0.001-0.001,0.003-0.002,0.004-0.004c0.014-0.02,0.028-0.041,0.042-0.061c0.015-0.024,0.031-0.047,0.046-0.07
			c0,0,0-0.002,0-0.003c1.241-1.886,1.966-4.136,1.966-6.558c0-6.602-5.372-11.969-11.975-11.969h-2.12v5.271h2.12
			c3.704,0,6.718,3.001,6.718,6.705c0,1.008-0.224,1.958-0.624,2.817c-0.001,0.002-0.002-0.004-0.004-0.001
			c-1.071,2.292-3.397,3.877-6.089,3.877h-2.12v5.271h2.12C118.128,63.853,121.768,61.756,123.923,58.577z"/>
	</g>
	<g opacity="0.2">
		
			<path fill="none" stroke="#297771" stroke-width="0.785" stroke-linecap="round" stroke-linejoin="round" stroke-miterlimit="10" d="
			M56.332,115.852c-0.66,0-1.195,0.535-1.195,1.195s0.535,1.195,1.195,1.195c0.66,0,1.195-0.535,1.195-1.195
			S56.992,115.852,56.332,115.852z M56.017,116.911c-0.208,0-0.378-0.169-0.378-0.378s0.169-0.378,0.378-0.378
			c0.208,0,0.378,0.169,0.378,0.378C56.395,116.743,56.226,116.911,56.017,116.911z"/>
		
			<path fill="none" stroke="#297771" stroke-width="0.785" stroke-linecap="round" stroke-linejoin="round" stroke-miterlimit="10" d="
			M52.295,119.661c-0.357,0.011-0.797,0.168-0.923,0.65c-0.283,1.028,2.275,0.871,2.213,0.21
			C53.553,120.133,53.207,119.64,52.295,119.661z"/>
		
			<path fill="none" stroke="#297771" stroke-width="0.785" stroke-linecap="round" stroke-linejoin="round" stroke-miterlimit="10" d="
			M48.562,115.852c-0.66,0-1.195,0.535-1.195,1.195s0.535,1.195,1.195,1.195c0.66,0,1.195-0.535,1.195-1.195
			S49.222,115.852,48.562,115.852z M48.876,116.911c-0.208,0-0.378-0.169-0.378-0.378s0.169-0.378,0.378-0.378
			c0.208,0,0.378,0.169,0.378,0.378C49.254,116.743,49.085,116.911,48.876,116.911z"/>
		
			<path fill="none" stroke="#297771" stroke-width="0.785" stroke-linecap="round" stroke-linejoin="round" stroke-miterlimit="10" d="
			M62.812,112.885c-0.703-1.437-2.401-0.161-2.831-0.612c-2.203-2.265-4.866-2.82-6.952-2.93c0,0-0.944,0-1.153,0
			c-2.097,0.055-4.761,0.654-6.952,2.93c-0.43,0.451-2.139-0.822-2.832,0.615c-0.807,1.677,1.647,1.844,1.52,2.588
			c-0.241,1.342-0.084,3.334,0.105,5.295c0.082,0.924-0.051,2.206-0.175,3.644c0.577,0.039,1.023,0.683,1.023,1.505
			c0,0.847-0.473,1.512-1.077,1.512c-0.039,0-0.076-0.01-0.114-0.016c-0.023,2.656,0.414,5.377,2.42,7.164
			c0.18-0.1,0.372-0.157,0.578-0.157l0,0c0.446,0,0.819,0.231,1.214,0.476c0.163,0.101,0.332,0.206,0.511,0.296
			c0.26,0.133,0.41,0.38,0.419,0.649c1.191,0.235,2.693,0.348,4.071,0.403h0.011h0.011c1.343-0.055,2.69-0.163,3.775-0.386
			c-0.039-0.314,0.113-0.617,0.414-0.771c0.176-0.089,0.345-0.194,0.508-0.295c0.394-0.245,0.767-0.476,1.214-0.476
			c0.231,0,0.446,0.065,0.645,0.189c1.951-1.794,2.377-4.49,2.354-7.12c-0.081,0.026-0.163,0.043-0.25,0.043
			c-0.603,0-1.077-0.664-1.077-1.512s0.473-1.513,1.077-1.513c0.03,0,0.057,0.009,0.087,0.012c-0.122-1.44-0.254-2.724-0.169-3.649
			c0.178-1.961,0.336-3.953,0.105-5.296C61.166,114.731,63.62,114.552,62.812,112.885z M43.717,114.007
			c-0.042,0.251-0.944-0.367-0.577-0.818c0.294-0.378,0.839-0.273,0.902-0.052C44.105,113.357,43.822,113.325,43.717,114.007z
			 M45.625,116.922c0.273-2.139,2.087-3.146,3.167-3.02c3.502,0.409,3.03,4.058,1.677,5.243
			C47.954,121.347,45.332,119.145,45.625,116.922z M53.112,123.355c-0.21,0.136-1.101,0.032-1.426,0
			c-0.482-0.052-0.325-1.08-0.23-1.122c0.105-0.052,1.405-0.178,1.793,0.073C53.48,122.464,53.521,123.093,53.112,123.355z
			 M54.591,120.98c-0.126,1.038-4.079,1.174-4.289-0.063c-0.126-0.755,0.472-1.237,2.15-1.489
			C53.112,119.334,54.696,120.089,54.591,120.98z M54.413,119.145c-1.353-1.185-1.825-4.834,1.677-5.243
			c1.09-0.126,2.905,0.881,3.167,3.02C59.551,119.145,56.929,121.347,54.413,119.145z M61.176,114.007
			c-0.105-0.682-0.388-0.65-0.325-0.871c0.052-0.22,0.598-0.325,0.902,0.052C62.12,113.64,61.218,114.258,61.176,114.007z"/>
		
			<path fill="none" stroke="#297771" stroke-width="0.785" stroke-linecap="round" stroke-linejoin="round" stroke-miterlimit="10" d="
			M59.036,135.2c-0.014-0.015-0.027-0.028-0.041-0.042c-0.041-0.04-0.081-0.075-0.121-0.103c-0.01-0.007-0.019-0.015-0.028-0.021
			c-0.048-0.031-0.097-0.054-0.147-0.069c-0.012-0.004-0.024-0.006-0.036-0.009c-0.039-0.01-0.079-0.016-0.119-0.017
			c-0.008-0.001-0.015-0.003-0.023-0.003c-0.006,0-0.011,0.002-0.017,0.002c-0.042,0.001-0.084,0.006-0.126,0.015
			c-0.005,0.001-0.01,0.001-0.015,0.002c-0.048,0.011-0.096,0.027-0.146,0.046c-0.015,0.006-0.03,0.013-0.046,0.019
			c-0.035,0.015-0.072,0.032-0.108,0.05c-0.017,0.008-0.034,0.017-0.052,0.026c-0.039,0.021-0.079,0.043-0.12,0.066
			c-0.012,0.007-0.025,0.014-0.038,0.021c-0.054,0.032-0.109,0.065-0.165,0.1c-0.051,0.032-0.103,0.064-0.157,0.097
			c-0.02,0.012-0.041,0.025-0.061,0.038c-0.044,0.027-0.089,0.054-0.135,0.08c-0.02,0.012-0.04,0.024-0.06,0.035
			c-0.064,0.037-0.13,0.073-0.198,0.107c-0.035,0.018-0.056,0.041-0.072,0.066c-0.002,0.004-0.007,0.007-0.009,0.011
			c-0.001,0.003,0.001,0.006-0.001,0.008c-0.009,0.024-0.012,0.05-0.005,0.077c0.001,0.002,0,0.004,0.001,0.006
			c0.008,0.03,0.028,0.061,0.054,0.092c0.006,0.008,0.014,0.016,0.021,0.024c0.026,0.028,0.057,0.056,0.095,0.083
			c0.006,0.004,0.01,0.008,0.015,0.012c0.044,0.03,0.096,0.059,0.153,0.086c0.014,0.007,0.029,0.013,0.043,0.019
			c0.052,0.023,0.108,0.043,0.168,0.062c0.012,0.003,0.023,0.008,0.034,0.011c0.071,0.02,0.148,0.036,0.228,0.048
			c0.019,0.003,0.039,0.005,0.059,0.007c0.07,0.009,0.143,0.014,0.218,0.015c0.014,0,0.025,0.003,0.038,0.003
			c0.006,0,0.014-0.001,0.02-0.001c0.04-0.001,0.082-0.004,0.123-0.006c0.032-0.002,0.064-0.003,0.097-0.007
			c0.045-0.005,0.09-0.014,0.135-0.021c0.032-0.006,0.063-0.009,0.095-0.016c0.051-0.011,0.104-0.027,0.156-0.042
			c0.028-0.008,0.055-0.014,0.083-0.023c0.081-0.027,0.162-0.059,0.244-0.096c0.336-0.157,0.325-0.367,0.116-0.671
			C59.134,135.314,59.085,135.254,59.036,135.2z"/>
		
			<path fill="none" stroke="#297771" stroke-width="0.785" stroke-linecap="round" stroke-linejoin="round" stroke-miterlimit="10" d="
			M47.888,135.811c-0.015-0.025-0.036-0.048-0.072-0.066c-0.068-0.034-0.134-0.07-0.198-0.107c-0.021-0.012-0.041-0.024-0.061-0.036
			c-0.045-0.026-0.089-0.052-0.132-0.079c-0.022-0.014-0.044-0.026-0.066-0.04c-0.049-0.03-0.097-0.06-0.145-0.09
			c-0.059-0.037-0.117-0.072-0.174-0.106c-0.014-0.008-0.028-0.016-0.041-0.024c-0.039-0.023-0.078-0.045-0.117-0.065
			c-0.018-0.01-0.035-0.019-0.054-0.027c-0.036-0.018-0.072-0.034-0.107-0.049c-0.015-0.007-0.031-0.014-0.046-0.02
			c-0.049-0.019-0.098-0.035-0.145-0.046c-0.005-0.001-0.01-0.001-0.015-0.002c-0.043-0.009-0.085-0.014-0.126-0.015
			c-0.002,0-0.004-0.001-0.006-0.001c-0.004,0-0.007-0.001-0.011-0.001c-0.008,0-0.015,0.003-0.023,0.003
			c-0.04,0.002-0.08,0.007-0.119,0.017c-0.012,0.003-0.024,0.005-0.035,0.008c-0.049,0.016-0.098,0.038-0.147,0.069
			c-0.01,0.006-0.019,0.015-0.029,0.021c-0.04,0.028-0.081,0.063-0.121,0.103c-0.014,0.014-0.027,0.027-0.041,0.042
			c-0.049,0.054-0.099,0.114-0.149,0.188c-0.21,0.304-0.22,0.514,0.116,0.671c0.082,0.038,0.163,0.069,0.244,0.096
			c0.028,0.009,0.055,0.015,0.083,0.023c0.052,0.015,0.105,0.031,0.156,0.042c0.032,0.007,0.063,0.011,0.095,0.016
			c0.046,0.008,0.091,0.016,0.135,0.021c0.033,0.004,0.065,0.005,0.097,0.007c0.042,0.003,0.083,0.006,0.123,0.006
			c0.006,0,0.014,0.001,0.02,0.001c0.014,0,0.025-0.002,0.039-0.003c0.075-0.002,0.147-0.007,0.217-0.015
			c0.02-0.002,0.041-0.005,0.06-0.007c0.08-0.012,0.157-0.028,0.227-0.048c0.012-0.003,0.023-0.008,0.035-0.012
			c0.06-0.019,0.116-0.039,0.167-0.062c0.015-0.006,0.029-0.012,0.043-0.019c0.057-0.027,0.109-0.056,0.153-0.086
			c0.006-0.004,0.01-0.008,0.015-0.012c0.038-0.028,0.069-0.056,0.095-0.084c0.007-0.008,0.015-0.016,0.021-0.024
			c0.025-0.032,0.045-0.063,0.054-0.092c0.001-0.002,0-0.004,0.001-0.006c0.007-0.028,0.004-0.053-0.005-0.077
			C47.896,135.823,47.892,135.817,47.888,135.811z"/>
		
			<path fill="none" stroke="#297771" stroke-width="0.785" stroke-linecap="round" stroke-linejoin="round" stroke-miterlimit="10" d="
			M43.95,125.92c0-0.514-0.243-0.898-0.461-0.898c-0.218,0-0.461,0.384-0.461,0.898c0,0.514,0.243,0.897,0.461,0.897
			C43.706,126.817,43.95,126.434,43.95,125.92z"/>
		
			<path fill="none" stroke="#297771" stroke-width="0.785" stroke-linecap="round" stroke-linejoin="round" stroke-miterlimit="10" d="
			M61.269,125.023c-0.218,0-0.461,0.384-0.461,0.898c0,0.514,0.243,0.897,0.461,0.897s0.461-0.383,0.461-0.897
			C61.73,125.407,61.487,125.023,61.269,125.023z"/>
	</g>
	<g>
		
			<path fill="none" stroke="#405765" stroke-width="0.785" stroke-linecap="round" stroke-linejoin="round" stroke-miterlimit="10" d="
			M205.697,83.924c-3.348,0-6.061-2.714-6.061-6.061c0-1.386,0.465-2.662,1.247-3.683c-1.446,1.108-2.378,2.852-2.378,4.814
			c0,3.348,2.714,6.061,6.061,6.061c1.962,0,3.707-0.932,4.814-2.378C208.359,83.459,207.082,83.924,205.697,83.924z"/>
		
			<path fill="none" stroke="#405765" stroke-width="0.785" stroke-linecap="round" stroke-linejoin="round" stroke-miterlimit="10" d="
			M192.967,80.919c0-2.211,0.742-4.249,1.99-5.878c-2.307,1.768-3.795,4.552-3.795,7.683c0,5.342,4.331,9.673,9.673,9.673
			c3.131,0,5.915-1.488,7.683-3.795c-1.629,1.248-3.667,1.99-5.878,1.99C197.298,90.592,192.967,86.261,192.967,80.919z"/>
		
			<path fill="none" stroke="#405765" stroke-width="0.785" stroke-linecap="round" stroke-linejoin="round" stroke-miterlimit="10" d="
			M186.299,83.975c0-3.037,1.019-5.836,2.733-8.073c-3.169,2.428-5.212,6.251-5.212,10.552c0,7.337,5.948,13.285,13.285,13.285
			c4.3,0,8.124-2.043,10.552-5.212c-2.238,1.715-5.036,2.733-8.073,2.733C192.247,97.26,186.299,91.312,186.299,83.975z"/>
	</g>
	
		<line fill="none" stroke="#E96132" stroke-width="0.785" stroke-linecap="round" stroke-linejoin="round" stroke-miterlimit="10" x1="182.566" y1="30.236" x2="175.89" y2="36.912"/>
	
		<line fill="none" stroke="#E96132" stroke-width="0.785" stroke-linecap="round" stroke-linejoin="round" stroke-miterlimit="10" x1="216.48" y1="101.257" x2="209.805" y2="107.933"/>
	
		<line fill="none" stroke="#E96132" stroke-width="0.785" stroke-linecap="round" stroke-linejoin="round" stroke-miterlimit="10" x1="108.752" y1="101.257" x2="102.076" y2="107.933"/>
	
		<line fill="none" stroke="#E96132" stroke-width="0.785" stroke-linecap="round" stroke-linejoin="round" stroke-miterlimit="10" x1="70.448" y1="65.164" x2="63.773" y2="71.84"/>
	
		<line fill="none" stroke="#E96132" stroke-width="0.785" stroke-linecap="round" stroke-linejoin="round" stroke-miterlimit="10" x1="137.986" y1="101.257" x2="144.661" y2="107.933"/>
	
		<line fill="none" stroke="#E96132" stroke-width="0.785" stroke-linecap="round" stroke-linejoin="round" stroke-miterlimit="10" x1="66.167" y1="101.257" x2="72.842" y2="107.933"/>
	
		<line fill="none" stroke="#E96132" stroke-width="0.785" stroke-linecap="round" stroke-linejoin="round" stroke-miterlimit="10" x1="173.895" y1="101.257" x2="180.571" y2="107.933"/>
	
		<line fill="none" stroke="#E96132" stroke-width="0.785" stroke-linecap="round" stroke-linejoin="round" stroke-miterlimit="10" x1="177.087" y1="65.164" x2="183.763" y2="71.84"/>
	
		<line fill="none" stroke="#E96132" stroke-width="0.785" stroke-linecap="round" stroke-linejoin="round" stroke-miterlimit="10" x1="30.257" y1="30.236" x2="36.933" y2="36.912"/>
	<g>
		
			<line fill="none" stroke="#E96132" stroke-width="0.785" stroke-linecap="round" stroke-linejoin="round" stroke-miterlimit="10" x1="145.459" y1="30.635" x2="138.784" y2="37.311"/>
		
			<line fill="none" stroke="#E96132" stroke-width="0.785" stroke-linecap="round" stroke-linejoin="round" stroke-miterlimit="10" x1="138.784" y1="30.635" x2="145.459" y2="37.311"/>
	</g>
	<g>
		
			<line fill="none" stroke="#E96132" stroke-width="0.785" stroke-linecap="round" stroke-linejoin="round" stroke-miterlimit="10" x1="76.034" y1="30.635" x2="69.358" y2="37.311"/>
		
			<line fill="none" stroke="#E96132" stroke-width="0.785" stroke-linecap="round" stroke-linejoin="round" stroke-miterlimit="10" x1="69.358" y1="30.635" x2="76.034" y2="37.311"/>
	</g>
	
		<line fill="none" stroke="#E96132" stroke-width="0.785" stroke-linecap="round" stroke-linejoin="round" stroke-miterlimit="10" x1="212.997" y1="30.236" x2="219.672" y2="36.912"/>
	<g>
		<g>
			
				<path fill="none" stroke="#405765" stroke-width="0.785" stroke-linecap="round" stroke-linejoin="round" stroke-miterlimit="10" d="
				M165.243,122.741c-2.808,0-19.569,0-19.569,0l-0.043,0.466c-0.144,1.544,0.068,3.092,0.706,4.503l0.275,0.561l0.031,0.053
				c1.888,3.205,5.203,4.556,8.815,4.556c6.993,0,12.761-3.124,15.411-9.723c1.771,0.092,3.582-0.431,4.448-2.121l0.221-0.431
				l-0.421-0.243c-1.024-0.591-2.389-0.672-3.55-0.33c-0.143-1.235-0.955-2.319-1.92-3.094l-0.383-0.308l-0.322,0.372
				c-0.646,0.748-0.839,1.99-0.751,2.945c0.065,0.702,0.285,1.414,0.718,1.978c-0.328,0.197-0.701,0.351-1.034,0.463
				C167.875,122.387,166.898,122.741,165.243,122.741z"/>
		</g>
		
			<path fill="none" stroke="#405765" stroke-width="0.785" stroke-linecap="round" stroke-linejoin="round" stroke-miterlimit="10" d="
			M147.349,129.275L147.349,129.275c0.003,0,0.005,0,0.008,0c0.461,0,0.906,0.029,1.334,0.034c0.135,0.002,0.27-0.002,0.401-0.002
			c0.479,0,0.935-0.015,1.368-0.039c0.038-0.002,0.076-0.007,0.114-0.009c0.55-0.034,1.063-0.088,1.538-0.162
			c0.005-0.001,0.01-0.002,0.015-0.003c0.113-0.018,0.224-0.036,0.332-0.056c0.018-0.003,0.034-0.007,0.051-0.01
			c0.096-0.018,0.191-0.037,0.283-0.057c0.036-0.008,0.07-0.016,0.105-0.024c0.073-0.016,0.146-0.033,0.217-0.05
			c0.088-0.021,0.173-0.045,0.257-0.068c0.018-0.005,0.035-0.009,0.053-0.014c0.678,1.562,1.895,3.004,4.114,4.057"/>
		
			<circle fill="none" stroke="#405765" stroke-width="0.785" stroke-linecap="round" stroke-linejoin="round" stroke-miterlimit="10" cx="155.021" cy="126.66" r="1.019"/>
		<g>
			
				<rect x="151.777" y="119.446" fill="none" stroke="#405765" stroke-width="0.785" stroke-linecap="round" stroke-linejoin="round" stroke-miterlimit="10" width="3.294" height="3.294"/>
			
				<rect x="155.071" y="119.446" fill="none" stroke="#405765" stroke-width="0.785" stroke-linecap="round" stroke-linejoin="round" stroke-miterlimit="10" width="3.349" height="3.294"/>
			
				<rect x="158.421" y="119.446" fill="none" stroke="#405765" stroke-width="0.785" stroke-linecap="round" stroke-linejoin="round" stroke-miterlimit="10" width="3.294" height="3.294"/>
			
				<rect x="151.777" y="116.152" fill="none" stroke="#405765" stroke-width="0.785" stroke-linecap="round" stroke-linejoin="round" stroke-miterlimit="10" width="3.294" height="3.294"/>
			
				<rect x="155.071" y="116.152" fill="none" stroke="#405765" stroke-width="0.785" stroke-linecap="round" stroke-linejoin="round" stroke-miterlimit="10" width="3.349" height="3.294"/>
			
				<rect x="158.421" y="116.152" fill="none" stroke="#405765" stroke-width="0.785" stroke-linecap="round" stroke-linejoin="round" stroke-miterlimit="10" width="3.294" height="3.294"/>
			
				<rect x="158.421" y="112.803" fill="none" stroke="#405765" stroke-width="0.785" stroke-linecap="round" stroke-linejoin="round" stroke-miterlimit="10" width="3.294" height="3.349"/>
			
				<rect x="161.715" y="119.446" fill="none" stroke="#405765" stroke-width="0.785" stroke-linecap="round" stroke-linejoin="round" stroke-miterlimit="10" width="3.294" height="3.294"/>
			
				<rect x="148.482" y="119.446" fill="none" stroke="#405765" stroke-width="0.785" stroke-linecap="round" stroke-linejoin="round" stroke-miterlimit="10" width="3.294" height="3.294"/>
		</g>
	</g>
	<g>
		<g>
			
				<path fill="none" stroke="#405765" stroke-width="0.785" stroke-linecap="round" stroke-linejoin="round" stroke-miterlimit="10" d="
				M86.656,114.362l5.546-2.06v7.591l-5.546,2.169V114.362z"/>
			
				<polyline fill="none" stroke="#405765" stroke-width="0.785" stroke-linecap="round" stroke-linejoin="round" stroke-miterlimit="10" points="
				86.486,122.062 80.946,119.893 80.946,112.302 86.491,114.362 			"/>
			
				<polyline fill="none" stroke="#405765" stroke-width="0.785" stroke-linecap="round" stroke-linejoin="round" stroke-miterlimit="10" points="
				92.204,112.263 86.477,110.203 80.927,112.263 			"/>
		</g>
		<g>
			
				<path fill="none" stroke="#405765" stroke-width="0.785" stroke-linecap="round" stroke-linejoin="round" stroke-miterlimit="10" d="
				M93.52,126.12l5.546-2.06v7.591l-5.546,2.169V126.12z"/>
			
				<polyline fill="none" stroke="#405765" stroke-width="0.785" stroke-linecap="round" stroke-linejoin="round" stroke-miterlimit="10" points="
				93.348,133.82 87.809,131.651 87.809,124.06 93.353,126.12 			"/>
			
				<polyline fill="none" stroke="#405765" stroke-width="0.785" stroke-linecap="round" stroke-linejoin="round" stroke-miterlimit="10" points="
				99.063,124.022 93.336,121.962 87.786,124.022 			"/>
		</g>
		<g>
			
				<path fill="none" stroke="#405765" stroke-width="0.785" stroke-linecap="round" stroke-linejoin="round" stroke-miterlimit="10" d="
				M79.793,126.12l5.546-2.06v7.591l-5.546,2.169V126.12z"/>
			
				<polyline fill="none" stroke="#405765" stroke-width="0.785" stroke-linecap="round" stroke-linejoin="round" stroke-miterlimit="10" points="
				79.625,133.82 74.083,131.651 74.083,124.06 79.629,126.12 			"/>
			
				<polyline fill="none" stroke="#405765" stroke-width="0.785" stroke-linecap="round" stroke-linejoin="round" stroke-miterlimit="10" points="
				85.345,124.022 79.618,121.962 74.067,124.022 			"/>
		</g>
	</g>
</g>
</svg>
