<?xml version="1.0" encoding="utf-8"?>
<!-- Generator: Adobe Illustrator 17.0.0, SVG Export Plug-In . SVG Version: 6.00 Build 0)  -->
<!DOCTYPE svg PUBLIC "-//W3C//DTD SVG 1.1//EN" "http://www.w3.org/Graphics/SVG/1.1/DTD/svg11.dtd">
<svg version="1.1" id="Layer_1" xmlns="http://www.w3.org/2000/svg" xmlns:xlink="http://www.w3.org/1999/xlink" x="0px" y="0px"
	 width="250px" height="140px" viewBox="0 0 250 140" enable-background="new 0 0 250 140" xml:space="preserve">
<g>
	<g opacity="0.5">
		
			<path fill="none" stroke="#405765" stroke-width="0.8" stroke-linecap="round" stroke-linejoin="round" stroke-miterlimit="10" d="
			M31.343,98.9c0,3.251-2.636,5.888-5.888,5.888H12.369c-3.251,0-5.888-2.636-5.888-5.888l0,0c0-3.251,2.636-5.888,5.888-5.888
			h13.084C28.706,93.011,31.343,95.648,31.343,98.9L31.343,98.9z"/>
		
			<line fill="none" stroke="#405765" stroke-width="0.8" stroke-linecap="round" stroke-linejoin="round" stroke-miterlimit="10" x1="20.604" y1="98.9" x2="47.405" y2="98.9"/>
		
			<path fill="none" stroke="#405765" stroke-width="0.8" stroke-linecap="round" stroke-linejoin="round" stroke-miterlimit="10" d="
			M60.783,98.9c0,3.251-2.636,5.888-5.888,5.888H41.81c-3.251,0-5.888-2.636-5.888-5.888l0,0c0-3.251,2.636-5.888,5.888-5.888
			h13.084C58.147,93.011,60.783,95.648,60.783,98.9L60.783,98.9z"/>
		
			<line fill="none" stroke="#405765" stroke-width="0.8" stroke-linecap="round" stroke-linejoin="round" stroke-miterlimit="10" x1="52.277" y1="98.9" x2="76.643" y2="98.9"/>
		
			<path fill="none" stroke="#405765" stroke-width="0.8" stroke-linecap="round" stroke-linejoin="round" stroke-miterlimit="10" d="
			M91.532,98.9c0,3.251-2.636,5.888-5.888,5.888H72.56c-3.251,0-5.888-2.636-5.888-5.888l0,0c0-3.251,2.636-5.888,5.888-5.888
			h13.084C88.895,93.011,91.532,95.648,91.532,98.9L91.532,98.9z"/>
		
			<line fill="none" stroke="#405765" stroke-width="0.8" stroke-linecap="round" stroke-linejoin="round" stroke-miterlimit="10" x1="81.516" y1="98.9" x2="105.88" y2="98.9"/>
		
			<path fill="none" stroke="#405765" stroke-width="0.8" stroke-linecap="round" stroke-linejoin="round" stroke-miterlimit="10" d="
			M115.085,104.788H102c-3.251,0-5.888-2.636-5.888-5.888l0,0c0-3.251,2.636-5.888,5.888-5.888"/>
		
			<path fill="none" stroke="#405765" stroke-width="0.8" stroke-linecap="round" stroke-linejoin="round" stroke-miterlimit="10" d="
			M177.44,93.011c3.251,0,5.888,2.636,5.888,5.888l0,0c0,3.251-2.636,5.888-5.888,5.888h-13.084"/>
		
			<line fill="none" stroke="#405765" stroke-width="0.8" stroke-linecap="round" stroke-linejoin="round" stroke-miterlimit="10" x1="174.102" y1="98.9" x2="198.466" y2="98.9"/>
		
			<path fill="none" stroke="#405765" stroke-width="0.8" stroke-linecap="round" stroke-linejoin="round" stroke-miterlimit="10" d="
			M214.078,98.9c0,3.251-2.636,5.888-5.888,5.888h-13.084c-3.251,0-5.888-2.636-5.888-5.888l0,0c0-3.251,2.636-5.888,5.888-5.888
			h13.084C211.441,93.011,214.078,95.648,214.078,98.9L214.078,98.9z"/>
		
			<line fill="none" stroke="#405765" stroke-width="0.8" stroke-linecap="round" stroke-linejoin="round" stroke-miterlimit="10" x1="203.34" y1="98.9" x2="230.141" y2="98.9"/>
		
			<path fill="none" stroke="#405765" stroke-width="0.8" stroke-linecap="round" stroke-linejoin="round" stroke-miterlimit="10" d="
			M243.518,98.9c0,3.251-2.636,5.888-5.888,5.888h-13.084c-3.251,0-5.888-2.636-5.888-5.888l0,0c0-3.251,2.636-5.888,5.888-5.888
			h13.084C240.883,93.011,243.518,95.648,243.518,98.9L243.518,98.9z"/>
	</g>
	<g opacity="0.5">
		
			<path fill="none" stroke="#405765" stroke-width="0.8" stroke-linecap="round" stroke-linejoin="round" stroke-miterlimit="10" d="
			M31.343,41.643c0,3.251-2.636,5.888-5.888,5.888H12.369c-3.251,0-5.888-2.636-5.888-5.888l0,0c0-3.251,2.636-5.888,5.888-5.888
			h13.084C28.706,35.755,31.343,38.391,31.343,41.643L31.343,41.643z"/>
		
			<path fill="none" stroke="#405765" stroke-width="0.8" stroke-linecap="round" stroke-linejoin="round" stroke-miterlimit="10" d="
			M60.783,41.643c0,3.251-2.636,5.888-5.888,5.888H41.81c-3.251,0-5.888-2.636-5.888-5.888l0,0c0-3.251,2.636-5.888,5.888-5.888
			h13.084C58.147,35.755,60.783,38.391,60.783,41.643L60.783,41.643z"/>
		
			<path fill="none" stroke="#405765" stroke-width="0.8" stroke-linecap="round" stroke-linejoin="round" stroke-miterlimit="10" d="
			M91.532,41.643c0,3.251-2.636,5.888-5.888,5.888H72.56c-3.251,0-5.888-2.636-5.888-5.888l0,0c0-3.251,2.636-5.888,5.888-5.888
			h13.084C88.895,35.755,91.532,38.391,91.532,41.643L91.532,41.643z"/>
		
			<path fill="none" stroke="#405765" stroke-width="0.8" stroke-linecap="round" stroke-linejoin="round" stroke-miterlimit="10" d="
			M102,47.53c-3.251,0-5.888-2.636-5.888-5.888l0,0c0-3.251,2.636-5.888,5.888-5.888h13.084"/>
		
			<path fill="none" stroke="#405765" stroke-width="0.8" stroke-linecap="round" stroke-linejoin="round" stroke-miterlimit="10" d="
			M164.356,35.755h13.084c3.251,0,5.888,2.636,5.888,5.888l0,0c0,3.251-2.636,5.888-5.888,5.888"/>
		
			<path fill="none" stroke="#405765" stroke-width="0.8" stroke-linecap="round" stroke-linejoin="round" stroke-miterlimit="10" d="
			M214.078,41.643c0,3.251-2.636,5.888-5.888,5.888h-13.084c-3.251,0-5.888-2.636-5.888-5.888l0,0c0-3.251,2.636-5.888,5.888-5.888
			h13.084C211.441,35.755,214.078,38.391,214.078,41.643L214.078,41.643z"/>
		
			<path fill="none" stroke="#405765" stroke-width="0.8" stroke-linecap="round" stroke-linejoin="round" stroke-miterlimit="10" d="
			M243.518,41.643c0,3.251-2.636,5.888-5.888,5.888h-13.084c-3.251,0-5.888-2.636-5.888-5.888l0,0c0-3.251,2.636-5.888,5.888-5.888
			h13.084C240.883,35.755,243.518,38.391,243.518,41.643L243.518,41.643z"/>
		<g>
			
				<line fill="none" stroke="#405765" stroke-width="0.8" stroke-linecap="round" stroke-linejoin="round" stroke-miterlimit="10" x1="20.604" y1="41.643" x2="47.405" y2="41.643"/>
			
				<line fill="none" stroke="#405765" stroke-width="0.8" stroke-linecap="round" stroke-linejoin="round" stroke-miterlimit="10" x1="52.277" y1="41.643" x2="76.643" y2="41.643"/>
			
				<line fill="none" stroke="#405765" stroke-width="0.8" stroke-linecap="round" stroke-linejoin="round" stroke-miterlimit="10" x1="81.516" y1="41.643" x2="105.88" y2="41.643"/>
			
				<line fill="none" stroke="#405765" stroke-width="0.8" stroke-linecap="round" stroke-linejoin="round" stroke-miterlimit="10" x1="174.102" y1="41.643" x2="198.466" y2="41.643"/>
			
				<line fill="none" stroke="#405765" stroke-width="0.8" stroke-linecap="round" stroke-linejoin="round" stroke-miterlimit="10" x1="203.34" y1="41.643" x2="230.141" y2="41.643"/>
		</g>
	</g>
	<g opacity="0.3">
		
			<path fill="none" stroke="#405765" stroke-width="0.8" stroke-linecap="round" stroke-linejoin="round" stroke-miterlimit="10" d="
			M31.343,13.015c0,3.251-2.636,5.888-5.888,5.888H12.369c-3.251,0-5.888-2.636-5.888-5.888l0,0c0-3.251,2.636-5.888,5.888-5.888
			h13.084C28.706,7.126,31.343,9.762,31.343,13.015L31.343,13.015z"/>
		
			<path fill="none" stroke="#405765" stroke-width="0.8" stroke-linecap="round" stroke-linejoin="round" stroke-miterlimit="10" d="
			M60.783,13.015c0,3.251-2.636,5.888-5.888,5.888H41.81c-3.251,0-5.888-2.636-5.888-5.888l0,0c0-3.251,2.636-5.888,5.888-5.888
			h13.084C58.147,7.126,60.783,9.762,60.783,13.015L60.783,13.015z"/>
		
			<path fill="none" stroke="#405765" stroke-width="0.8" stroke-linecap="round" stroke-linejoin="round" stroke-miterlimit="10" d="
			M91.532,13.015c0,3.251-2.636,5.888-5.888,5.888H72.56c-3.251,0-5.888-2.636-5.888-5.888l0,0c0-3.251,2.636-5.888,5.888-5.888
			h13.084C88.895,7.126,91.532,9.762,91.532,13.015L91.532,13.015z"/>
		
			<path fill="none" stroke="#405765" stroke-width="0.8" stroke-linecap="round" stroke-linejoin="round" stroke-miterlimit="10" d="
			M120.974,13.015c0,3.251-2.636,5.888-5.888,5.888h-13.084c-3.251,0-5.888-2.636-5.888-5.888l0,0c0-3.251,2.636-5.888,5.888-5.888
			h13.084C118.337,7.126,120.974,9.762,120.974,13.015L120.974,13.015z"/>
		
			<path fill="none" stroke="#405765" stroke-width="0.8" stroke-linecap="round" stroke-linejoin="round" stroke-miterlimit="10" d="
			M153.888,13.015c0,3.251-2.636,5.888-5.888,5.888h-13.084c-3.251,0-5.888-2.636-5.888-5.888l0,0c0-3.251,2.636-5.888,5.888-5.888
			h13.084C151.252,7.126,153.888,9.762,153.888,13.015L153.888,13.015z"/>
		
			<path fill="none" stroke="#405765" stroke-width="0.8" stroke-linecap="round" stroke-linejoin="round" stroke-miterlimit="10" d="
			M183.329,13.015c0,3.251-2.636,5.888-5.888,5.888h-13.086c-3.251,0-5.888-2.636-5.888-5.888l0,0c0-3.251,2.636-5.888,5.888-5.888
			h13.084C180.693,7.126,183.329,9.762,183.329,13.015L183.329,13.015z"/>
		
			<path fill="none" stroke="#405765" stroke-width="0.8" stroke-linecap="round" stroke-linejoin="round" stroke-miterlimit="10" d="
			M214.078,13.015c0,3.251-2.636,5.888-5.888,5.888h-13.084c-3.251,0-5.888-2.636-5.888-5.888l0,0c0-3.251,2.636-5.888,5.888-5.888
			h13.084C211.441,7.126,214.078,9.762,214.078,13.015L214.078,13.015z"/>
		
			<path fill="none" stroke="#405765" stroke-width="0.8" stroke-linecap="round" stroke-linejoin="round" stroke-miterlimit="10" d="
			M243.518,13.015c0,3.251-2.636,5.888-5.888,5.888h-13.084c-3.251,0-5.888-2.636-5.888-5.888l0,0c0-3.251,2.636-5.888,5.888-5.888
			h13.084C240.883,7.126,243.518,9.762,243.518,13.015L243.518,13.015z"/>
		<g>
			
				<line fill="none" stroke="#405765" stroke-width="0.8" stroke-linecap="round" stroke-linejoin="round" stroke-miterlimit="10" x1="20.604" y1="13.015" x2="47.405" y2="13.015"/>
			
				<line fill="none" stroke="#405765" stroke-width="0.8" stroke-linecap="round" stroke-linejoin="round" stroke-miterlimit="10" x1="52.277" y1="13.015" x2="76.643" y2="13.015"/>
			
				<line fill="none" stroke="#405765" stroke-width="0.8" stroke-linecap="round" stroke-linejoin="round" stroke-miterlimit="10" x1="81.516" y1="13.015" x2="105.88" y2="13.015"/>
			
				<line fill="none" stroke="#405765" stroke-width="0.8" stroke-linecap="round" stroke-linejoin="round" stroke-miterlimit="10" x1="113.19" y1="13.015" x2="137.555" y2="13.015"/>
			
				<line fill="none" stroke="#405765" stroke-width="0.8" stroke-linecap="round" stroke-linejoin="round" stroke-miterlimit="10" x1="144.864" y1="13.015" x2="169.229" y2="13.015"/>
			
				<line fill="none" stroke="#405765" stroke-width="0.8" stroke-linecap="round" stroke-linejoin="round" stroke-miterlimit="10" x1="174.102" y1="13.015" x2="198.466" y2="13.015"/>
			
				<line fill="none" stroke="#405765" stroke-width="0.8" stroke-linecap="round" stroke-linejoin="round" stroke-miterlimit="10" x1="203.34" y1="13.015" x2="230.141" y2="13.015"/>
		</g>
	</g>
	<g opacity="0.3">
		
			<path fill="none" stroke="#405765" stroke-width="0.8" stroke-linecap="round" stroke-linejoin="round" stroke-miterlimit="10" d="
			M31.343,127.528c0,3.251-2.636,5.888-5.888,5.888H12.369c-3.251,0-5.888-2.636-5.888-5.888l0,0c0-3.251,2.636-5.888,5.888-5.888
			h13.084C28.706,121.641,31.343,124.277,31.343,127.528L31.343,127.528z"/>
		
			<line fill="none" stroke="#405765" stroke-width="0.8" stroke-linecap="round" stroke-linejoin="round" stroke-miterlimit="10" x1="20.604" y1="127.528" x2="47.405" y2="127.528"/>
		
			<path fill="none" stroke="#405765" stroke-width="0.8" stroke-linecap="round" stroke-linejoin="round" stroke-miterlimit="10" d="
			M60.783,127.528c0,3.251-2.636,5.888-5.888,5.888H41.81c-3.251,0-5.888-2.636-5.888-5.888l0,0c0-3.251,2.636-5.888,5.888-5.888
			h13.084C58.147,121.641,60.783,124.277,60.783,127.528L60.783,127.528z"/>
		
			<line fill="none" stroke="#405765" stroke-width="0.8" stroke-linecap="round" stroke-linejoin="round" stroke-miterlimit="10" x1="52.277" y1="127.528" x2="76.643" y2="127.528"/>
		
			<path fill="none" stroke="#405765" stroke-width="0.8" stroke-linecap="round" stroke-linejoin="round" stroke-miterlimit="10" d="
			M91.532,127.528c0,3.251-2.636,5.888-5.888,5.888H72.56c-3.251,0-5.888-2.636-5.888-5.888l0,0c0-3.251,2.636-5.888,5.888-5.888
			h13.084C88.895,121.641,91.532,124.277,91.532,127.528L91.532,127.528z"/>
		
			<line fill="none" stroke="#405765" stroke-width="0.8" stroke-linecap="round" stroke-linejoin="round" stroke-miterlimit="10" x1="81.516" y1="127.528" x2="105.88" y2="127.528"/>
		
			<path fill="none" stroke="#405765" stroke-width="0.8" stroke-linecap="round" stroke-linejoin="round" stroke-miterlimit="10" d="
			M120.974,127.528c0,3.251-2.636,5.888-5.888,5.888h-13.084c-3.251,0-5.888-2.636-5.888-5.888l0,0c0-3.251,2.636-5.888,5.888-5.888
			h13.084C118.337,121.641,120.974,124.277,120.974,127.528L120.974,127.528z"/>
		
			<line fill="none" stroke="#405765" stroke-width="0.8" stroke-linecap="round" stroke-linejoin="round" stroke-miterlimit="10" x1="113.19" y1="127.528" x2="137.555" y2="127.528"/>
		
			<path fill="none" stroke="#405765" stroke-width="0.8" stroke-linecap="round" stroke-linejoin="round" stroke-miterlimit="10" d="
			M153.888,127.528c0,3.251-2.636,5.888-5.888,5.888h-13.084c-3.251,0-5.888-2.636-5.888-5.888l0,0c0-3.251,2.636-5.888,5.888-5.888
			h13.084C151.252,121.641,153.888,124.277,153.888,127.528L153.888,127.528z"/>
		
			<line fill="none" stroke="#405765" stroke-width="0.8" stroke-linecap="round" stroke-linejoin="round" stroke-miterlimit="10" x1="144.864" y1="127.528" x2="169.229" y2="127.528"/>
		
			<path fill="none" stroke="#405765" stroke-width="0.8" stroke-linecap="round" stroke-linejoin="round" stroke-miterlimit="10" d="
			M183.329,127.528c0,3.251-2.636,5.888-5.888,5.888h-13.086c-3.251,0-5.888-2.636-5.888-5.888l0,0c0-3.251,2.636-5.888,5.888-5.888
			h13.084C180.693,121.641,183.329,124.277,183.329,127.528L183.329,127.528z"/>
		
			<line fill="none" stroke="#405765" stroke-width="0.8" stroke-linecap="round" stroke-linejoin="round" stroke-miterlimit="10" x1="174.102" y1="127.528" x2="198.466" y2="127.528"/>
		
			<path fill="none" stroke="#405765" stroke-width="0.8" stroke-linecap="round" stroke-linejoin="round" stroke-miterlimit="10" d="
			M214.078,127.528c0,3.251-2.636,5.888-5.888,5.888h-13.084c-3.251,0-5.888-2.636-5.888-5.888l0,0c0-3.251,2.636-5.888,5.888-5.888
			h13.084C211.441,121.641,214.078,124.277,214.078,127.528L214.078,127.528z"/>
		
			<line fill="none" stroke="#405765" stroke-width="0.8" stroke-linecap="round" stroke-linejoin="round" stroke-miterlimit="10" x1="203.34" y1="127.528" x2="230.141" y2="127.528"/>
		
			<path fill="none" stroke="#405765" stroke-width="0.8" stroke-linecap="round" stroke-linejoin="round" stroke-miterlimit="10" d="
			M243.518,127.528c0,3.251-2.636,5.888-5.888,5.888h-13.084c-3.251,0-5.888-2.636-5.888-5.888l0,0c0-3.251,2.636-5.888,5.888-5.888
			h13.084C240.883,121.641,243.518,124.277,243.518,127.528L243.518,127.528z"/>
	</g>
	<g>
		<g>
			
				<path fill="none" stroke="#297771" stroke-width="0.8" stroke-linecap="round" stroke-linejoin="round" stroke-miterlimit="10" d="
				M31.343,70.271c0,3.251-2.636,5.888-5.888,5.888H12.369c-3.251,0-5.888-2.636-5.888-5.888l0,0c0-3.251,2.636-5.888,5.888-5.888
				h13.084C28.706,64.383,31.343,67.019,31.343,70.271L31.343,70.271z"/>
			
				<line fill="none" stroke="#297771" stroke-width="0.8" stroke-linecap="round" stroke-linejoin="round" stroke-miterlimit="10" x1="22.837" y1="70.271" x2="47.202" y2="70.271"/>
			
				<path fill="none" stroke="#297771" stroke-width="0.8" stroke-linecap="round" stroke-linejoin="round" stroke-miterlimit="10" d="
				M62.091,70.271c0,3.251-2.636,5.888-5.888,5.888H43.119c-3.251,0-5.888-2.636-5.888-5.888l0,0c0-3.251,2.636-5.888,5.888-5.888
				h13.084C59.455,64.383,62.091,67.019,62.091,70.271L62.091,70.271z"/>
			
				<line fill="none" stroke="#297771" stroke-width="0.8" stroke-linecap="round" stroke-linejoin="round" stroke-miterlimit="10" x1="52.075" y1="70.271" x2="76.44" y2="70.271"/>
			
				<path fill="none" stroke="#297771" stroke-width="0.8" stroke-linecap="round" stroke-linejoin="round" stroke-miterlimit="10" d="
				M85.644,76.16H72.56c-3.251,0-5.888-2.636-5.888-5.888l0,0c0-3.251,2.636-5.888,5.888-5.888h13.084"/>
		</g>
		<g>
			
				<path fill="none" stroke="#297771" stroke-width="0.8" stroke-linecap="round" stroke-linejoin="round" stroke-miterlimit="10" d="
				M193.797,64.383h13.084c3.251,0,5.888,2.636,5.888,5.888l0,0c0,3.251-2.636,5.888-5.888,5.888h-13.084"/>
			
				<line fill="none" stroke="#297771" stroke-width="0.8" stroke-linecap="round" stroke-linejoin="round" stroke-miterlimit="10" x1="203.542" y1="70.271" x2="227.908" y2="70.271"/>
			
				<path fill="none" stroke="#297771" stroke-width="0.8" stroke-linecap="round" stroke-linejoin="round" stroke-miterlimit="10" d="
				M243.518,70.271c0,3.251-2.636,5.888-5.888,5.888h-13.084c-3.251,0-5.888-2.636-5.888-5.888l0,0c0-3.251,2.636-5.888,5.888-5.888
				h13.084C240.883,64.383,243.518,67.019,243.518,70.271L243.518,70.271z"/>
		</g>
	</g>
	
		<circle fill="#FFFFFF" stroke="#E96132" stroke-width="0.8" stroke-linecap="round" stroke-linejoin="round" stroke-miterlimit="10" cx="137.543" cy="70.438" r="5.93"/>
	<g opacity="0.4">
		
			<line fill="none" stroke="#E96132" stroke-width="0.8" stroke-linecap="round" stroke-linejoin="round" stroke-miterlimit="10" x1="136.668" y1="54.308" x2="136.668" y2="41.302"/>
		
			<line fill="none" stroke="#E96132" stroke-width="0.8" stroke-linecap="round" stroke-linejoin="round" stroke-miterlimit="10" x1="126.075" y1="59.481" x2="121.32" y2="54.726"/>
		
			<line fill="none" stroke="#E96132" stroke-width="0.8" stroke-linecap="round" stroke-linejoin="round" stroke-miterlimit="10" x1="126.586" y1="81.906" x2="121.831" y2="86.66"/>
		
			<line fill="none" stroke="#E96132" stroke-width="0.8" stroke-linecap="round" stroke-linejoin="round" stroke-miterlimit="10" x1="149.011" y1="81.393" x2="153.766" y2="86.149"/>
		
			<line fill="none" stroke="#E96132" stroke-width="0.8" stroke-linecap="round" stroke-linejoin="round" stroke-miterlimit="10" x1="148.5" y1="58.969" x2="153.254" y2="54.215"/>
		
			<line fill="none" stroke="#E96132" stroke-width="0.8" stroke-linecap="round" stroke-linejoin="round" stroke-miterlimit="10" x1="121.592" y1="71.159" x2="108.586" y2="71.159"/>
		
			<line fill="none" stroke="#E96132" stroke-width="0.8" stroke-linecap="round" stroke-linejoin="round" stroke-miterlimit="10" x1="137.258" y1="86.234" x2="137.258" y2="99.241"/>
		
			<line fill="none" stroke="#E96132" stroke-width="0.8" stroke-linecap="round" stroke-linejoin="round" stroke-miterlimit="10" x1="153.517" y1="70.568" x2="166.524" y2="70.568"/>
	</g>
</g>
</svg>
