<?xml version="1.0" encoding="utf-8"?>
<!-- Generator: Adobe Illustrator 17.0.0, SVG Export Plug-In . SVG Version: 6.00 Build 0)  -->
<!DOCTYPE svg PUBLIC "-//W3C//DTD SVG 1.1//EN" "http://www.w3.org/Graphics/SVG/1.1/DTD/svg11.dtd">
<svg version="1.1" id="Layer_1" xmlns="http://www.w3.org/2000/svg" xmlns:xlink="http://www.w3.org/1999/xlink" x="0px" y="0px"
	 width="250px" height="140px" viewBox="0 0 250 140" enable-background="new 0 0 250 140" xml:space="preserve">
<g>
	<g opacity="0.3">
		<g>
			
				<path fill="#FFFFFF" stroke="#405765" stroke-width="0.8" stroke-linecap="round" stroke-linejoin="round" stroke-miterlimit="10" d="
				M35.718,110.709c2.4,0,4.345-4.207,4.345-9.462s-1.945-9.462-4.345-9.462c-0.234,0-1.142,0-1.376,0
				c-2.4,0-4.345,4.207-4.345,9.462s1.945,9.489,4.345,9.489C34.576,110.735,35.483,110.709,35.718,110.709z"/>
			
				<ellipse fill="#FFFFFF" stroke="#405765" stroke-width="0.8" stroke-linecap="round" stroke-linejoin="round" stroke-miterlimit="10" cx="35.718" cy="101.193" rx="4.345" ry="9.515"/>
			<g>
				
					<path fill="#FFFFFF" stroke="#405765" stroke-width="0.8" stroke-linecap="round" stroke-linejoin="round" stroke-miterlimit="10" d="
					M34.255,104.314c0.299,0.76,0.921,1.283,1.64,1.283c1.01,0,1.829-1.032,1.829-2.305s-0.852-2.305-1.829-2.305
					c-0.977,0-1.829-1.054-1.829-2.327s0.819-2.305,1.829-2.305c0.758,0,1.408,0.58,1.685,1.408"/>
				<g>
					
						<line fill="none" stroke="#405765" stroke-width="0.8" stroke-linecap="round" stroke-linejoin="round" stroke-miterlimit="10" x1="35.258" y1="94.783" x2="35.258" y2="106.78"/>
					
						<line fill="none" stroke="#405765" stroke-width="0.8" stroke-linecap="round" stroke-linejoin="round" stroke-miterlimit="10" x1="36.316" y1="94.783" x2="36.316" y2="106.78"/>
				</g>
			</g>
		</g>
		<g>
			
				<path fill="#FFFFFF" stroke="#405765" stroke-width="0.8" stroke-linecap="round" stroke-linejoin="round" stroke-miterlimit="10" d="
				M65.708,110.709c2.4,0,4.345-4.207,4.345-9.462s-1.945-9.462-4.345-9.462c-0.234,0-1.142,0-1.376,0
				c-2.4,0-4.345,4.207-4.345,9.462s1.945,9.489,4.345,9.489C64.566,110.735,65.474,110.709,65.708,110.709z"/>
			
				<ellipse fill="#FFFFFF" stroke="#405765" stroke-width="0.8" stroke-linecap="round" stroke-linejoin="round" stroke-miterlimit="10" cx="65.708" cy="101.193" rx="4.345" ry="9.515"/>
			<g>
				
					<path fill="#FFFFFF" stroke="#405765" stroke-width="0.8" stroke-linecap="round" stroke-linejoin="round" stroke-miterlimit="10" d="
					M64.245,104.314c0.299,0.76,0.921,1.283,1.64,1.283c1.01,0,1.829-1.032,1.829-2.305s-0.852-2.305-1.829-2.305
					s-1.829-1.054-1.829-2.327s0.819-2.305,1.829-2.305c0.758,0,1.408,0.58,1.685,1.408"/>
				<g>
					
						<line fill="none" stroke="#405765" stroke-width="0.8" stroke-linecap="round" stroke-linejoin="round" stroke-miterlimit="10" x1="64.895" y1="94.783" x2="64.895" y2="106.78"/>
					
						<line fill="none" stroke="#405765" stroke-width="0.8" stroke-linecap="round" stroke-linejoin="round" stroke-miterlimit="10" x1="65.953" y1="94.783" x2="65.953" y2="106.78"/>
				</g>
			</g>
		</g>
		<g>
			
				<path fill="#FFFFFF" stroke="#405765" stroke-width="0.8" stroke-linecap="round" stroke-linejoin="round" stroke-miterlimit="10" d="
				M185.668,110.709c2.4,0,4.345-4.207,4.345-9.462s-1.945-9.462-4.345-9.462c-0.234,0-1.142,0-1.376,0
				c-2.4,0-4.345,4.207-4.345,9.462s1.945,9.489,4.345,9.489C184.526,110.735,185.434,110.709,185.668,110.709z"/>
			
				<ellipse fill="#FFFFFF" stroke="#405765" stroke-width="0.8" stroke-linecap="round" stroke-linejoin="round" stroke-miterlimit="10" cx="185.668" cy="101.193" rx="4.345" ry="9.515"/>
			<g>
				
					<path fill="#FFFFFF" stroke="#405765" stroke-width="0.8" stroke-linecap="round" stroke-linejoin="round" stroke-miterlimit="10" d="
					M184.206,104.314c0.299,0.76,0.921,1.283,1.64,1.283c1.01,0,1.829-1.032,1.829-2.305s-0.852-2.305-1.829-2.305
					s-1.829-1.054-1.829-2.327s0.819-2.305,1.829-2.305c0.758,0,1.408,0.58,1.685,1.408"/>
				<g>
					
						<line fill="none" stroke="#405765" stroke-width="0.8" stroke-linecap="round" stroke-linejoin="round" stroke-miterlimit="10" x1="185.208" y1="94.783" x2="185.208" y2="106.78"/>
					
						<line fill="none" stroke="#405765" stroke-width="0.8" stroke-linecap="round" stroke-linejoin="round" stroke-miterlimit="10" x1="186.267" y1="94.783" x2="186.267" y2="106.78"/>
				</g>
			</g>
		</g>
		<g>
			
				<path fill="#FFFFFF" stroke="#405765" stroke-width="0.8" stroke-linecap="round" stroke-linejoin="round" stroke-miterlimit="10" d="
				M215.659,110.709c2.4,0,4.345-4.207,4.345-9.462s-1.945-9.462-4.345-9.462c-0.234,0-1.142,0-1.376,0
				c-2.4,0-4.345,4.207-4.345,9.462s1.945,9.489,4.345,9.489C214.517,110.735,215.424,110.709,215.659,110.709z"/>
			
				<ellipse fill="#FFFFFF" stroke="#405765" stroke-width="0.8" stroke-linecap="round" stroke-linejoin="round" stroke-miterlimit="10" cx="215.659" cy="101.193" rx="4.345" ry="9.515"/>
			<g>
				
					<path fill="#FFFFFF" stroke="#405765" stroke-width="0.8" stroke-linecap="round" stroke-linejoin="round" stroke-miterlimit="10" d="
					M214.196,104.314c0.299,0.76,0.921,1.283,1.64,1.283c1.01,0,1.829-1.032,1.829-2.305s-0.852-2.305-1.829-2.305
					c-0.977,0-1.829-1.054-1.829-2.327s0.819-2.305,1.829-2.305c0.758,0,1.408,0.58,1.685,1.408"/>
				<g>
					
						<line fill="none" stroke="#405765" stroke-width="0.8" stroke-linecap="round" stroke-linejoin="round" stroke-miterlimit="10" x1="215.199" y1="94.783" x2="215.199" y2="106.78"/>
					
						<line fill="none" stroke="#405765" stroke-width="0.8" stroke-linecap="round" stroke-linejoin="round" stroke-miterlimit="10" x1="216.257" y1="94.783" x2="216.257" y2="106.78"/>
				</g>
			</g>
		</g>
		<g>
			
				<path fill="#FFFFFF" stroke="#405765" stroke-width="0.8" stroke-linecap="round" stroke-linejoin="round" stroke-miterlimit="10" d="
				M35.718,69.124c2.4,0,4.345-4.231,4.345-9.486s-1.945-9.486-4.345-9.486c-0.234,0-1.142,0-1.376,0
				c-2.4,0-4.345,4.231-4.345,9.486s1.945,9.501,4.345,9.501C34.576,69.138,35.483,69.124,35.718,69.124z"/>
			
				<ellipse fill="#FFFFFF" stroke="#405765" stroke-width="0.8" stroke-linecap="round" stroke-linejoin="round" stroke-miterlimit="10" cx="35.718" cy="59.608" rx="4.345" ry="9.515"/>
			<g>
				
					<path fill="#FFFFFF" stroke="#405765" stroke-width="0.8" stroke-linecap="round" stroke-linejoin="round" stroke-miterlimit="10" d="
					M34.255,62.729c0.299,0.76,0.921,1.283,1.64,1.283c1.01,0,1.829-1.032,1.829-2.305s-0.852-2.305-1.829-2.305
					c-0.977,0-1.829-1.054-1.829-2.327s0.819-2.305,1.829-2.305c0.758,0,1.408,0.58,1.685,1.408"/>
				<g>
					
						<line fill="none" stroke="#405765" stroke-width="0.8" stroke-linecap="round" stroke-linejoin="round" stroke-miterlimit="10" x1="35.258" y1="53.15" x2="35.258" y2="65.146"/>
					
						<line fill="none" stroke="#405765" stroke-width="0.8" stroke-linecap="round" stroke-linejoin="round" stroke-miterlimit="10" x1="36.316" y1="53.15" x2="36.316" y2="65.146"/>
				</g>
			</g>
		</g>
		<g>
			
				<path fill="#FFFFFF" stroke="#405765" stroke-width="0.8" stroke-linecap="round" stroke-linejoin="round" stroke-miterlimit="10" d="
				M65.708,69.124c2.4,0,4.345-4.231,4.345-9.486s-1.945-9.486-4.345-9.486c-0.234,0-1.142,0-1.376,0
				c-2.4,0-4.345,4.231-4.345,9.486s1.945,9.501,4.345,9.501C64.566,69.138,65.474,69.124,65.708,69.124z"/>
			
				<ellipse fill="#FFFFFF" stroke="#405765" stroke-width="0.8" stroke-linecap="round" stroke-linejoin="round" stroke-miterlimit="10" cx="65.708" cy="59.608" rx="4.345" ry="9.515"/>
			<g>
				
					<path fill="#FFFFFF" stroke="#405765" stroke-width="0.8" stroke-linecap="round" stroke-linejoin="round" stroke-miterlimit="10" d="
					M64.245,62.729c0.299,0.76,0.921,1.283,1.64,1.283c1.01,0,1.829-1.032,1.829-2.305s-0.852-2.305-1.829-2.305
					s-1.829-1.054-1.829-2.327s0.819-2.305,1.829-2.305c0.758,0,1.408,0.58,1.685,1.408"/>
				<g>
					
						<line fill="none" stroke="#405765" stroke-width="0.8" stroke-linecap="round" stroke-linejoin="round" stroke-miterlimit="10" x1="64.895" y1="53.15" x2="64.895" y2="65.146"/>
					
						<line fill="none" stroke="#405765" stroke-width="0.8" stroke-linecap="round" stroke-linejoin="round" stroke-miterlimit="10" x1="65.953" y1="53.15" x2="65.953" y2="65.146"/>
				</g>
			</g>
		</g>
		<g>
			
				<path fill="#FFFFFF" stroke="#405765" stroke-width="0.8" stroke-linecap="round" stroke-linejoin="round" stroke-miterlimit="10" d="
				M185.668,69.124c2.4,0,4.345-4.231,4.345-9.486s-1.945-9.486-4.345-9.486c-0.234,0-1.142,0-1.376,0
				c-2.4,0-4.345,4.231-4.345,9.486s1.945,9.501,4.345,9.501C184.526,69.138,185.434,69.124,185.668,69.124z"/>
			
				<ellipse fill="#FFFFFF" stroke="#405765" stroke-width="0.8" stroke-linecap="round" stroke-linejoin="round" stroke-miterlimit="10" cx="185.668" cy="59.608" rx="4.345" ry="9.515"/>
			<g>
				
					<path fill="#FFFFFF" stroke="#405765" stroke-width="0.8" stroke-linecap="round" stroke-linejoin="round" stroke-miterlimit="10" d="
					M184.206,62.729c0.299,0.76,0.921,1.283,1.64,1.283c1.01,0,1.829-1.032,1.829-2.305s-0.852-2.305-1.829-2.305
					s-1.829-1.054-1.829-2.327s0.819-2.305,1.829-2.305c0.758,0,1.408,0.58,1.685,1.408"/>
				<g>
					
						<line fill="none" stroke="#405765" stroke-width="0.8" stroke-linecap="round" stroke-linejoin="round" stroke-miterlimit="10" x1="185.208" y1="53.15" x2="185.208" y2="65.146"/>
					
						<line fill="none" stroke="#405765" stroke-width="0.8" stroke-linecap="round" stroke-linejoin="round" stroke-miterlimit="10" x1="186.267" y1="53.15" x2="186.267" y2="65.146"/>
				</g>
			</g>
		</g>
		<g>
			
				<path fill="#FFFFFF" stroke="#405765" stroke-width="0.8" stroke-linecap="round" stroke-linejoin="round" stroke-miterlimit="10" d="
				M215.659,69.124c2.4,0,4.345-4.231,4.345-9.486s-1.945-9.486-4.345-9.486c-0.234,0-1.142,0-1.376,0
				c-2.4,0-4.345,4.231-4.345,9.486s1.945,9.501,4.345,9.501C214.517,69.138,215.424,69.124,215.659,69.124z"/>
			
				<ellipse fill="#FFFFFF" stroke="#405765" stroke-width="0.8" stroke-linecap="round" stroke-linejoin="round" stroke-miterlimit="10" cx="215.659" cy="59.608" rx="4.345" ry="9.515"/>
			<g>
				
					<path fill="#FFFFFF" stroke="#405765" stroke-width="0.8" stroke-linecap="round" stroke-linejoin="round" stroke-miterlimit="10" d="
					M214.196,62.729c0.299,0.76,0.921,1.283,1.64,1.283c1.01,0,1.829-1.032,1.829-2.305s-0.852-2.305-1.829-2.305
					c-0.977,0-1.829-1.054-1.829-2.327s0.819-2.305,1.829-2.305c0.758,0,1.408,0.58,1.685,1.408"/>
				<g>
					
						<line fill="none" stroke="#405765" stroke-width="0.8" stroke-linecap="round" stroke-linejoin="round" stroke-miterlimit="10" x1="215.199" y1="53.15" x2="215.199" y2="65.146"/>
					
						<line fill="none" stroke="#405765" stroke-width="0.8" stroke-linecap="round" stroke-linejoin="round" stroke-miterlimit="10" x1="216.257" y1="53.15" x2="216.257" y2="65.146"/>
				</g>
			</g>
		</g>
		<g>
			
				<path fill="#FFFFFF" stroke="#405765" stroke-width="0.8" stroke-linecap="round" stroke-linejoin="round" stroke-miterlimit="10" d="
				M51.066,131.446c2.4,0,4.345-4.167,4.345-9.422s-1.945-9.422-4.345-9.422c-0.234,0-1.142,0-1.376,0
				c-2.4,0-4.345,4.167-4.345,9.422s1.945,9.469,4.345,9.469C49.924,131.492,50.831,131.446,51.066,131.446z"/>
			
				<ellipse fill="#FFFFFF" stroke="#405765" stroke-width="0.8" stroke-linecap="round" stroke-linejoin="round" stroke-miterlimit="10" cx="51.066" cy="121.93" rx="4.345" ry="9.515"/>
			<g>
				
					<path fill="#FFFFFF" stroke="#405765" stroke-width="0.8" stroke-linecap="round" stroke-linejoin="round" stroke-miterlimit="10" d="
					M49.603,125.051c0.299,0.76,0.921,1.283,1.64,1.283c1.01,0,1.829-1.032,1.829-2.305s-0.852-2.305-1.829-2.305
					c-0.977,0-1.829-1.054-1.829-2.327s0.819-2.305,1.829-2.305c0.758,0,1.408,0.58,1.685,1.408"/>
				<g>
					
						<line fill="none" stroke="#405765" stroke-width="0.8" stroke-linecap="round" stroke-linejoin="round" stroke-miterlimit="10" x1="50.782" y1="115.6" x2="50.782" y2="127.596"/>
					
						<line fill="none" stroke="#405765" stroke-width="0.8" stroke-linecap="round" stroke-linejoin="round" stroke-miterlimit="10" x1="51.84" y1="115.6" x2="51.84" y2="127.596"/>
				</g>
			</g>
		</g>
		<g>
			
				<path fill="#FFFFFF" stroke="#405765" stroke-width="0.8" stroke-linecap="round" stroke-linejoin="round" stroke-miterlimit="10" d="
				M81.056,131.446c2.4,0,4.345-4.167,4.345-9.422s-1.945-9.422-4.345-9.422c-0.234,0-1.142,0-1.376,0
				c-2.4,0-4.345,4.167-4.345,9.422s1.945,9.469,4.345,9.469C79.914,131.492,80.821,131.446,81.056,131.446z"/>
			
				<ellipse fill="#FFFFFF" stroke="#405765" stroke-width="0.8" stroke-linecap="round" stroke-linejoin="round" stroke-miterlimit="10" cx="81.056" cy="121.93" rx="4.345" ry="9.515"/>
			<g>
				
					<path fill="#FFFFFF" stroke="#405765" stroke-width="0.8" stroke-linecap="round" stroke-linejoin="round" stroke-miterlimit="10" d="
					M79.593,125.051c0.299,0.76,0.921,1.283,1.64,1.283c1.01,0,1.829-1.032,1.829-2.305s-0.852-2.305-1.829-2.305
					s-1.829-1.054-1.829-2.327s0.819-2.305,1.829-2.305c0.758,0,1.408,0.58,1.685,1.408"/>
				<g>
					
						<line fill="none" stroke="#405765" stroke-width="0.8" stroke-linecap="round" stroke-linejoin="round" stroke-miterlimit="10" x1="80.772" y1="115.6" x2="80.772" y2="127.596"/>
					
						<line fill="none" stroke="#405765" stroke-width="0.8" stroke-linecap="round" stroke-linejoin="round" stroke-miterlimit="10" x1="81.831" y1="115.6" x2="81.831" y2="127.596"/>
				</g>
			</g>
		</g>
		<g>
			
				<path fill="#FFFFFF" stroke="#405765" stroke-width="0.8" stroke-linecap="round" stroke-linejoin="round" stroke-miterlimit="10" d="
				M171.026,131.446c2.4,0,4.345-4.167,4.345-9.422s-1.945-9.422-4.345-9.422c-0.234,0-1.142,0-1.376,0
				c-2.4,0-4.345,4.167-4.345,9.422s1.945,9.469,4.345,9.469C169.884,131.492,170.792,131.446,171.026,131.446z"/>
			
				<ellipse fill="#FFFFFF" stroke="#405765" stroke-width="0.8" stroke-linecap="round" stroke-linejoin="round" stroke-miterlimit="10" cx="171.026" cy="121.93" rx="4.345" ry="9.515"/>
			<g>
				
					<path fill="#FFFFFF" stroke="#405765" stroke-width="0.8" stroke-linecap="round" stroke-linejoin="round" stroke-miterlimit="10" d="
					M169.563,125.051c0.299,0.76,0.921,1.283,1.64,1.283c1.01,0,1.829-1.032,1.829-2.305s-0.852-2.305-1.829-2.305
					c-0.977,0-1.829-1.054-1.829-2.327s0.819-2.305,1.829-2.305c0.758,0,1.408,0.58,1.685,1.408"/>
				<g>
					
						<line fill="none" stroke="#405765" stroke-width="0.8" stroke-linecap="round" stroke-linejoin="round" stroke-miterlimit="10" x1="170.743" y1="115.6" x2="170.743" y2="127.596"/>
					
						<line fill="none" stroke="#405765" stroke-width="0.8" stroke-linecap="round" stroke-linejoin="round" stroke-miterlimit="10" x1="171.801" y1="115.6" x2="171.801" y2="127.596"/>
				</g>
			</g>
		</g>
		<g>
			
				<path fill="#FFFFFF" stroke="#405765" stroke-width="0.8" stroke-linecap="round" stroke-linejoin="round" stroke-miterlimit="10" d="
				M201.016,131.446c2.4,0,4.345-4.167,4.345-9.422s-1.945-9.422-4.345-9.422c-0.234,0-1.142,0-1.376,0
				c-2.4,0-4.345,4.167-4.345,9.422s1.945,9.469,4.345,9.469C199.874,131.492,200.782,131.446,201.016,131.446z"/>
			
				<ellipse fill="#FFFFFF" stroke="#405765" stroke-width="0.8" stroke-linecap="round" stroke-linejoin="round" stroke-miterlimit="10" cx="201.016" cy="121.93" rx="4.345" ry="9.515"/>
			<g>
				
					<path fill="#FFFFFF" stroke="#405765" stroke-width="0.8" stroke-linecap="round" stroke-linejoin="round" stroke-miterlimit="10" d="
					M199.554,125.051c0.299,0.76,0.921,1.283,1.64,1.283c1.01,0,1.829-1.032,1.829-2.305s-0.852-2.305-1.829-2.305
					s-1.829-1.054-1.829-2.327s0.819-2.305,1.829-2.305c0.758,0,1.408,0.58,1.685,1.408"/>
				<g>
					
						<line fill="none" stroke="#405765" stroke-width="0.8" stroke-linecap="round" stroke-linejoin="round" stroke-miterlimit="10" x1="200.733" y1="115.6" x2="200.733" y2="127.596"/>
					
						<line fill="none" stroke="#405765" stroke-width="0.8" stroke-linecap="round" stroke-linejoin="round" stroke-miterlimit="10" x1="201.791" y1="115.6" x2="201.791" y2="127.596"/>
				</g>
			</g>
		</g>
		<g>
			
				<path fill="#FFFFFF" stroke="#405765" stroke-width="0.8" stroke-linecap="round" stroke-linejoin="round" stroke-miterlimit="10" d="
				M51.066,89.871c2.4,0,4.345-4.196,4.345-9.451c0-5.255-1.945-9.451-4.345-9.451c-0.234,0-1.142,0-1.376,0
				c-2.4,0-4.345,4.196-4.345,9.451c0,5.255,1.945,9.483,4.345,9.483C49.924,89.903,50.831,89.871,51.066,89.871z"/>
			
				<ellipse fill="#FFFFFF" stroke="#405765" stroke-width="0.8" stroke-linecap="round" stroke-linejoin="round" stroke-miterlimit="10" cx="51.066" cy="80.355" rx="4.345" ry="9.515"/>
			<g>
				
					<path fill="#FFFFFF" stroke="#405765" stroke-width="0.8" stroke-linecap="round" stroke-linejoin="round" stroke-miterlimit="10" d="
					M49.603,83.476c0.299,0.76,0.921,1.283,1.64,1.283c1.01,0,1.829-1.032,1.829-2.305s-0.852-2.305-1.829-2.305
					c-0.977,0-1.829-1.054-1.829-2.327s0.819-2.305,1.829-2.305c0.758,0,1.408,0.58,1.685,1.408"/>
				<g>
					
						<line fill="none" stroke="#405765" stroke-width="0.8" stroke-linecap="round" stroke-linejoin="round" stroke-miterlimit="10" x1="50.782" y1="73.967" x2="50.782" y2="85.963"/>
					
						<line fill="none" stroke="#405765" stroke-width="0.8" stroke-linecap="round" stroke-linejoin="round" stroke-miterlimit="10" x1="51.84" y1="73.967" x2="51.84" y2="85.963"/>
				</g>
			</g>
		</g>
		<g>
			
				<path fill="#FFFFFF" stroke="#405765" stroke-width="0.8" stroke-linecap="round" stroke-linejoin="round" stroke-miterlimit="10" d="
				M201.016,89.871c2.4,0,4.345-4.196,4.345-9.451c0-5.255-1.945-9.451-4.345-9.451c-0.234,0-1.142,0-1.376,0
				c-2.4,0-4.345,4.196-4.345,9.451c0,5.255,1.945,9.483,4.345,9.483C199.874,89.903,200.782,89.871,201.016,89.871z"/>
			
				<ellipse fill="#FFFFFF" stroke="#405765" stroke-width="0.8" stroke-linecap="round" stroke-linejoin="round" stroke-miterlimit="10" cx="201.016" cy="80.355" rx="4.345" ry="9.515"/>
			<g>
				
					<path fill="#FFFFFF" stroke="#405765" stroke-width="0.8" stroke-linecap="round" stroke-linejoin="round" stroke-miterlimit="10" d="
					M199.554,83.476c0.299,0.76,0.921,1.283,1.64,1.283c1.01,0,1.829-1.032,1.829-2.305s-0.852-2.305-1.829-2.305
					s-1.829-1.054-1.829-2.327s0.819-2.305,1.829-2.305c0.758,0,1.408,0.58,1.685,1.408"/>
				<g>
					
						<line fill="none" stroke="#405765" stroke-width="0.8" stroke-linecap="round" stroke-linejoin="round" stroke-miterlimit="10" x1="200.733" y1="73.967" x2="200.733" y2="85.963"/>
					
						<line fill="none" stroke="#405765" stroke-width="0.8" stroke-linecap="round" stroke-linejoin="round" stroke-miterlimit="10" x1="201.791" y1="73.967" x2="201.791" y2="85.963"/>
				</g>
			</g>
		</g>
		<g>
			
				<path fill="#FFFFFF" stroke="#405765" stroke-width="0.8" stroke-linecap="round" stroke-linejoin="round" stroke-miterlimit="10" d="
				M95.698,27.539c2.4,0,4.345-4.255,4.345-9.51s-1.945-9.51-4.345-9.51c-0.234,0-1.142,0-1.376,0c-2.4,0-4.345,4.255-4.345,9.51
				s1.945,9.513,4.345,9.513C94.556,27.541,95.464,27.539,95.698,27.539z"/>
			
				<ellipse fill="#FFFFFF" stroke="#405765" stroke-width="0.8" stroke-linecap="round" stroke-linejoin="round" stroke-miterlimit="10" cx="95.698" cy="18.023" rx="4.345" ry="9.515"/>
			<g>
				
					<path fill="#FFFFFF" stroke="#405765" stroke-width="0.8" stroke-linecap="round" stroke-linejoin="round" stroke-miterlimit="10" d="
					M94.235,21.143c0.299,0.76,0.921,1.283,1.64,1.283c1.01,0,1.829-1.032,1.829-2.305s-0.852-2.305-1.829-2.305
					c-0.977,0-1.829-1.054-1.829-2.327s0.819-2.305,1.829-2.305c0.758,0,1.408,0.58,1.685,1.408"/>
				<g>
					
						<line fill="none" stroke="#405765" stroke-width="0.8" stroke-linecap="round" stroke-linejoin="round" stroke-miterlimit="10" x1="95.238" y1="11.517" x2="95.238" y2="23.513"/>
					
						<line fill="none" stroke="#405765" stroke-width="0.8" stroke-linecap="round" stroke-linejoin="round" stroke-miterlimit="10" x1="96.296" y1="11.517" x2="96.296" y2="23.513"/>
				</g>
			</g>
		</g>
		<g>
			
				<path fill="#FFFFFF" stroke="#405765" stroke-width="0.8" stroke-linecap="round" stroke-linejoin="round" stroke-miterlimit="10" d="
				M65.708,27.539c2.4,0,4.345-4.255,4.345-9.51s-1.945-9.51-4.345-9.51c-0.234,0-1.142,0-1.376,0c-2.4,0-4.345,4.255-4.345,9.51
				s1.945,9.513,4.345,9.513C64.566,27.541,65.474,27.539,65.708,27.539z"/>
			
				<ellipse fill="#FFFFFF" stroke="#405765" stroke-width="0.8" stroke-linecap="round" stroke-linejoin="round" stroke-miterlimit="10" cx="65.708" cy="18.023" rx="4.345" ry="9.515"/>
			<g>
				
					<path fill="#FFFFFF" stroke="#405765" stroke-width="0.8" stroke-linecap="round" stroke-linejoin="round" stroke-miterlimit="10" d="
					M64.245,21.143c0.299,0.76,0.921,1.283,1.64,1.283c1.01,0,1.829-1.032,1.829-2.305s-0.852-2.305-1.829-2.305
					s-1.829-1.054-1.829-2.327s0.819-2.305,1.829-2.305c0.758,0,1.408,0.58,1.685,1.408"/>
				<g>
					
						<line fill="none" stroke="#405765" stroke-width="0.8" stroke-linecap="round" stroke-linejoin="round" stroke-miterlimit="10" x1="64.895" y1="11.517" x2="64.895" y2="23.513"/>
					
						<line fill="none" stroke="#405765" stroke-width="0.8" stroke-linecap="round" stroke-linejoin="round" stroke-miterlimit="10" x1="65.953" y1="11.517" x2="65.953" y2="23.513"/>
				</g>
			</g>
		</g>
		<g>
			
				<path fill="#FFFFFF" stroke="#405765" stroke-width="0.8" stroke-linecap="round" stroke-linejoin="round" stroke-miterlimit="10" d="
				M185.668,27.539c2.4,0,4.345-4.255,4.345-9.51s-1.945-9.51-4.345-9.51c-0.234,0-1.142,0-1.376,0c-2.4,0-4.345,4.255-4.345,9.51
				s1.945,9.513,4.345,9.513C184.526,27.541,185.434,27.539,185.668,27.539z"/>
			
				<ellipse fill="#FFFFFF" stroke="#405765" stroke-width="0.8" stroke-linecap="round" stroke-linejoin="round" stroke-miterlimit="10" cx="185.668" cy="18.023" rx="4.345" ry="9.515"/>
			<g>
				
					<path fill="#FFFFFF" stroke="#405765" stroke-width="0.8" stroke-linecap="round" stroke-linejoin="round" stroke-miterlimit="10" d="
					M184.206,21.143c0.299,0.76,0.921,1.283,1.64,1.283c1.01,0,1.829-1.032,1.829-2.305s-0.852-2.305-1.829-2.305
					s-1.829-1.054-1.829-2.327s0.819-2.305,1.829-2.305c0.758,0,1.408,0.58,1.685,1.408"/>
				<g>
					
						<line fill="none" stroke="#405765" stroke-width="0.8" stroke-linecap="round" stroke-linejoin="round" stroke-miterlimit="10" x1="185.208" y1="11.517" x2="185.208" y2="23.513"/>
					
						<line fill="none" stroke="#405765" stroke-width="0.8" stroke-linecap="round" stroke-linejoin="round" stroke-miterlimit="10" x1="186.267" y1="11.517" x2="186.267" y2="23.513"/>
				</g>
			</g>
		</g>
		<g>
			
				<path fill="#FFFFFF" stroke="#405765" stroke-width="0.8" stroke-linecap="round" stroke-linejoin="round" stroke-miterlimit="10" d="
				M155.678,27.539c2.4,0,4.345-4.255,4.345-9.51s-1.945-9.51-4.345-9.51c-0.234,0-1.142,0-1.376,0c-2.4,0-4.345,4.255-4.345,9.51
				s1.945,9.513,4.345,9.513C154.536,27.541,155.444,27.539,155.678,27.539z"/>
			
				<ellipse fill="#FFFFFF" stroke="#405765" stroke-width="0.8" stroke-linecap="round" stroke-linejoin="round" stroke-miterlimit="10" cx="155.678" cy="18.023" rx="4.345" ry="9.515"/>
			<g>
				
					<path fill="#FFFFFF" stroke="#405765" stroke-width="0.8" stroke-linecap="round" stroke-linejoin="round" stroke-miterlimit="10" d="
					M154.215,21.143c0.299,0.76,0.921,1.283,1.64,1.283c1.01,0,1.829-1.032,1.829-2.305s-0.852-2.305-1.829-2.305
					s-1.829-1.054-1.829-2.327s0.819-2.305,1.829-2.305c0.758,0,1.408,0.58,1.685,1.408"/>
				<g>
					
						<line fill="none" stroke="#405765" stroke-width="0.8" stroke-linecap="round" stroke-linejoin="round" stroke-miterlimit="10" x1="154.865" y1="11.517" x2="154.865" y2="23.513"/>
					
						<line fill="none" stroke="#405765" stroke-width="0.8" stroke-linecap="round" stroke-linejoin="round" stroke-miterlimit="10" x1="155.924" y1="11.517" x2="155.924" y2="23.513"/>
				</g>
			</g>
		</g>
		<g>
			
				<path fill="#FFFFFF" stroke="#405765" stroke-width="0.8" stroke-linecap="round" stroke-linejoin="round" stroke-miterlimit="10" d="
				M51.066,48.286c2.4,0,4.345-4.22,4.345-9.476s-1.945-9.476-4.345-9.476c-0.234,0-1.142,0-1.376,0c-2.4,0-4.345,4.22-4.345,9.476
				s1.945,9.496,4.345,9.496C49.924,48.306,50.831,48.286,51.066,48.286z"/>
			
				<ellipse fill="#FFFFFF" stroke="#405765" stroke-width="0.8" stroke-linecap="round" stroke-linejoin="round" stroke-miterlimit="10" cx="51.066" cy="38.77" rx="4.345" ry="9.515"/>
			<g>
				
					<path fill="#FFFFFF" stroke="#405765" stroke-width="0.8" stroke-linecap="round" stroke-linejoin="round" stroke-miterlimit="10" d="
					M49.603,41.89c0.299,0.76,0.921,1.283,1.64,1.283c1.01,0,1.829-1.032,1.829-2.305s-0.852-2.305-1.829-2.305
					c-0.977,0-1.829-1.054-1.829-2.327s0.819-2.305,1.829-2.305c0.758,0,1.408,0.58,1.685,1.408"/>
				<g>
					
						<line fill="none" stroke="#405765" stroke-width="0.8" stroke-linecap="round" stroke-linejoin="round" stroke-miterlimit="10" x1="50.782" y1="32.333" x2="50.782" y2="44.329"/>
					
						<line fill="none" stroke="#405765" stroke-width="0.8" stroke-linecap="round" stroke-linejoin="round" stroke-miterlimit="10" x1="51.84" y1="32.333" x2="51.84" y2="44.329"/>
				</g>
			</g>
		</g>
		<g>
			
				<path fill="#FFFFFF" stroke="#405765" stroke-width="0.8" stroke-linecap="round" stroke-linejoin="round" stroke-miterlimit="10" d="
				M81.056,48.286c2.4,0,4.345-4.22,4.345-9.476s-1.945-9.476-4.345-9.476c-0.234,0-1.142,0-1.376,0c-2.4,0-4.345,4.22-4.345,9.476
				s1.945,9.496,4.345,9.496C79.914,48.306,80.821,48.286,81.056,48.286z"/>
			
				<ellipse fill="#FFFFFF" stroke="#405765" stroke-width="0.8" stroke-linecap="round" stroke-linejoin="round" stroke-miterlimit="10" cx="81.056" cy="38.77" rx="4.345" ry="9.515"/>
			<g>
				
					<path fill="#FFFFFF" stroke="#405765" stroke-width="0.8" stroke-linecap="round" stroke-linejoin="round" stroke-miterlimit="10" d="
					M79.593,41.89c0.299,0.76,0.921,1.283,1.64,1.283c1.01,0,1.829-1.032,1.829-2.305s-0.852-2.305-1.829-2.305
					s-1.829-1.054-1.829-2.327s0.819-2.305,1.829-2.305c0.758,0,1.408,0.58,1.685,1.408"/>
				<g>
					
						<line fill="none" stroke="#405765" stroke-width="0.8" stroke-linecap="round" stroke-linejoin="round" stroke-miterlimit="10" x1="80.772" y1="32.333" x2="80.772" y2="44.329"/>
					
						<line fill="none" stroke="#405765" stroke-width="0.8" stroke-linecap="round" stroke-linejoin="round" stroke-miterlimit="10" x1="81.831" y1="32.333" x2="81.831" y2="44.329"/>
				</g>
			</g>
		</g>
		<g>
			
				<path fill="#FFFFFF" stroke="#405765" stroke-width="0.8" stroke-linecap="round" stroke-linejoin="round" stroke-miterlimit="10" d="
				M171.026,48.286c2.4,0,4.345-4.22,4.345-9.476s-1.945-9.476-4.345-9.476c-0.234,0-1.142,0-1.376,0c-2.4,0-4.345,4.22-4.345,9.476
				s1.945,9.496,4.345,9.496C169.884,48.306,170.792,48.286,171.026,48.286z"/>
			
				<ellipse fill="#FFFFFF" stroke="#405765" stroke-width="0.8" stroke-linecap="round" stroke-linejoin="round" stroke-miterlimit="10" cx="171.026" cy="38.77" rx="4.345" ry="9.515"/>
			<g>
				
					<path fill="#FFFFFF" stroke="#405765" stroke-width="0.8" stroke-linecap="round" stroke-linejoin="round" stroke-miterlimit="10" d="
					M169.563,41.89c0.299,0.76,0.921,1.283,1.64,1.283c1.01,0,1.829-1.032,1.829-2.305s-0.852-2.305-1.829-2.305
					c-0.977,0-1.829-1.054-1.829-2.327s0.819-2.305,1.829-2.305c0.758,0,1.408,0.58,1.685,1.408"/>
				<g>
					
						<line fill="none" stroke="#405765" stroke-width="0.8" stroke-linecap="round" stroke-linejoin="round" stroke-miterlimit="10" x1="170.743" y1="32.333" x2="170.743" y2="44.329"/>
					
						<line fill="none" stroke="#405765" stroke-width="0.8" stroke-linecap="round" stroke-linejoin="round" stroke-miterlimit="10" x1="171.801" y1="32.333" x2="171.801" y2="44.329"/>
				</g>
			</g>
		</g>
		<g>
			
				<path fill="#FFFFFF" stroke="#405765" stroke-width="0.8" stroke-linecap="round" stroke-linejoin="round" stroke-miterlimit="10" d="
				M201.016,48.286c2.4,0,4.345-4.22,4.345-9.476s-1.945-9.476-4.345-9.476c-0.234,0-1.142,0-1.376,0c-2.4,0-4.345,4.22-4.345,9.476
				s1.945,9.496,4.345,9.496C199.874,48.306,200.782,48.286,201.016,48.286z"/>
			
				<ellipse fill="#FFFFFF" stroke="#405765" stroke-width="0.8" stroke-linecap="round" stroke-linejoin="round" stroke-miterlimit="10" cx="201.016" cy="38.77" rx="4.345" ry="9.515"/>
			<g>
				
					<path fill="#FFFFFF" stroke="#405765" stroke-width="0.8" stroke-linecap="round" stroke-linejoin="round" stroke-miterlimit="10" d="
					M199.554,41.89c0.299,0.76,0.921,1.283,1.64,1.283c1.01,0,1.829-1.032,1.829-2.305s-0.852-2.305-1.829-2.305
					s-1.829-1.054-1.829-2.327s0.819-2.305,1.829-2.305c0.758,0,1.408,0.58,1.685,1.408"/>
				<g>
					
						<line fill="none" stroke="#405765" stroke-width="0.8" stroke-linecap="round" stroke-linejoin="round" stroke-miterlimit="10" x1="200.733" y1="32.333" x2="200.733" y2="44.329"/>
					
						<line fill="none" stroke="#405765" stroke-width="0.8" stroke-linecap="round" stroke-linejoin="round" stroke-miterlimit="10" x1="201.791" y1="32.333" x2="201.791" y2="44.329"/>
				</g>
			</g>
		</g>
	</g>
	<g>
		<g>
			
				<path fill="#FFFFFF" stroke="#297771" stroke-width="0.8" stroke-linecap="round" stroke-linejoin="round" stroke-miterlimit="10" d="
				M139.613,107.407l0.87,2.922c0.341,1.162,1.408,1.92,2.619,1.92h13.752c1.212,0,2.278-0.758,2.62-1.921l1.744-5.924"/>
			
				<path fill="#FFFFFF" stroke="#297771" stroke-width="0.8" stroke-linecap="round" stroke-linejoin="round" stroke-miterlimit="10" d="
				M166.799,74.162c-1.438-3.399-3.497-6.45-6.118-9.069c-2.621-2.619-5.674-4.618-9.075-6.054
				c-3.521-1.487-7.26-2.185-11.113-2.185h-27.601c-3.853,0-7.592,0.697-11.113,2.184c-3.4,1.436-6.454,3.464-9.075,6.082
				c-2.622,2.619-4.68,5.656-6.118,9.054c-1.49,3.52-2.245,7.251-2.245,11.105c0,7.618,3.567,18.745,3.858,19.639l3.485,11.793
				c0.341,1.162,1.408,1.887,2.619,1.887h13.752c1.212,0,2.279-0.727,2.62-1.89l0.877-3.036c0.444,0.02,0.892-0.014,1.34-0.014
				h3.458c4.095,0,10.095,0.081,15.251,0.08l0.87,2.931c0.341,1.162,1.408,1.929,2.619,1.929h13.752c1.212,0,2.278-0.727,2.62-1.889
				l1.744-5.909c2.045-1.017,3.962-2.26,5.715-3.741c2.069-1.749,3.878-3.77,5.375-6.024c3.107-4.678,4.75-10.127,4.75-15.767
				C169.044,81.417,168.289,77.683,166.799,74.162z"/>
			
				<path fill="#FFFFFF" stroke="#297771" stroke-width="0.8" stroke-linecap="round" stroke-linejoin="round" stroke-miterlimit="10" d="
				M171.068,80.592c-0.716-1.23-1.581-2.219-2.569-2.937c-1.163-0.845-2.486-1.292-3.826-1.292c-1.141,0-5.869,1.415-6.995,2.233
				c-0.989,0.718-1.853,1.706-2.569,2.937c-1.318,2.263-2.044,5.215-2.044,8.31c0,3.096,0.726,6.047,2.044,8.31
				c0.716,1.231,1.581,2.219,2.569,2.937c1.163,0.845,2.486,1.292,3.826,1.292c1.141,0,5.869-1.415,6.995-2.233
				c0.989-0.718,1.853-1.706,2.569-2.937c1.318-2.263,2.044-5.215,2.044-8.31S172.386,82.855,171.068,80.592z"/>
			
				<path fill="#FFFFFF" stroke="#297771" stroke-width="0.8" stroke-linecap="round" stroke-linejoin="round" stroke-miterlimit="10" d="
				M171.068,80.592c-0.716-1.23-1.581-2.219-2.569-2.937c-1.163-0.845-2.486-1.292-3.826-1.292s-2.663,0.447-3.826,1.292
				c-0.989,0.718-1.853,1.706-2.569,2.937c-1.318,2.263-2.044,5.215-2.044,8.31s0.726,6.047,2.044,8.31
				c0.716,1.231,1.581,2.219,2.569,2.937c1.163,0.845,2.486,1.292,3.826,1.292s2.663-0.447,3.826-1.292
				c0.989-0.718,1.853-1.706,2.569-2.937c1.318-2.263,2.044-5.215,2.044-8.31S172.386,82.855,171.068,80.592z"/>
			
				<path fill="#FFFFFF" stroke="#297771" stroke-width="0.8" stroke-linecap="round" stroke-linejoin="round" stroke-miterlimit="10" d="
				M85.481,77.286c-0.899,1.757-2.091,3.286-3.298,4.213c-0.992,0.761-1.904,1.058-2.44,0.793s-0.855-1.169-0.854-2.419
				c0.001-1.321,0.367-2.909,1.018-4.47c0.011-0.017,0.022-0.034,0.032-0.051c0.161-0.254,0.282-0.457,0.364-0.596
				c0.08-0.14,0.123-0.214,0.123-0.214c0.024-0.042,0.049-0.092,0.069-0.138c0.27-0.64-0.029-1.378-0.669-1.648
				c-0.25-0.106-0.516-0.124-0.762-0.069c-0.413,0.044-0.795,0.292-0.993,0.692c-0.313,0.634-0.585,1.276-0.815,1.917
				c-0.141,0.243-0.3,0.501-0.479,0.769c-0.248,0.372-0.535,0.761-0.865,1.147c-0.165,0.193-0.34,0.384-0.526,0.57
				c-0.186,0.187-0.383,0.367-0.591,0.537c-0.414,0.339-0.876,0.638-1.356,0.819c-0.239,0.09-0.482,0.147-0.715,0.16
				c-0.234,0.013-0.457-0.018-0.668-0.099c-0.21-0.082-0.405-0.215-0.576-0.396c-0.172-0.18-0.318-0.405-0.435-0.654
				s-0.207-0.519-0.276-0.796c-0.033-0.139-0.062-0.28-0.086-0.421c-0.023-0.142-0.041-0.284-0.056-0.426
				c-0.028-0.285-0.041-0.569-0.04-0.849c0-0.28,0.013-0.555,0.035-0.824c0.044-0.537,0.122-1.045,0.217-1.511
				c0.094-0.466,0.205-0.89,0.314-1.263c0.11-0.373,0.219-0.695,0.314-0.959s0.177-0.469,0.233-0.608
				c0.057-0.139,0.088-0.214,0.088-0.214s-0.039,0.07-0.113,0.201c-0.073,0.132-0.179,0.326-0.306,0.578
				c-0.127,0.252-0.276,0.561-0.433,0.923c-0.156,0.362-0.32,0.777-0.475,1.241c-0.155,0.463-0.3,0.975-0.414,1.53
				c-0.057,0.277-0.106,0.565-0.143,0.863c-0.037,0.298-0.061,0.605-0.069,0.922c-0.003,0.158-0.002,0.319,0.004,0.481
				c0.007,0.162,0.019,0.327,0.038,0.493c0.04,0.332,0.106,0.671,0.217,1.012c0.112,0.339,0.271,0.682,0.502,0.998
				c0.116,0.158,0.249,0.309,0.401,0.445c0.152,0.137,0.321,0.259,0.504,0.36c0.031,0.015,0.012,0.006,0.021,0.011l0.007,0.004
				l0.013,0.007l0.027,0.014l0.027,0.014l0.013,0.007c0.004,0.002,0.012,0.006,0.019,0.009l0.08,0.036l0.04,0.018
				c0.014,0.006,0.025,0.01,0.037,0.015c0.049,0.019,0.097,0.04,0.147,0.056c0.049,0.017,0.099,0.034,0.149,0.047
				c0.2,0.058,0.405,0.093,0.608,0.108c0.406,0.031,0.8-0.015,1.166-0.101c0.367-0.087,0.71-0.213,1.032-0.358
				c0.16-0.073,0.316-0.152,0.467-0.234s0.296-0.169,0.438-0.258c0.211-0.134,0.413-0.273,0.606-0.417
				c-0.011,0.193-0.016,0.383-0.017,0.57c-0.002,2.295,0.798,3.954,2.253,4.672c0.484,0.239,1.005,0.357,1.554,0.357
				c1.102,0,2.31-0.477,3.525-1.41c0.249-0.191,0.494-0.405,0.737-0.629C84.606,80.964,84.951,79.102,85.481,77.286z"/>
			<g>
				
					<polygon fill="#FFFFFF" stroke="#297771" stroke-width="0.8" stroke-linecap="round" stroke-linejoin="round" stroke-miterlimit="10" points="
					110.158,66.381 133.671,66.381 137.135,62.853 113.727,62.853 				"/>
				
					<polygon fill="#FFFFFF" stroke="#297771" stroke-width="0.8" stroke-linecap="round" stroke-linejoin="round" stroke-miterlimit="10" points="
					113.585,62.765 113.585,66.381 110.158,66.381 				"/>
			</g>
			<g>
				<g>
					
						<path fill="#FFFFFF" stroke="#297771" stroke-width="0.8" stroke-linecap="round" stroke-linejoin="round" stroke-miterlimit="10" d="
						M147.585,73.325c-2.068,0-3.75,1.682-3.75,3.75s1.682,3.75,3.75,3.75s3.75-1.682,3.75-3.75
						C151.335,75.007,149.653,73.325,147.585,73.325z"/>
					
						<circle fill="#FFFFFF" stroke="#297771" stroke-width="0.8" stroke-linecap="round" stroke-linejoin="round" stroke-miterlimit="10" cx="148.84" cy="76.761" r="1.097"/>
				</g>
				<g>
					
						<path fill="#FFFFFF" stroke="#297771" stroke-width="0.8" stroke-linecap="round" stroke-linejoin="round" stroke-miterlimit="10" d="
						M156.563,65.915c-2.068,0-3.75,1.682-3.75,3.75s1.682,3.75,3.75,3.75s3.75-1.682,3.75-3.75
						C160.313,67.598,158.631,65.915,156.563,65.915z"/>
					
						<circle fill="#FFFFFF" stroke="#297771" stroke-width="0.8" stroke-linecap="round" stroke-linejoin="round" stroke-miterlimit="10" cx="157.818" cy="69.352" r="1.097"/>
				</g>
			</g>
			<g>
				
					<circle fill="#FFFFFF" stroke="#297771" stroke-width="0.8" stroke-linecap="round" stroke-linejoin="round" stroke-miterlimit="10" cx="164.429" cy="90.242" r="1.321"/>
				
					<circle fill="#FFFFFF" stroke="#297771" stroke-width="0.8" stroke-linecap="round" stroke-linejoin="round" stroke-miterlimit="10" cx="168.513" cy="86.471" r="1.321"/>
			</g>
		</g>
		<g>
			
				<path fill="#FFFFFF" stroke="#E96132" stroke-width="0.8" stroke-linecap="round" stroke-linejoin="round" stroke-miterlimit="10" d="
				M135.058,46.647c0-5.122-4.203-9.275-9.325-9.275c-5.122,0-9.325,4.152-9.325,9.275c0,0.178,0,1.586,0,1.764
				c0,5.122,4.203,9.275,9.325,9.275s9.3-4.152,9.3-9.275C135.033,48.233,135.058,46.825,135.058,46.647z"/>
			
				<circle fill="#FFFFFF" stroke="#E96132" stroke-width="0.8" stroke-linecap="round" stroke-linejoin="round" stroke-miterlimit="10" cx="125.784" cy="46.647" r="9.275"/>
			<g>
				
					<path fill="#FFFFFF" stroke="#E96132" stroke-width="0.8" stroke-linecap="round" stroke-linejoin="round" stroke-miterlimit="10" d="
					M123.874,49.076c0.339,0.542,1.045,0.914,1.861,0.914c1.146,0,2.076-0.735,2.076-1.642s-0.967-1.642-2.076-1.642
					c-1.108,0-2.076-0.751-2.076-1.658s0.929-1.642,2.076-1.642c0.86,0,1.598,0.413,1.913,1.003"/>
				<g>
					
						<line fill="none" stroke="#E96132" stroke-width="0.8" stroke-linecap="round" stroke-linejoin="round" stroke-miterlimit="10" x1="125.228" y1="42.212" x2="125.228" y2="50.68"/>
					
						<line fill="none" stroke="#E96132" stroke-width="0.8" stroke-linecap="round" stroke-linejoin="round" stroke-miterlimit="10" x1="126.287" y1="42.212" x2="126.287" y2="50.68"/>
				</g>
			</g>
		</g>
		<g opacity="0.5">
			
				<line fill="none" stroke="#E96132" stroke-width="0.8" stroke-linecap="round" stroke-linejoin="round" stroke-miterlimit="10" x1="106.352" y1="46.623" x2="99.295" y2="46.623"/>
			
				<line fill="none" stroke="#E96132" stroke-width="0.8" stroke-linecap="round" stroke-linejoin="round" stroke-miterlimit="10" x1="112.025" y1="33.019" x2="107.035" y2="28.029"/>
			
				<line fill="none" stroke="#E96132" stroke-width="0.8" stroke-linecap="round" stroke-linejoin="round" stroke-miterlimit="10" x1="125.581" y1="27.394" x2="125.581" y2="20.337"/>
			
				<line fill="none" stroke="#E96132" stroke-width="0.8" stroke-linecap="round" stroke-linejoin="round" stroke-miterlimit="10" x1="139.219" y1="33.019" x2="144.208" y2="28.029"/>
			
				<line fill="none" stroke="#E96132" stroke-width="0.8" stroke-linecap="round" stroke-linejoin="round" stroke-miterlimit="10" x1="144.81" y1="46.623" x2="151.866" y2="46.623"/>
		</g>
	</g>
</g>
</svg>
