<?xml version="1.0" encoding="utf-8"?>
<!-- Generator: Adobe Illustrator 17.0.0, SVG Export Plug-In . SVG Version: 6.00 Build 0)  -->
<!DOCTYPE svg PUBLIC "-//W3C//DTD SVG 1.1//EN" "http://www.w3.org/Graphics/SVG/1.1/DTD/svg11.dtd">
<svg version="1.1" id="Layer_1" xmlns="http://www.w3.org/2000/svg" xmlns:xlink="http://www.w3.org/1999/xlink" x="0px" y="0px"
	 width="250px" height="140px" viewBox="0 0 250 140" enable-background="new 0 0 250 140" xml:space="preserve">
<g>
	<g opacity="0.2">
		<g>
			
				<circle fill="#FFFFFF" stroke="#405765" stroke-width="0.8" stroke-linecap="round" stroke-linejoin="round" stroke-miterlimit="10" cx="55.403" cy="21.131" r="5.114"/>
			
				<circle fill="#FFFFFF" stroke="#405765" stroke-width="0.8" stroke-linecap="round" stroke-linejoin="round" stroke-miterlimit="10" cx="31.17" cy="27.326" r="5.114"/>
			
				<circle fill="#FFFFFF" stroke="#405765" stroke-width="0.8" stroke-linecap="round" stroke-linejoin="round" stroke-miterlimit="10" cx="13.281" cy="44.808" r="5.114"/>
			
				<circle fill="#FFFFFF" stroke="#405765" stroke-width="0.8" stroke-linecap="round" stroke-linejoin="round" stroke-miterlimit="10" cx="6.529" cy="68.893" r="5.114"/>
			
				<circle fill="#FFFFFF" stroke="#405765" stroke-width="0.8" stroke-linecap="round" stroke-linejoin="round" stroke-miterlimit="10" cx="12.725" cy="93.126" r="5.114"/>
			
				<circle fill="#FFFFFF" stroke="#405765" stroke-width="0.8" stroke-linecap="round" stroke-linejoin="round" stroke-miterlimit="10" cx="30.207" cy="111.015" r="5.114"/>
			
				<circle fill="#FFFFFF" stroke="#405765" stroke-width="0.8" stroke-linecap="round" stroke-linejoin="round" stroke-miterlimit="10" cx="54.291" cy="117.767" r="5.114"/>
			
				<circle fill="#FFFFFF" stroke="#405765" stroke-width="0.8" stroke-linecap="round" stroke-linejoin="round" stroke-miterlimit="10" cx="78.525" cy="111.571" r="5.114"/>
			
				<circle fill="#FFFFFF" stroke="#405765" stroke-width="0.8" stroke-linecap="round" stroke-linejoin="round" stroke-miterlimit="10" cx="96.414" cy="94.089" r="5.114"/>
			
				<circle fill="#FFFFFF" stroke="#405765" stroke-width="0.8" stroke-linecap="round" stroke-linejoin="round" stroke-miterlimit="10" cx="96.97" cy="45.771" r="5.114"/>
			
				<circle fill="#FFFFFF" stroke="#405765" stroke-width="0.8" stroke-linecap="round" stroke-linejoin="round" stroke-miterlimit="10" cx="79.487" cy="27.882" r="5.114"/>
		</g>
		<g>
			
				<circle fill="#FFFFFF" stroke="#405765" stroke-width="0.8" stroke-linecap="round" stroke-linejoin="round" stroke-miterlimit="10" cx="195.709" cy="21.131" r="5.114"/>
			
				<circle fill="#FFFFFF" stroke="#405765" stroke-width="0.8" stroke-linecap="round" stroke-linejoin="round" stroke-miterlimit="10" cx="171.475" cy="27.326" r="5.114"/>
			
				<circle fill="#FFFFFF" stroke="#405765" stroke-width="0.8" stroke-linecap="round" stroke-linejoin="round" stroke-miterlimit="10" cx="153.586" cy="44.808" r="5.114"/>
			
				<circle fill="#FFFFFF" stroke="#405765" stroke-width="0.8" stroke-linecap="round" stroke-linejoin="round" stroke-miterlimit="10" cx="153.03" cy="93.126" r="5.114"/>
			
				<circle fill="#FFFFFF" stroke="#405765" stroke-width="0.8" stroke-linecap="round" stroke-linejoin="round" stroke-miterlimit="10" cx="170.512" cy="111.015" r="5.114"/>
			
				<circle fill="#FFFFFF" stroke="#405765" stroke-width="0.8" stroke-linecap="round" stroke-linejoin="round" stroke-miterlimit="10" cx="194.597" cy="117.767" r="5.114"/>
			
				<circle fill="#FFFFFF" stroke="#405765" stroke-width="0.8" stroke-linecap="round" stroke-linejoin="round" stroke-miterlimit="10" cx="218.83" cy="111.571" r="5.114"/>
			
				<circle fill="#FFFFFF" stroke="#405765" stroke-width="0.8" stroke-linecap="round" stroke-linejoin="round" stroke-miterlimit="10" cx="236.719" cy="94.089" r="5.114"/>
			
				<circle fill="#FFFFFF" stroke="#405765" stroke-width="0.8" stroke-linecap="round" stroke-linejoin="round" stroke-miterlimit="10" cx="243.471" cy="70.005" r="5.114"/>
			
				<circle fill="#FFFFFF" stroke="#405765" stroke-width="0.8" stroke-linecap="round" stroke-linejoin="round" stroke-miterlimit="10" cx="237.275" cy="45.771" r="5.114"/>
			
				<circle fill="#FFFFFF" stroke="#405765" stroke-width="0.8" stroke-linecap="round" stroke-linejoin="round" stroke-miterlimit="10" cx="219.793" cy="27.882" r="5.114"/>
		</g>
	</g>
	<g opacity="0.5">
		
			<circle fill="#FFFFFF" stroke="#405765" stroke-width="0.8" stroke-linecap="round" stroke-linejoin="round" stroke-miterlimit="10" cx="54.847" cy="43.065" r="8.484"/>
		
			<circle fill="#FFFFFF" stroke="#405765" stroke-width="0.8" stroke-linecap="round" stroke-linejoin="round" stroke-miterlimit="10" cx="31.998" cy="56.257" r="8.484"/>
		
			<circle fill="#FFFFFF" stroke="#405765" stroke-width="0.8" stroke-linecap="round" stroke-linejoin="round" stroke-miterlimit="10" cx="31.998" cy="82.64" r="8.484"/>
		
			<circle fill="#FFFFFF" stroke="#405765" stroke-width="0.8" stroke-linecap="round" stroke-linejoin="round" stroke-miterlimit="10" cx="54.847" cy="95.832" r="8.484"/>
		
			<circle fill="#FFFFFF" stroke="#405765" stroke-width="0.8" stroke-linecap="round" stroke-linejoin="round" stroke-miterlimit="10" cx="77.696" cy="82.64" r="8.484"/>
		
			<circle fill="#FFFFFF" stroke="#405765" stroke-width="0.8" stroke-linecap="round" stroke-linejoin="round" stroke-miterlimit="10" cx="77.696" cy="56.257" r="8.484"/>
		
			<circle fill="#FFFFFF" stroke="#405765" stroke-width="0.8" stroke-linecap="round" stroke-linejoin="round" stroke-miterlimit="10" cx="195.153" cy="43.065" r="8.484"/>
		
			<circle fill="#FFFFFF" stroke="#405765" stroke-width="0.8" stroke-linecap="round" stroke-linejoin="round" stroke-miterlimit="10" cx="172.304" cy="56.257" r="8.484"/>
		
			<circle fill="#FFFFFF" stroke="#405765" stroke-width="0.8" stroke-linecap="round" stroke-linejoin="round" stroke-miterlimit="10" cx="172.304" cy="82.64" r="8.484"/>
		
			<circle fill="#FFFFFF" stroke="#405765" stroke-width="0.8" stroke-linecap="round" stroke-linejoin="round" stroke-miterlimit="10" cx="195.153" cy="95.832" r="8.484"/>
		
			<circle fill="#FFFFFF" stroke="#405765" stroke-width="0.8" stroke-linecap="round" stroke-linejoin="round" stroke-miterlimit="10" cx="218.002" cy="82.64" r="8.484"/>
		
			<circle fill="#FFFFFF" stroke="#405765" stroke-width="0.8" stroke-linecap="round" stroke-linejoin="round" stroke-miterlimit="10" cx="218.002" cy="56.257" r="8.484"/>
	</g>
	<g opacity="0.5">
		<g>
			<line fill="none" x1="153.585" y1="70.095" x2="194.98" y2="70.095"/>
			<g>
				
					<line fill="none" stroke="#297771" stroke-width="0.8" stroke-linecap="round" stroke-linejoin="round" x1="153.585" y1="70.095" x2="155.764" y2="70.095"/>
				
					<line fill="none" stroke="#297771" stroke-width="0.8" stroke-linecap="round" stroke-linejoin="round" stroke-dasharray="4.1152,4.1152" x1="159.879" y1="70.095" x2="190.744" y2="70.095"/>
				
					<line fill="none" stroke="#297771" stroke-width="0.8" stroke-linecap="round" stroke-linejoin="round" x1="192.801" y1="70.095" x2="194.98" y2="70.095"/>
			</g>
		</g>
		<g>
			<line fill="none" x1="50.317" y1="70.095" x2="98.247" y2="70.095"/>
			<g>
				
					<line fill="none" stroke="#297771" stroke-width="0.8" stroke-linecap="round" stroke-linejoin="round" x1="50.317" y1="70.095" x2="52.496" y2="70.095"/>
				
					<line fill="none" stroke="#297771" stroke-width="0.8" stroke-linecap="round" stroke-linejoin="round" stroke-dasharray="3.9612,3.9612" x1="56.457" y1="70.095" x2="94.088" y2="70.095"/>
				
					<line fill="none" stroke="#297771" stroke-width="0.8" stroke-linecap="round" stroke-linejoin="round" x1="96.069" y1="70.095" x2="98.247" y2="70.095"/>
			</g>
		</g>
	</g>
	
		<circle fill="#FFFFFF" stroke="#E96132" stroke-width="0.8" stroke-linecap="round" stroke-linejoin="round" stroke-miterlimit="10" cx="124.818" cy="70" r="4.37"/>
	<g opacity="0.4">
		
			<line fill="none" stroke="#E96132" stroke-width="0.8" stroke-linecap="round" stroke-linejoin="round" stroke-miterlimit="10" x1="124.173" y1="58.113" x2="124.173" y2="48.527"/>
		
			<line fill="none" stroke="#E96132" stroke-width="0.8" stroke-linecap="round" stroke-linejoin="round" stroke-miterlimit="10" x1="116.366" y1="61.925" x2="112.862" y2="58.42"/>
		
			<line fill="none" stroke="#E96132" stroke-width="0.8" stroke-linecap="round" stroke-linejoin="round" stroke-miterlimit="10" x1="116.743" y1="78.452" x2="113.239" y2="81.957"/>
		
			<line fill="none" stroke="#E96132" stroke-width="0.8" stroke-linecap="round" stroke-linejoin="round" stroke-miterlimit="10" x1="133.27" y1="78.075" x2="136.775" y2="81.58"/>
		
			<line fill="none" stroke="#E96132" stroke-width="0.8" stroke-linecap="round" stroke-linejoin="round" stroke-miterlimit="10" x1="132.893" y1="61.548" x2="136.398" y2="58.043"/>
		
			<line fill="none" stroke="#E96132" stroke-width="0.8" stroke-linecap="round" stroke-linejoin="round" stroke-miterlimit="10" x1="113.062" y1="70.531" x2="103.476" y2="70.531"/>
		
			<line fill="none" stroke="#E96132" stroke-width="0.8" stroke-linecap="round" stroke-linejoin="round" stroke-miterlimit="10" x1="124.609" y1="81.642" x2="124.609" y2="91.229"/>
		
			<line fill="none" stroke="#E96132" stroke-width="0.8" stroke-linecap="round" stroke-linejoin="round" stroke-miterlimit="10" x1="136.592" y1="70.095" x2="146.178" y2="70.095"/>
	</g>
	<g opacity="0.5">
		<g>
			<g>
				<path fill="none" stroke="#297771" stroke-width="0.8" stroke-linecap="round" stroke-linejoin="round" d="M105.972,37.074
					c0.063-0.036,0.126-0.072,0.189-0.108"/>
				
					<path fill="none" stroke="#297771" stroke-width="0.8" stroke-linecap="round" stroke-linejoin="round" stroke-dasharray="0.4264,4.2638" d="
					M109.982,35.08c4.557-1.939,9.572-3.011,14.837-3.011c7.016,0,13.587,1.905,19.225,5.226"/>
				<path fill="none" stroke="#297771" stroke-width="0.8" stroke-linecap="round" stroke-linejoin="round" d="M145.845,38.425
					c0.06,0.04,0.121,0.081,0.181,0.121"/>
			</g>
		</g>
		<g>
			<g>
				<path fill="none" stroke="#297771" stroke-width="0.8" stroke-linecap="round" stroke-linejoin="round" d="M146.179,101.35
					c-0.06,0.041-0.12,0.082-0.18,0.122"/>
				
					<path fill="none" stroke="#297771" stroke-width="0.8" stroke-linecap="round" stroke-linejoin="round" stroke-dasharray="0.4566,4.5664" d="
					M142.07,103.791c-5.175,2.648-11.039,4.141-17.252,4.141c-6.96,0-13.482-1.875-19.089-5.146"/>
				<path fill="none" stroke="#297771" stroke-width="0.8" stroke-linecap="round" stroke-linejoin="round" d="M103.791,101.575
					c-0.06-0.04-0.121-0.081-0.181-0.121"/>
			</g>
		</g>
		<g>
			<g>
				<path fill="none" stroke="#297771" stroke-width="0.8" stroke-linecap="round" stroke-linejoin="round" d="M87.287,16.013
					c0.06-0.041,0.119-0.083,0.179-0.124"/>
				
					<path fill="none" stroke="#297771" stroke-width="0.8" stroke-linecap="round" stroke-linejoin="round" stroke-dasharray="0.4486,4.4858" d="
					M91.238,13.466c9.829-5.851,21.312-9.211,33.581-9.211c12.734,0,24.622,3.62,34.691,9.887"/>
				<path fill="none" stroke="#297771" stroke-width="0.8" stroke-linecap="round" stroke-linejoin="round" d="M161.396,15.362
					c0.06,0.04,0.12,0.081,0.181,0.122"/>
			</g>
		</g>
		<g>
			<g>
				<path fill="none" stroke="#297771" stroke-width="0.8" stroke-linecap="round" stroke-linejoin="round" d="M163.886,122.883
					c-0.058,0.043-0.117,0.086-0.175,0.129"/>
				
					<path fill="none" stroke="#297771" stroke-width="0.8" stroke-linecap="round" stroke-linejoin="round" stroke-dasharray="0.4297,4.2975" d="
					M160.17,125.442c-10.208,6.523-22.338,10.303-35.351,10.303c-14.298,0-27.53-4.564-38.318-12.315"/>
				<path fill="none" stroke="#297771" stroke-width="0.8" stroke-linecap="round" stroke-linejoin="round" d="M84.773,122.146
					c-0.058-0.044-0.115-0.089-0.172-0.133"/>
			</g>
		</g>
	</g>
	<g>
		
			<circle fill="#FFFFFF" stroke="#E96132" stroke-width="0.8" stroke-linecap="round" stroke-linejoin="round" stroke-miterlimit="10" cx="54.847" cy="69.449" r="9.51"/>
		
			<circle fill="#FFFFFF" stroke="#E96132" stroke-width="0.8" stroke-linecap="round" stroke-linejoin="round" stroke-miterlimit="10" cx="54.967" cy="69.449" r="2.518"/>
		
			<path fill="#FFFFFF" stroke="#E96132" stroke-width="0.8" stroke-linecap="round" stroke-linejoin="round" stroke-miterlimit="10" d="
			M205.377,69.449c0,5.252-4.258,9.51-9.51,9.51c-3.451,0-6.472-1.838-8.139-4.588c-0.87-1.436-1.371-3.12-1.371-4.922
			c0-5.252,4.258-9.51,9.51-9.51C201.119,59.939,205.377,64.197,205.377,69.449z"/>
		
			<circle fill="#FFFFFF" stroke="#E96132" stroke-width="0.8" stroke-linecap="round" stroke-linejoin="round" stroke-miterlimit="10" cx="195.867" cy="69.449" r="2.518"/>
	</g>
</g>
</svg>
